<?xml version="1.0" encoding="UTF-8" standalone="no"?>
<!DOCTYPE svg PUBLIC "-//W3C//DTD SVG 1.1//EN" "http://www.w3.org/Graphics/SVG/1.1/DTD/svg11.dtd">
<!-- Created with Vectornator (http://vectornator.io/) -->
<svg height="100%" stroke-miterlimit="10" style="fill-rule:nonzero;clip-rule:evenodd;stroke-linecap:round;stroke-linejoin:round;" version="1.1" viewBox="0 0 100 100" width="100%" xml:space="preserve" xmlns="http://www.w3.org/2000/svg" xmlns:vectornator="http://vectornator.io" xmlns:xlink="http://www.w3.org/1999/xlink">
<defs/>
<clipPath id="ArtboardFrame">
<rect height="100" width="100" x="0" y="0"/>
</clipPath>
<g clip-path="url(#ArtboardFrame)" id="Layer-1" vectornator:layerName="Layer 1">
<g opacity="1" vectornator:layerName="Group 1">
<path d="M70.8333 32.8125C70.5729 32.8125 70.5729 32.8125 70.3125 32.8125C70.3125 32.0312 70.3125 32.0312 70.3125 31.25C70.0521 31.25 70.0521 31.25 69.7917 31.25C69.7917 30.7292 69.7917 30.7292 69.7917 30.2083C68.693 30.2083 67.6203 31.0657 66.1458 31.25C66.1458 30.9896 66.1458 30.9896 66.1458 30.7292C65.8854 30.7292 65.8854 30.7292 65.625 30.7292C65.625 29.9479 65.625 29.9479 65.625 29.1667C65.3646 29.1667 65.3646 29.1667 65.1042 29.1667C65.1042 27.0833 65.1042 27.0833 65.1042 25C63.8021 25 63.8021 25 62.5 25C62.5 24.4792 62.5 24.4792 62.5 23.9583C61.9792 23.9583 61.9792 23.9583 61.4583 23.9583C61.4583 23.6979 61.4583 23.6979 61.4583 23.4375C60.9375 23.4375 60.9375 23.4375 60.4167 23.4375C60.4167 22.9167 60.4167 22.9167 60.4167 22.3958C59.8958 22.3958 59.8958 22.3958 59.375 22.3958C59.375 22.1354 59.375 22.1354 59.375 21.875C58.8542 21.875 58.8542 21.875 58.3333 21.875C58.3333 21.3542 58.3333 21.3542 58.3333 20.8333C53.264 20.8333 56.176 21.3542 54.1667 21.3542C54.1667 19.0104 54.1667 19.0104 54.1667 16.6667C52.2135 16.6667 52.2135 16.6667 50.2604 16.6667C50.1736 18.9236 50.1609 21.1846 50 23.4375C49.9609 23.9851 49.6123 24.4674 49.4792 25C49.2188 25 49.2188 25 48.9583 25C48.9583 23.6979 48.9583 23.6979 48.9583 22.3958C48.5677 22.3958 48.5677 22.3958 48.1771 22.3958C47.9236 23.9168 47.3958 23.8205 47.3958 25C47.1354 25 47.1354 25 46.875 25C46.875 24.4792 46.875 24.4792 46.875 23.9583C46.6146 23.9583 46.6146 23.9583 46.3542 23.9583C46.3542 23.1771 46.3542 23.1771 46.3542 22.3958C44.821 23.1624 46.0269 22.6414 42.4479 22.9167C42.3177 23.9583 42.3177 23.9583 42.1875 25C41.9271 25 41.9271 25 41.6667 25C41.6667 22.9167 41.6667 22.9167 41.6667 20.8333C39.7135 20.8333 39.7135 20.8333 37.7604 20.8333C37.6302 25 37.6302 25 37.5 29.1667C34.4413 29.1667 35.0624 28.3126 34.375 29.6875C35.9375 29.6875 35.9375 29.6875 37.5 29.6875C37.5 31.5104 37.5 31.5104 37.5 33.3333C36.1979 33.3333 36.1979 33.3333 34.8958 33.3333C34.8958 33.0729 34.8958 33.0729 34.8958 32.8125C34.1146 32.8125 34.1146 32.8125 33.3333 32.8125C33.3333 31.2959 33.7608 31.4367 34.375 30.2083C33.8542 30.2083 33.8542 30.2083 33.3333 30.2083C33.3333 29.6875 33.3333 29.6875 33.3333 29.1667C33.5938 29.1667 33.5938 29.1667 33.8542 29.1667C33.8542 27.0833 33.8542 27.0833 33.8542 25C33.4635 25 33.4635 25 33.0729 25C32.8092 26.0547 32.6159 26.5944 31.5104 26.0417C31.3802 26.5625 31.3802 26.5625 31.25 27.0833C30.599 27.0833 30.599 27.0833 29.9479 27.0833C29.8177 28.125 29.8177 28.125 29.6875 29.1667C29.4271 29.1667 29.4271 29.1667 29.1667 29.1667C29.1667 37.5 29.1667 37.5 29.1667 45.8333C25 45.8333 25 45.8333 20.8333 45.8333C20.8333 35.4167 20.8333 35.4167 20.8333 25C18.8802 25 18.8802 25 16.9271 25C16.7969 27.0833 16.7969 27.0833 16.6667 29.1667C14.5833 29.1667 14.5833 29.1667 12.5 29.1667C12.5 27.0833 12.5 27.0833 12.5 25C10.5469 25 10.5469 25 8.59375 25C8.46354 29.1667 8.46354 29.1667 8.33333 33.3333C4.16667 33.3333 4.16667 33.3333 0 33.3333C0 29.1667 0 29.1667 0 25C2.08333 25 2.08333 25 4.16667 25C4.16667 23.0469 4.16667 23.0469 4.16667 21.0938C6.25 20.9635 6.25 20.9635 8.33333 20.8333C8.33333 18.8802 8.33333 18.8802 8.33333 16.9271C10.4167 16.7969 10.4167 16.7969 12.5 16.6667C12.5 12.6302 12.5 12.6302 12.5 8.59375C14.5833 8.46354 14.5833 8.46354 16.6667 8.33333C16.6667 6.38021 16.6667 6.38021 16.6667 4.42708C18.75 4.29688 18.75 4.29688 20.8333 4.16667C20.8333 8.33333 20.8333 8.33333 20.8333 12.5C25 12.5 25 12.5 29.1667 12.5C29.1667 7.43065 29.6875 10.3427 29.6875 8.33333C33.5938 8.33333 33.5938 8.33333 37.5 8.33333C37.5 10.4167 37.5 10.4167 37.5 12.5C41.6667 12.5 41.6667 12.5 45.8333 12.5C45.8333 8.08542 45.5854 8.33333 50 8.33333C50 6.25 50 6.25 50 4.16667C46.9618 4.16667 43.9189 3.99814 40.8854 4.16667C40.5729 4.18403 40.4171 4.6875 40.1042 4.6875C40.1042 4.42708 40.1042 4.42708 40.1042 4.16667C39.7135 4.16667 39.7135 4.16667 39.3229 4.16667C39.1927 6.25 39.1927 6.25 39.0625 8.33333C38.5417 8.33333 38.5417 8.33333 38.0208 8.33333C38.0208 6.25 38.0208 6.25 38.0208 4.16667C37.7604 4.16667 37.7604 4.16667 37.5 4.16667C37.5 2.08333 37.5 2.08333 37.5 0C56.25 0 56.25 0 75 0C75 0.260417 75 0.260417 75 0.520833C77.0833 0.520833 77.0833 0.520833 79.1667 0.520833C79.1667 0.260417 79.1667 0.260417 79.1667 0C87.5 0 87.5 0 95.8333 0C95.8333 0.260417 95.8333 0.260417 95.8333 0.520833C97.9167 0.520833 97.9167 0.520833 100 0.520833C100 1.82292 100 1.82292 100 3.125C98.0469 3.125 98.0469 3.125 96.0938 3.125C95.9635 7.8125 95.9635 7.8125 95.8333 12.5C93.8802 12.5 93.8802 12.5 91.9271 12.5C91.7969 16.4062 91.7969 16.4062 91.6667 20.3125C91.9271 20.3125 91.9271 20.3125 92.1875 20.3125C92.1875 20.5729 92.1875 20.5729 92.1875 20.8333C96.0938 20.8333 96.0938 20.8333 100 20.8333C100 21.6146 100 21.6146 100 22.3958C96.0421 22.3958 98.7335 22.2478 96.875 23.1771C97.3958 23.3073 97.3958 23.3073 97.9167 23.4375C97.9167 23.6979 97.9167 23.6979 97.9167 23.9583C98.9583 23.9583 98.9583 23.9583 100 23.9583C100 34.1146 100 34.1146 100 44.2708C96.8008 44.2708 95.0205 45.8715 91.6667 45.3125C91.6667 43.8802 91.6667 43.8802 91.6667 42.4479C93.75 42.3177 93.75 42.3177 95.8333 42.1875C95.8333 41.9271 95.8333 41.9271 95.8333 41.6667C93.75 41.6667 93.75 41.6667 91.6667 41.6667C91.6667 37.5 91.6667 37.5 91.6667 33.3333C91.4062 33.3333 91.4062 33.3333 91.1458 33.3333C91.1458 33.0729 91.1458 33.0729 91.1458 32.8125C90.8854 32.8125 90.8854 32.8125 90.625 32.8125C90.625 32.2917 90.625 32.2917 90.625 31.7708C90.3646 31.7708 90.3646 31.7708 90.1042 31.7708C90.1042 31.5104 90.1042 31.5104 90.1042 31.25C89.8438 31.25 89.8438 31.25 89.5833 31.25C89.5833 30.7292 89.5833 30.7292 89.5833 30.2083C89.3229 30.2083 89.3229 30.2083 89.0625 30.2083C89.0625 29.6875 89.0625 29.6875 89.0625 29.1667C88.151 29.1667 88.151 29.1667 87.2396 29.1667C86.9861 30.6876 86.4583 30.5914 86.4583 31.7708C86.1979 31.7708 86.1979 31.7708 85.9375 31.7708C85.9375 31.25 85.9375 31.25 85.9375 30.7292C85.6771 30.7292 85.6771 30.7292 85.4167 30.7292C85.4167 29.9479 85.4167 29.9479 85.4167 29.1667C85.026 29.1667 85.026 29.1667 84.6354 29.1667C84.5052 30.2083 84.5052 30.2083 84.375 31.25C84.1146 31.25 84.1146 31.25 83.8542 31.25C83.8542 30.2083 83.8542 30.2083 83.8542 29.1667C81.5104 29.1667 81.5104 29.1667 79.1667 29.1667C79.1667 28.6458 79.1667 28.6458 79.1667 28.125C79.6875 28.125 79.6875 28.125 80.2083 28.125C80.2083 27.6042 80.2083 27.6042 80.2083 27.0833C79.8177 27.0833 79.8177 27.0833 79.4271 27.0833C79.2969 27.6042 79.2969 27.6042 79.1667 28.125C78.9062 28.125 78.9062 28.125 78.6458 28.125C78.6458 27.8646 78.6458 27.8646 78.6458 27.6042C78.125 27.6042 78.125 27.6042 77.6042 27.6042C77.6042 27.3438 77.6042 27.3438 77.6042 27.0833C76.854 27.8335 76.0417 28.1295 76.0417 29.1667C75.7812 29.1667 75.7812 29.1667 75.5208 29.1667C75.5208 27.0997 76.5625 26.7701 76.5625 25C75.7812 25 75.7812 25 75 25C75 24.4792 75 24.4792 75 23.9583C73.4287 23.6441 73.8379 24.1178 73.4375 22.9167C72.6837 23.2935 72.9167 22.983 72.9167 23.9583C72.0052 23.9583 72.0052 23.9583 71.0938 23.9583C70.9635 28.3854 70.9635 28.3854 70.8333 32.8125Z" fill="#4f9156" fill-rule="nonzero" opacity="1" stroke="#4f9156" stroke-linecap="round" stroke-linejoin="round" stroke-width="1"/>
<path d="M92.1875 58.3333C92.1875 54.4144 92.7083 56.4837 92.7083 54.4271C93.2292 54.2969 93.2292 54.2969 93.75 54.1667C93.75 56.25 93.75 56.25 93.75 58.3333C94.2708 58.3333 94.2708 58.3333 94.7917 58.3333C94.7917 60.4167 94.7917 60.4167 94.7917 62.5C93.3594 62.5 93.3594 62.5 91.9271 62.5C91.7969 64.5833 91.7969 64.5833 91.6667 66.6667C87.6302 66.6667 87.6302 66.6667 83.5938 66.6667C83.4635 70.8333 83.4635 70.8333 83.3333 75C79.2969 75 79.2969 75 75.2604 75C75.1302 77.0833 75.1302 77.0833 75 79.1667C73.6979 79.1667 73.6979 79.1667 72.3958 79.1667C72.3958 78.6458 72.3958 78.6458 72.3958 78.125C72.1354 78.125 72.1354 78.125 71.875 78.125C71.875 77.8646 71.875 77.8646 71.875 77.6042C71.3542 77.6042 71.3542 77.6042 70.8333 77.6042C70.8333 77.3438 70.8333 77.3438 70.8333 77.0833C68.8163 77.0833 69.2822 76.5398 68.75 77.6042C69.5312 77.6042 69.5312 77.6042 70.3125 77.6042C70.3125 77.8646 70.3125 77.8646 70.3125 78.125C70.5729 78.125 70.5729 78.125 70.8333 78.125C70.8333 78.6458 70.8333 78.6458 70.8333 79.1667C58.3333 79.1667 58.3333 79.1667 45.8333 79.1667C45.8333 77.0833 45.8333 77.0833 45.8333 75C41.6667 75 41.6667 75 37.5 75C37.5 72.9167 37.5 72.9167 37.5 70.8333C35.4167 70.8333 35.4167 70.8333 33.3333 70.8333C33.3333 64.5833 33.3333 64.5833 33.3333 58.3333C31.25 58.3333 31.25 58.3333 29.1667 58.3333C29.1667 54.9479 29.1667 54.9479 29.1667 51.5625C29.6875 51.5625 29.6875 51.5625 30.2083 51.5625C30.2083 52.8646 30.2083 52.8646 30.2083 54.1667C30.7292 54.1667 30.7292 54.1667 31.25 54.1667C31.25 52.8646 31.25 52.8646 31.25 51.5625C30.7292 51.5625 30.7292 51.5625 30.2083 51.5625C30.2083 50.7813 30.2083 50.7813 30.2083 50C29.6875 50 29.6875 50 29.1667 50C29.1667 39.5833 29.1667 39.5833 29.1667 29.1667C31.25 29.1667 31.25 29.1667 33.3333 29.1667C33.3333 29.6875 33.3333 29.6875 33.3333 30.2083C33.8542 30.2083 33.8542 30.2083 34.375 30.2083C34.375 31.5621 33.3333 31.1151 33.3333 32.8125C34.1146 32.8125 34.1146 32.8125 34.8958 32.8125C34.8958 33.0729 34.8958 33.0729 34.8958 33.3333C36.1979 33.3333 36.1979 33.3333 37.5 33.3333C37.5 28.6458 37.5 28.6458 37.5 23.9583C39.0351 23.9583 38.4128 22.9167 40.625 22.9167C40.625 23.1771 40.625 23.1771 40.625 23.4375C40.8854 23.4375 40.8854 23.4375 41.1458 23.4375C41.1458 23.6979 41.1458 23.6979 41.1458 23.9583C41.4062 23.9583 41.4062 23.9583 41.6667 23.9583C41.6667 24.4792 41.6667 24.4792 41.6667 25C43.75 25 43.75 25 45.8333 25C45.8333 29.1667 45.8333 29.1667 45.8333 33.3333C48.1771 33.3333 48.1771 33.3333 50.5208 33.3333C50.5208 29.233 49.3562 30.0094 51.0417 29.1667C51.0417 31.25 51.0417 31.25 51.0417 33.3333C51.5625 33.3333 51.5625 33.3333 52.0833 33.3333C52.0833 32.6823 52.0833 32.6823 52.0833 32.0312C55.9974 31.0527 56.7708 29.9147 56.7708 25.5208C57.0313 25.5208 57.0313 25.5208 57.2917 25.5208C57.2917 25.7813 57.2917 25.7813 57.2917 26.0417C57.8125 26.0417 57.8125 26.0417 58.3333 26.0417C58.3333 29.6875 58.3333 29.6875 58.3333 33.3333C60.4167 33.3333 60.4167 33.3333 62.5 33.3333C62.5 41.6667 62.5 41.6667 62.5 50C70.8333 50 70.8333 50 79.1667 50C79.1667 47.9167 79.1667 47.9167 79.1667 45.8333C80.4688 45.8333 80.4688 45.8333 81.7708 45.8333C81.7708 44.9219 81.7708 44.9219 81.7708 44.0104C82.2917 43.8802 82.2917 43.8802 82.8125 43.75C82.8125 46.5297 82.2917 45.1445 82.2917 46.875C82.5521 46.875 82.5521 46.875 82.8125 46.875C82.8125 47.1354 82.8125 47.1354 82.8125 47.3958C83.0729 47.3958 83.0729 47.3958 83.3333 47.3958C83.3333 48.4375 83.3333 48.4375 83.3333 49.4792C84.1146 49.4792 84.1146 49.4792 84.8958 49.4792C84.8958 49.7396 84.8958 49.7396 84.8958 50C86.1979 50 86.1979 50 87.5 50C87.5 54.1667 87.5 54.1667 87.5 58.3333C89.0625 58.3333 90.625 58.3333 92.1875 58.3333Z" fill="#f6f3e9" fill-rule="nonzero" opacity="1" stroke="#f6f3e9" stroke-linecap="round" stroke-linejoin="round" stroke-width="1"/>
<path d="M50 82.2917C50 82.8125 50 82.8125 50 83.3333C43.8802 83.3333 43.8802 83.3333 37.7604 83.3333C37.6302 85.4167 37.6302 85.4167 37.5 87.5C35.5469 87.5 35.5469 87.5 33.5938 87.5C33.1735 92.5432 29.9488 91.6667 25.2604 91.6667C25.1302 93.75 25.1302 93.75 25 95.8333C23.0469 95.8333 23.0469 95.8333 21.0938 95.8333C20.9635 97.9167 20.9635 97.9167 20.8333 100C10.4167 100 10.4167 100 0 100C0 83.3333 0 83.3333 0 66.6667C4.16667 66.6667 4.16667 66.6667 8.33333 66.6667C8.33333 70.8333 8.33333 70.8333 8.33333 75C6.38021 75 6.38021 75 4.42708 75C4.29688 77.0833 4.29688 77.0833 4.16667 79.1667C8.33333 79.1667 8.33333 79.1667 12.5 79.1667C12.5 79.6875 12.5 79.6875 12.5 80.2083C8.46354 80.2083 8.46354 80.2083 4.42708 80.2083C4.29688 80.9896 4.29688 80.9896 4.16667 81.7708C6.94444 81.7708 9.72731 81.9389 12.5 81.7708C13.8971 81.6862 15.267 81.25 16.6667 81.25C16.6667 80.8594 16.6667 80.8594 16.6667 80.4688C18.75 80.3385 18.75 80.3385 20.8333 80.2083C20.8333 79.8177 20.8333 79.8177 20.8333 79.4271C22.9167 79.2969 22.9167 79.2969 25 79.1667C25 78.776 25 78.776 25 78.3854C26.205 78.0842 25.9724 77.6042 27.0833 77.6042C27.0833 77.2135 27.0833 77.2135 27.0833 76.8229C28.2883 76.5217 28.0557 76.0417 29.1667 76.0417C29.1667 76.3021 29.1667 76.3021 29.1667 76.5625C30.2083 76.5625 30.2083 76.5625 31.25 76.5625C31.25 76.8229 31.25 76.8229 31.25 77.0833C32.2917 77.0833 32.2917 77.0833 33.3333 77.0833C33.3333 78.125 33.3333 78.125 33.3333 79.1667C34.1146 79.1667 34.1146 79.1667 34.8958 79.1667C34.8958 79.6875 34.8958 79.6875 34.8958 80.2083C35.1562 80.2083 35.1562 80.2083 35.4167 80.2083C35.4167 80.7292 35.4167 80.7292 35.4167 81.25C35.9375 81.25 35.9375 81.25 36.4583 81.25C36.4583 81.5104 36.4583 81.5104 36.4583 81.7708C38.0208 81.7708 38.0208 81.7708 39.5833 81.7708C39.5833 82.0312 39.5833 82.0312 39.5833 82.2917C44.7917 82.2917 44.7917 82.2917 50 82.2917Z" fill="#3d2a2d" fill-rule="nonzero" opacity="1" stroke="#3d2a2d" stroke-linecap="round" stroke-linejoin="round" stroke-width="1"/>
<path d="M29.1667 46.875C28.5156 46.875 28.5156 46.875 27.8646 46.875C27.3951 50.1613 27.5681 48.0852 27.8646 53.125C28.5156 53.125 28.5156 53.125 29.1667 53.125C29.1667 53.6458 29.1667 53.6458 29.1667 54.1667C18.8802 54.1667 18.8802 54.1667 8.59375 54.1667C8.46354 56.25 8.46354 56.25 8.33333 58.3333C4.16667 58.3333 4.16667 58.3333 0 58.3333C0 45.8333 0 45.8333 0 33.3333C4.16667 33.3333 4.16667 33.3333 8.33333 33.3333C8.33333 29.2969 8.33333 29.2969 8.33333 25.2604C10.4167 25.1302 10.4167 25.1302 12.5 25C12.5 27.0833 12.5 27.0833 12.5 29.1667C14.5833 29.1667 14.5833 29.1667 16.6667 29.1667C16.6667 27.2135 16.6667 27.2135 16.6667 25.2604C18.75 25.1302 18.75 25.1302 20.8333 25C20.8333 35.4167 20.8333 35.4167 20.8333 45.8333C25 45.8333 25 45.8333 29.1667 45.8333C29.1667 46.3542 29.1667 46.3542 29.1667 46.875Z" fill="#3e2c2d" fill-rule="nonzero" opacity="1" stroke="#3e2c2d" stroke-linecap="round" stroke-linejoin="round" stroke-width="1"/>
<path d="M43.75 100C43.75 99.4792 43.75 99.4792 43.75 98.9583C43.4896 98.9583 43.4896 98.9583 43.2292 98.9583C43.2292 98.6979 43.2292 98.6979 43.2292 98.4375C42.9688 98.4375 42.9688 98.4375 42.7083 98.4375C42.7083 98.1771 42.7083 98.1771 42.7083 97.9167C41.6667 97.9167 41.6667 97.9167 40.625 97.9167C40.625 97.6562 40.625 97.6562 40.625 97.3958C39.5833 97.3958 39.5833 97.3958 38.5417 97.3958C38.5417 97.1354 38.5417 97.1354 38.5417 96.875C36.2428 96.875 31.2877 96.7243 30.4688 100C25.651 100 25.651 100 20.8333 100C20.8333 98.0469 20.8333 98.0469 20.8333 96.0938C22.9167 95.9635 22.9167 95.9635 25 95.8333C25 93.8802 25 93.8802 25 91.9271C29.1667 91.7969 29.1667 91.7969 33.3333 91.6667C33.3333 89.7135 33.3333 89.7135 33.3333 87.7604C35.4167 87.6302 35.4167 87.6302 37.5 87.5C37.5 89.5833 37.5 89.5833 37.5 91.6667C41.6667 91.6667 41.6667 91.6667 45.8333 91.6667C45.8333 93.75 45.8333 93.75 45.8333 95.8333C56.25 95.8333 56.25 95.8333 66.6667 95.8333C66.6667 93.8802 66.6667 93.8802 66.6667 91.9271C75 91.7969 75 91.7969 83.3333 91.6667C83.3333 89.5833 83.3333 89.5833 83.3333 87.5C87.5 87.5 87.5 87.5 91.6667 87.5C91.6667 91.6667 91.6667 91.6667 91.6667 95.8333C93.75 95.8333 93.75 95.8333 95.8333 95.8333C95.8333 97.9167 95.8333 97.9167 95.8333 100C91.6667 100 91.6667 100 87.5 100C87.5 99.4792 87.5 99.4792 87.5 98.9583C86.5885 98.9583 86.5885 98.9583 85.6771 98.9583C85.5469 99.4792 85.5469 99.4792 85.4167 100C71.875 100 71.875 100 58.3333 100C58.3333 98.9583 58.3333 98.9583 58.3333 97.9167C57.9427 97.9167 57.9427 97.9167 57.5521 97.9167C57.4219 98.9583 57.4219 98.9583 57.2917 100C50.5208 100 50.5208 100 43.75 100Z" fill="#5e9ce2" fill-rule="nonzero" opacity="1" stroke="#5e9ce2" stroke-linecap="round" stroke-linejoin="round" stroke-width="1"/>
<path d="M0 58.3333C4.16667 58.3333 4.16667 58.3333 8.33333 58.3333C8.33333 56.3802 8.33333 56.3802 8.33333 54.4271C18.75 54.2969 18.75 54.2969 29.1667 54.1667C29.1667 56.25 29.1667 56.25 29.1667 58.3333C31.25 58.3333 31.25 58.3333 33.3333 58.3333C33.3333 62.5 33.3333 62.5 33.3333 66.6667C31.3802 66.6667 31.3802 66.6667 29.4271 66.6667C29.2969 68.75 29.2969 68.75 29.1667 70.8333C25.1302 70.8333 25.1302 70.8333 21.0938 70.8333C20.9635 72.9167 20.9635 72.9167 20.8333 75C16.7969 75 16.7969 75 12.7604 75C12.6302 77.0833 12.6302 77.0833 12.5 79.1667C8.33333 79.1667 8.33333 79.1667 4.16667 79.1667C4.16667 77.2135 4.16667 77.2135 4.16667 75.2604C6.25 75.1302 6.25 75.1302 8.33333 75C8.33333 70.8333 8.33333 70.8333 8.33333 66.6667C4.16667 66.6667 4.16667 66.6667 0 66.6667C0 62.5 0 62.5 0 58.3333Z" fill="#4a8a51" fill-rule="nonzero" opacity="1" stroke="#4a8a51" stroke-linecap="round" stroke-linejoin="round" stroke-width="1"/>
<path d="M12.5 75.2604C16.6667 75.1302 16.6667 75.1302 20.8333 75C20.8333 73.0469 20.8333 73.0469 20.8333 71.0938C25 70.9635 25 70.9635 29.1667 70.8333C29.1667 68.8802 29.1667 68.8802 29.1667 66.9271C31.25 66.7969 31.25 66.7969 33.3333 66.6667C33.3333 68.75 33.3333 68.75 33.3333 70.8333C35.4167 70.8333 35.4167 70.8333 37.5 70.8333C37.5 72.9167 37.5 72.9167 37.5 75C41.6667 75 41.6667 75 45.8333 75C45.8333 77.0833 45.8333 77.0833 45.8333 79.1667C47.9167 79.1667 47.9167 79.1667 50 79.1667C50 80.7292 50 80.7292 50 82.2917C44.7917 82.2917 44.7917 82.2917 39.5833 82.2917C39.5833 82.0312 39.5833 82.0312 39.5833 81.7708C38.0208 81.7708 38.0208 81.7708 36.4583 81.7708C36.4583 81.5104 36.4583 81.5104 36.4583 81.25C35.9375 81.25 35.9375 81.25 35.4167 81.25C35.4167 80.7292 35.4167 80.7292 35.4167 80.2083C35.1562 80.2083 35.1562 80.2083 34.8958 80.2083C34.8958 79.6875 34.8958 79.6875 34.8958 79.1667C34.1146 79.1667 34.1146 79.1667 33.3333 79.1667C33.3333 78.125 33.3333 78.125 33.3333 77.0833C32.2917 77.0833 32.2917 77.0833 31.25 77.0833C31.25 76.8229 31.25 76.8229 31.25 76.5625C30.2083 76.5625 30.2083 76.5625 29.1667 76.5625C29.1667 76.3021 29.1667 76.3021 29.1667 76.0417C27.9374 76.0417 28.573 76.5625 27.3438 76.5625C27.2135 77.0833 27.2135 77.0833 27.0833 77.6042C25.8541 77.6042 26.4897 78.125 25.2604 78.125C25.1302 78.6458 25.1302 78.6458 25 79.1667C23.0469 79.1667 23.0469 79.1667 21.0938 79.1667C20.9635 79.6875 20.9635 79.6875 20.8333 80.2083C18.8802 80.2083 18.8802 80.2083 16.9271 80.2083C16.7969 80.7292 16.7969 80.7292 16.6667 81.25C15.267 81.25 13.8971 81.6862 12.5 81.7708C9.72731 81.9389 6.94444 81.7708 4.16667 81.7708C4.16667 81.1198 4.16667 81.1198 4.16667 80.4688C8.33333 80.3385 8.33333 80.3385 12.5 80.2083C12.5 78.559 12.5 76.9097 12.5 75.2604Z" fill="#4c3537" fill-rule="nonzero" opacity="1" stroke="#4c3537" stroke-linecap="round" stroke-linejoin="round" stroke-width="1"/>
<path d="M91.6667 94.7917C91.6667 91.1458 91.6667 91.1458 91.6667 87.5C87.5 87.5 87.5 87.5 83.3333 87.5C83.3333 85.4167 83.3333 85.4167 83.3333 83.3333C80.7292 83.3333 80.7292 83.3333 78.125 83.3333C78.125 82.4219 78.125 82.4219 78.125 81.5104C79.4271 81.3802 79.4271 81.3802 80.7292 81.25C80.7292 80.7292 80.7292 80.7292 80.7292 80.2083C79.4271 80.2083 79.4271 80.2083 78.125 80.2083C78.125 79.9479 78.125 79.9479 78.125 79.6875C77.8646 79.6875 77.8646 79.6875 77.6042 79.6875C77.6828 79.5302 82.8385 78.125 83.8542 78.125C83.8542 77.7344 83.8542 77.7344 83.8542 77.3438C84.375 77.2135 84.375 77.2135 84.8958 77.0833C84.8958 77.3438 84.8958 77.3438 84.8958 77.6042C85.1562 77.6042 85.1562 77.6042 85.4167 77.6042C85.4167 77.8646 85.4167 77.8646 85.4167 78.125C85.6771 78.125 85.6771 78.125 85.9375 78.125C85.9375 75.6755 86.4583 77.4217 86.4583 73.9583C86.7188 73.9583 86.7188 73.9583 86.9792 73.9583C86.9792 76.5625 86.9792 76.5625 86.9792 79.1667C91.4062 79.1667 91.4062 79.1667 95.8333 79.1667C95.8333 81.25 95.8333 81.25 95.8333 83.3333C97.9167 83.3333 97.9167 83.3333 100 83.3333C100 91.6667 100 91.6667 100 100C97.9167 100 97.9167 100 95.8333 100C95.8333 97.9167 95.8333 97.9167 95.8333 95.8333C94.2708 95.8333 94.2708 95.8333 92.7083 95.8333C92.7083 95.3125 92.7083 95.3125 92.7083 94.7917C92.1875 94.7917 92.1875 94.7917 91.6667 94.7917Z" fill="#463234" fill-rule="nonzero" opacity="1" stroke="#463234" stroke-linecap="round" stroke-linejoin="round" stroke-width="1"/>
<path d="M0 25C0 12.6302 0 12.6302 0 0.260417C10.4167 0.130208 10.4167 0.130208 20.8333 0C20.8333 2.08333 20.8333 2.08333 20.8333 4.16667C18.8802 4.16667 18.8802 4.16667 16.9271 4.16667C16.7969 6.25 16.7969 6.25 16.6667 8.33333C14.7135 8.33333 14.7135 8.33333 12.7604 8.33333C12.6302 12.5 12.6302 12.5 12.5 16.6667C10.5469 16.6667 10.5469 16.6667 8.59375 16.6667C8.46354 18.75 8.46354 18.75 8.33333 20.8333C6.38021 20.8333 6.38021 20.8333 4.42708 20.8333C4.29688 22.9167 4.29688 22.9167 4.16667 25C2.08333 25 2.08333 25 0 25Z" fill="#3d2b2c" fill-rule="nonzero" opacity="1" stroke="#3d2b2c" stroke-linecap="round" stroke-linejoin="round" stroke-width="1"/>
<path d="M88.5417 45.8333C88.5417 41.5254 86.6874 38.7079 85.4167 34.8958C85.1562 34.8958 85.1562 34.8958 84.8958 34.8958C84.8958 34.6354 84.8958 34.6354 84.8958 34.375C84.1146 34.375 84.1146 34.375 83.3333 34.375C83.3333 31.7708 83.3333 31.7708 83.3333 29.1667C83.5938 29.1667 83.5938 29.1667 83.8542 29.1667C83.8542 30.2083 83.8542 30.2083 83.8542 31.25C84.1146 31.25 84.1146 31.25 84.375 31.25C84.375 30.3385 84.375 30.3385 84.375 29.4271C84.8958 29.2969 84.8958 29.2969 85.4167 29.1667C85.4167 29.9479 85.4167 29.9479 85.4167 30.7292C85.6771 30.7292 85.6771 30.7292 85.9375 30.7292C85.9375 31.25 85.9375 31.25 85.9375 31.7708C86.1979 31.7708 86.1979 31.7708 86.4583 31.7708C86.4583 30.3527 86.9792 31.2265 86.9792 29.4271C88.0208 29.2969 88.0208 29.2969 89.0625 29.1667C89.0625 29.6875 89.0625 29.6875 89.0625 30.2083C89.3229 30.2083 89.3229 30.2083 89.5833 30.2083C89.5833 30.7292 89.5833 30.7292 89.5833 31.25C89.8438 31.25 89.8438 31.25 90.1042 31.25C90.1042 31.5104 90.1042 31.5104 90.1042 31.7708C90.3646 31.7708 90.3646 31.7708 90.625 31.7708C90.625 32.2917 90.625 32.2917 90.625 32.8125C90.8854 32.8125 90.8854 32.8125 91.1458 32.8125C91.1458 33.0729 91.1458 33.0729 91.1458 33.3333C91.4062 33.3333 91.4062 33.3333 91.6667 33.3333C91.6667 37.5 91.6667 37.5 91.6667 41.6667C93.75 41.6667 93.75 41.6667 95.8333 41.6667C95.8333 41.9271 95.8333 41.9271 95.8333 42.1875C93.8802 42.1875 93.8802 42.1875 91.9271 42.1875C91.7969 43.75 91.7969 43.75 91.6667 45.3125C95.0189 45.3125 96.7924 44.2708 100 44.2708C100 46.0516 101.017 49.2188 98.4375 49.2188C98.4375 48.8281 98.4375 48.8281 98.4375 48.4375C96.8755 48.4375 97.1623 49.2188 95.8333 49.2188C95.8333 47.526 95.8333 47.526 95.8333 45.8333C92.1875 45.8333 92.1875 45.8333 88.5417 45.8333Z" fill="#559e60" fill-rule="nonzero" opacity="1" stroke="#559e60" stroke-linecap="round" stroke-linejoin="round" stroke-width="1"/>
<path d="M62.5 95.3125C58.3333 95.3125 58.3333 95.3125 54.1667 95.3125C54.1667 91.4062 54.1667 91.4062 54.1667 87.5C52.0833 87.5 52.0833 87.5 50 87.5C50 83.3333 50 83.3333 50 79.1667C60.4167 79.1667 60.4167 79.1667 70.8333 79.1667C70.8333 82.8125 70.8333 82.8125 70.8333 86.4583C70.1823 86.4583 70.1823 86.4583 69.5312 86.4583C69.401 86.9792 69.401 86.9792 69.2708 87.5C67.9688 87.5 67.9688 87.5 66.6667 87.5C66.6667 87.2396 66.6667 87.2396 66.6667 86.9792C64.7135 86.9792 64.7135 86.9792 62.7604 86.9792C62.6302 91.1458 62.6302 91.1458 62.5 95.3125Z" fill="#eaacb2" fill-rule="nonzero" opacity="1" stroke="#eaacb2" stroke-linecap="round" stroke-linejoin="round" stroke-width="1"/>
<path d="M87.5 79.1667C87.5 75.434 87.3305 71.6975 87.5 67.9688C87.5731 66.3606 91.4087 66.6667 91.6667 66.6667C91.6667 64.7135 91.6667 64.7135 91.6667 62.7604C93.75 62.6302 93.75 62.6302 95.8333 62.5C95.8333 63.4657 95.3125 62.9135 95.3125 64.0625C97.5785 64.0625 93.5702 63.5417 100 63.5417C100 73.4375 100 73.4375 100 83.3333C97.9167 83.3333 97.9167 83.3333 95.8333 83.3333C95.8333 81.25 95.8333 81.25 95.8333 79.1667C91.6667 79.1667 91.6667 79.1667 87.5 79.1667Z" fill="#4f9558" fill-rule="nonzero" opacity="1" stroke="#4f9558" stroke-linecap="round" stroke-linejoin="round" stroke-width="1"/>
<path d="M58.3333 25C56.25 25 56.25 25 54.1667 25C54.1667 23.1771 54.1667 23.1771 54.1667 21.3542C56.176 21.3542 53.264 20.8333 58.3333 20.8333C58.3333 21.3542 58.3333 21.3542 58.3333 21.875C58.8542 21.875 58.8542 21.875 59.375 21.875C59.375 22.1354 59.375 22.1354 59.375 22.3958C59.8958 22.3958 59.8958 22.3958 60.4167 22.3958C60.4167 22.9167 60.4167 22.9167 60.4167 23.4375C60.9375 23.4375 60.9375 23.4375 61.4583 23.4375C61.4583 23.6979 61.4583 23.6979 61.4583 23.9583C61.9792 23.9583 61.9792 23.9583 62.5 23.9583C62.5 24.4792 62.5 24.4792 62.5 25C63.8021 25 63.8021 25 65.1042 25C65.1042 27.0833 65.1042 27.0833 65.1042 29.1667C65.3646 29.1667 65.3646 29.1667 65.625 29.1667C65.625 29.9479 65.625 29.9479 65.625 30.7292C65.8854 30.7292 65.8854 30.7292 66.1458 30.7292C66.1458 30.9896 66.1458 30.9896 66.1458 31.25C68.5293 31.25 68.187 30.2083 69.7917 30.2083C69.7917 30.7292 69.7917 30.7292 69.7917 31.25C70.0521 31.25 70.0521 31.25 70.3125 31.25C70.3125 32.0312 70.3125 32.0312 70.3125 32.8125C70.5729 32.8125 70.5729 32.8125 70.8333 32.8125C70.8333 33.0729 70.8333 33.0729 70.8333 33.3333C68.8802 33.3333 68.8802 33.3333 66.9271 33.3333C66.7969 34.8958 66.7969 34.8958 66.6667 36.4583C65.8854 36.4583 65.8854 36.4583 65.1042 36.4583C65.1042 35.6771 65.1042 35.6771 65.1042 34.8958C63.9847 34.8958 64.4294 35.2332 63.5417 35.6771C64.2178 36.0151 64.0625 35.7434 64.0625 36.4583C63.2813 36.4583 63.2813 36.4583 62.5 36.4583C62.5 34.8958 62.5 34.8958 62.5 33.3333C61.1979 33.3333 61.1979 33.3333 59.8958 33.3333C59.8958 32.2917 59.8958 32.2917 59.8958 31.25C59.1146 31.25 59.1146 31.25 58.3333 31.25C58.3333 29.1667 58.3333 27.0833 58.3333 25Z" fill="#559c5f" fill-rule="nonzero" opacity="1" stroke="#559c5f" stroke-linecap="round" stroke-linejoin="round" stroke-width="1"/>
<path d="M79.4271 16.6667C79.2969 18.75 79.2969 18.75 79.1667 20.8333C77.0833 20.8333 77.0833 20.8333 75 20.8333C75 18.75 75 18.75 75 16.6667C72.9167 16.6667 72.9167 16.6667 70.8333 16.6667C70.8333 14.7135 70.8333 14.7135 70.8333 12.7604C72.9167 12.6302 72.9167 12.6302 75 12.5C75 8.46354 75 8.46354 75 4.42708C77.0833 4.29688 77.0833 4.29688 79.1667 4.16667C79.1667 6.25 79.1667 6.25 79.1667 8.33333C81.25 8.33333 81.25 8.33333 83.3333 8.33333C83.3333 12.5 83.3333 12.5 83.3333 16.6667C82.0312 16.6667 80.7292 16.6667 79.4271 16.6667Z" fill="#d78958" fill-rule="nonzero" opacity="1" stroke="#d78958" stroke-linecap="round" stroke-linejoin="round" stroke-width="1"/>
<path d="M37.5 83.5938C43.75 83.4635 43.75 83.4635 50 83.3333C50 85.4167 50 85.4167 50 87.5C52.0833 87.5 52.0833 87.5 54.1667 87.5C54.1667 89.4097 54.3321 91.3266 54.1667 93.2292C54.0976 94.0231 51.4834 93.0246 51.0417 94.7917C50.2604 94.7917 50.2604 94.7917 49.4792 94.7917C49.4792 94.5312 49.4792 94.5312 49.4792 94.2708C48.9583 94.2708 48.9583 94.2708 48.4375 94.2708C48.4375 94.0104 48.4375 94.0104 48.4375 93.75C48.1771 93.75 48.1771 93.75 47.9167 93.75C47.9167 93.4896 47.9167 93.4896 47.9167 93.2292C47.6562 93.2292 47.6562 93.2292 47.3958 93.2292C47.3958 92.9688 47.3958 92.9688 47.3958 92.7083C46.2469 92.7083 46.799 93.2292 45.8333 93.2292C45.8333 92.4479 45.8333 92.4479 45.8333 91.6667C41.6667 91.6667 41.6667 91.6667 37.5 91.6667C37.5 88.9757 37.5 86.2847 37.5 83.5938Z" fill="#555685" fill-rule="nonzero" opacity="1" stroke="#555685" stroke-linecap="round" stroke-linejoin="round" stroke-width="1"/>
<path d="M79.1667 75C79.1667 75.5208 79.1667 75.5208 79.1667 76.0417C81.985 76.0417 80.2554 75 83.8542 75C83.8542 73.0242 85.5608 74.1908 86.1979 72.9167C86.6669 79.4828 85.9375 74.4258 85.9375 78.125C85.6771 78.125 85.6771 78.125 85.4167 78.125C85.4167 77.8646 85.4167 77.8646 85.4167 77.6042C85.1562 77.6042 85.1562 77.6042 84.8958 77.6042C84.8958 77.3438 84.8958 77.3438 84.8958 77.0833C84.5052 77.0833 84.5052 77.0833 84.1146 77.0833C83.9844 77.6042 83.9844 77.6042 83.8542 78.125C82.7481 78.125 77.8402 79.2155 77.6042 79.6875C77.8646 79.6875 77.8646 79.6875 78.125 79.6875C78.125 79.9479 78.125 79.9479 78.125 80.2083C79.4271 80.2083 79.4271 80.2083 80.7292 80.2083C80.7292 80.7292 80.7292 80.7292 80.7292 81.25C79.5573 81.25 79.5573 81.25 78.3854 81.25C78.2552 82.2917 78.2552 82.2917 78.125 83.3333C74.4792 83.3333 74.4792 83.3333 70.8333 83.3333C70.8333 81.25 70.8333 81.25 70.8333 79.1667C72.9167 79.1667 72.9167 79.1667 75 79.1667C75 77.6042 75 77.6042 75 76.0417C76.2853 76.0417 76.5625 76.2242 76.5625 75C77.8646 75 77.8646 75 79.1667 75Z" fill="#65474b" fill-rule="nonzero" opacity="1" stroke="#65474b" stroke-linecap="round" stroke-linejoin="round" stroke-width="1"/>
<path d="M29.1667 7.8125C29.6875 7.8125 29.6875 7.8125 30.2083 7.8125C30.2083 8.07292 30.2083 8.07292 30.2083 8.33333C27.7344 8.33333 27.7344 8.33333 25.2604 8.33333C25.1302 10.4167 25.1302 10.4167 25 12.5C22.9167 12.5 22.9167 12.5 20.8333 12.5C20.8333 8.33333 20.8333 8.33333 20.8333 4.16667C22.9167 4.16667 22.9167 4.16667 25 4.16667C25 2.08333 25 2.08333 25 0C29.1667 0 29.1667 0 33.3333 0C33.3333 2.08333 33.3333 2.08333 33.3333 4.16667C31.3802 4.16667 31.3802 4.16667 29.4271 4.16667C29.1021 6.76681 29.1667 5.55015 29.1667 7.8125Z" fill="#fdfbf8" fill-rule="nonzero" opacity="1" stroke="#fdfbf8" stroke-linecap="round" stroke-linejoin="round" stroke-width="1"/>
<path d="M91.6667 58.3333C91.6667 54.1667 91.6667 54.1667 91.6667 50C89.5833 50 89.5833 50 87.5 50C87.5 48.0469 87.5 48.0469 87.5 46.0938C91.6667 45.9635 91.6667 45.9635 95.8333 45.8333C95.8333 54.1667 95.8333 54.1667 95.8333 62.5C95.3125 62.5 95.3125 62.5 94.7917 62.5C94.7917 60.4167 94.7917 60.4167 94.7917 58.3333C94.2708 58.3333 94.2708 58.3333 93.75 58.3333C93.75 56.25 93.75 56.25 93.75 54.1667C93.3594 54.1667 93.3594 54.1667 92.9688 54.1667C92.2906 56.8793 92.1875 53.6375 92.1875 58.3333C91.9271 58.3333 91.9271 58.3333 91.6667 58.3333Z" fill="#efe4d8" fill-rule="nonzero" opacity="1" stroke="#efe4d8" stroke-linecap="round" stroke-linejoin="round" stroke-width="1"/>
<path d="M36.9792 41.6667C36.9792 41.4062 36.9792 41.4062 36.9792 41.1458C35.9375 41.1458 35.9375 41.1458 34.8958 41.1458C35.428 40.0815 34.9621 40.625 36.9792 40.625C36.9792 39.5833 36.9792 39.5833 36.9792 38.5417C35.1562 38.5417 35.1562 38.5417 33.3333 38.5417C33.3333 38.0208 33.3333 38.0208 33.3333 37.5C41.6667 37.5 41.6667 37.5 50 37.5C50 41.6667 50 41.6667 50 45.8333C47.9167 45.8333 47.9167 45.8333 45.8333 45.8333C45.8333 43.75 45.8333 43.75 45.8333 41.6667C41.4062 41.6667 41.4062 41.6667 36.9792 41.6667Z" fill="#666999" fill-rule="nonzero" opacity="1" stroke="#666999" stroke-linecap="round" stroke-linejoin="round" stroke-width="1"/>
<path d="M92.7083 12.5C94.2708 12.5 94.2708 12.5 95.8333 12.5C95.8333 8.85417 95.8333 8.85417 95.8333 5.20833C96.3542 5.20833 96.3542 5.20833 96.875 5.20833C96.875 4.6875 96.875 4.6875 96.875 4.16667C98.4375 4.16667 98.4375 4.16667 100 4.16667C100 12.5 100 12.5 100 20.8333C96.0938 20.8333 96.0938 20.8333 92.1875 20.8333C92.1875 20.5729 92.1875 20.5729 92.1875 20.3125C91.9271 20.3125 91.9271 20.3125 91.6667 20.3125C91.6667 16.9271 91.6667 16.9271 91.6667 13.5417C92.1875 13.5417 92.1875 13.5417 92.7083 13.5417C92.7083 13.0208 92.7083 13.0208 92.7083 12.5Z" fill="#df8558" fill-rule="nonzero" opacity="1" stroke="#df8558" stroke-linecap="round" stroke-linejoin="round" stroke-width="1"/>
<path d="M70.8333 45.8333C70.8333 43.75 70.8333 43.75 70.8333 41.6667C66.6667 41.6667 66.6667 41.6667 62.5 41.6667C62.5 39.5833 62.5 39.5833 62.5 37.5C70.8333 37.5 70.8333 37.5 79.1667 37.5C79.1667 41.6667 79.1667 41.6667 79.1667 45.8333C76.3889 45.8333 73.6111 45.8333 70.8333 45.8333Z" fill="#636595" fill-rule="nonzero" opacity="1" stroke="#636595" stroke-linecap="round" stroke-linejoin="round" stroke-width="1"/>
<path d="M66.6667 58.3333C66.6667 62.5 66.6667 62.5 66.6667 66.6667C58.3333 66.6667 58.3333 66.6667 50 66.6667C50 62.5 50 62.5 50 58.3333C55.5556 58.3333 61.1111 58.3333 66.6667 58.3333Z" fill="#edb4b8" fill-rule="nonzero" opacity="1" stroke="#edb4b8" stroke-linecap="round" stroke-linejoin="round" stroke-width="1"/>
<path d="M70.8333 91.6667C70.8333 91.4062 70.8333 91.4062 70.8333 91.1458C69.5312 91.1458 69.5312 91.1458 68.2292 91.1458C68.839 89.9262 68.2955 90.625 70.8333 90.625C70.8333 90.1042 70.8333 90.1042 70.8333 89.5833C70.0521 89.5833 70.0521 89.5833 69.2708 89.5833C69.7254 88.6743 69.3371 89.0625 70.8333 89.0625C70.8333 88.2812 70.8333 88.2812 70.8333 87.5C71.3542 87.5 71.3542 87.5 71.875 87.5C71.875 87.2396 71.875 87.2396 71.875 86.9792C71.6146 86.9792 71.6146 86.9792 71.3542 86.9792C71.3542 86.7188 71.3542 86.7188 71.3542 86.4583C71.0938 86.4583 71.0938 86.4583 70.8333 86.4583C70.8333 84.8958 70.8333 84.8958 70.8333 83.3333C75 83.3333 75 83.3333 79.1667 83.3333C79.1667 85.4167 79.1667 85.4167 79.1667 87.5C79.4271 87.5 79.4271 87.5 79.6875 87.5C79.6875 88.2149 79.8428 87.9432 79.1667 88.2812C79.8428 88.6193 79.6875 88.3476 79.6875 89.0625C79.9479 89.0625 79.9479 89.0625 80.2083 89.0625C80.2083 89.3229 80.2083 89.3229 80.2083 89.5833C81.7708 89.5833 81.7708 89.5833 83.3333 89.5833C83.3333 90.625 83.3333 90.625 83.3333 91.6667C77.0833 91.6667 77.0833 91.6667 70.8333 91.6667Z" fill="#5d5f91" fill-rule="nonzero" opacity="1" stroke="#5d5f91" stroke-linecap="round" stroke-linejoin="round" stroke-width="1"/>
<path d="M50 33.3333C50 25.1302 50 25.1302 50 16.9271C52.0833 16.7969 52.0833 16.7969 54.1667 16.6667C54.1667 20.8333 54.1667 20.8333 54.1667 25C55.4688 25 55.4688 25 56.7708 25C56.7708 28.7055 56.7196 31.7708 52.3438 31.7708C52.2135 32.5521 52.2135 32.5521 52.0833 33.3333C51.5625 33.3333 51.5625 33.3333 51.0417 33.3333C51.0417 31.25 51.0417 31.25 51.0417 29.1667C49.3562 30.0094 50.5208 29.233 50.5208 33.3333C50.2604 33.3333 50.2604 33.3333 50 33.3333Z" fill="#e8e3d5" fill-rule="nonzero" opacity="1" stroke="#e8e3d5" stroke-linecap="round" stroke-linejoin="round" stroke-width="1"/>
<path d="M66.6667 36.4583C66.6667 35.026 66.6667 35.026 66.6667 33.5938C68.75 33.4635 68.75 33.4635 70.8333 33.3333C70.8333 29.1667 70.8333 29.1667 70.8333 25C72.9167 25 72.9167 25 75 25C75 28.6458 75.1694 32.2956 75 35.9375C74.8707 38.7177 69.4483 36.3656 66.6667 36.4583Z" fill="#ecdecf" fill-rule="nonzero" opacity="1" stroke="#ecdecf" stroke-linecap="round" stroke-linejoin="round" stroke-width="1"/>
<path d="M87.5 50C86.1979 50 86.1979 50 84.8958 50C84.8958 49.7396 84.8958 49.7396 84.8958 49.4792C84.1146 49.4792 84.1146 49.4792 83.3333 49.4792C83.3333 41.9271 83.3333 41.9271 83.3333 34.375C84.1146 34.375 84.1146 34.375 84.8958 34.375C84.8958 34.6354 84.8958 34.6354 84.8958 34.8958C87.0561 34.8958 88.3342 43.9657 88.5417 45.8333C88.151 45.8333 88.151 45.8333 87.7604 45.8333C87.6302 47.9167 87.6302 47.9167 87.5 50Z" fill="#5fb06d" fill-rule="nonzero" opacity="1" stroke="#5fb06d" stroke-linecap="round" stroke-linejoin="round" stroke-width="1"/>
<path d="M83.3333 47.3958C83.0729 47.3958 83.0729 47.3958 82.8125 47.3958C82.8125 47.1354 82.8125 47.1354 82.8125 46.875C82.5521 46.875 82.5521 46.875 82.2917 46.875C82.2917 45.1445 82.8125 46.5297 82.8125 43.75C82.4219 43.75 82.4219 43.75 82.0312 43.75C81.901 44.7917 81.901 44.7917 81.7708 45.8333C80.4688 45.8333 80.4688 45.8333 79.1667 45.8333C79.1667 37.5 79.1667 37.5 79.1667 29.1667C81.25 29.1667 81.25 29.1667 83.3333 29.1667C83.3333 38.2812 83.3333 38.2812 83.3333 47.3958Z" fill="#ebded1" fill-rule="nonzero" opacity="1" stroke="#ebded1" stroke-linecap="round" stroke-linejoin="round" stroke-width="1"/>
<path d="M95.8333 49.2188C97.1623 49.2188 96.8755 48.4375 98.4375 48.4375C98.4375 48.8281 98.4375 48.8281 98.4375 49.2188C99.1821 49.2188 99.4043 49.1081 99.7396 48.4375C99.8698 55.9896 99.8698 55.9896 100 63.5417C93.5702 63.5417 97.5785 64.0625 95.3125 64.0625C95.3125 63.6743 95.819 63.4088 95.8333 63.0208C96.0036 58.4233 95.8333 53.8194 95.8333 49.2188Z" fill="#65c77a" fill-rule="nonzero" opacity="1" stroke="#65c77a" stroke-linecap="round" stroke-linejoin="round" stroke-width="1"/>
<path d="M30.2083 8.33333C30.2083 8.07292 30.2083 8.07292 30.2083 7.8125C29.6875 7.8125 29.6875 7.8125 29.1667 7.8125C29.1667 7.03125 29.1667 7.03125 29.1667 6.25C29.9392 6.25 29.8856 5.85387 30.2083 5.20833C29.9479 5.20833 29.9479 5.20833 29.6875 5.20833C30.4526 3.67816 29.7538 4.6875 33.3333 4.6875C33.3333 4.42708 33.3333 4.42708 33.3333 4.16667C33.5938 4.16667 33.5938 4.16667 33.8542 4.16667C33.8542 2.08333 33.8542 2.08333 33.8542 0C35.6771 0 35.6771 0 37.5 0C37.5 4.16667 37.5 4.16667 37.5 8.33333C33.8542 8.33333 33.8542 8.33333 30.2083 8.33333Z" fill="#e49a5a" fill-rule="nonzero" opacity="1" stroke="#e49a5a" stroke-linecap="round" stroke-linejoin="round" stroke-width="1"/>
<path d="M70.8333 87.5C70.8333 88.2812 70.8333 88.2812 70.8333 89.0625C69.3371 89.0625 69.7254 88.6743 69.2708 89.5833C70.0521 89.5833 70.0521 89.5833 70.8333 89.5833C70.8333 90.1042 70.8333 90.1042 70.8333 90.625C68.2955 90.625 68.839 89.9262 68.2292 91.1458C69.5312 91.1458 69.5312 91.1458 70.8333 91.1458C70.8333 91.4062 70.8333 91.4062 70.8333 91.6667C68.8802 91.6667 68.8802 91.6667 66.9271 91.6667C66.7969 93.75 66.7969 93.75 66.6667 95.8333C64.5833 95.8333 64.5833 95.8333 62.5 95.8333C62.5 91.6667 62.5 91.6667 62.5 87.5C65.2778 87.5 68.0556 87.5 70.8333 87.5Z" fill="#666ba1" fill-rule="nonzero" opacity="1" stroke="#666ba1" stroke-linecap="round" stroke-linejoin="round" stroke-width="1"/>
<path d="M41.6667 4.16667C45.8333 4.16667 45.8333 4.16667 50 4.16667C50 6.25 50 6.25 50 8.33333C45.5854 8.33333 45.8333 8.08542 45.8333 12.5C43.75 12.5 43.75 12.5 41.6667 12.5C41.6667 9.72222 41.6667 6.94444 41.6667 4.16667Z" fill="#d98c59" fill-rule="nonzero" opacity="1" stroke="#d98c59" stroke-linecap="round" stroke-linejoin="round" stroke-width="1"/>
<path d="M42.1875 25C42.1875 24.0885 42.1875 24.0885 42.1875 23.1771C46.0269 22.9028 45.2885 24.0064 46.0938 22.3958C46.224 23.1771 46.224 23.1771 46.3542 23.9583C46.6146 23.9583 46.6146 23.9583 46.875 23.9583C46.875 24.4792 46.875 24.4792 46.875 25C47.1354 25 47.1354 25 47.3958 25C47.3958 23.5819 47.9167 24.4557 47.9167 22.6562C48.4375 22.526 48.4375 22.526 48.9583 22.3958C48.9583 23.6979 48.9583 23.6979 48.9583 25C49.2188 25 49.2188 25 49.4792 25C49.4792 24.0246 49.3627 24.4517 49.7396 23.6979C49.8698 26.4323 49.8698 26.4323 50 29.1667C47.9167 29.1667 47.9167 29.1667 45.8333 29.1667C45.8333 27.0833 45.8333 27.0833 45.8333 25C44.0104 25 44.0104 25 42.1875 25Z" fill="#589f63" fill-rule="nonzero" opacity="1" stroke="#589f63" stroke-linecap="round" stroke-linejoin="round" stroke-width="1"/>
<path d="M79.1667 37.5C77.0833 37.5 77.0833 37.5 75 37.5C75 31.25 75 31.25 75 25C75.7812 25 75.7812 25 76.5625 25C76.5625 26.7701 75.5208 27.0997 75.5208 29.1667C75.7812 29.1667 75.7812 29.1667 76.0417 29.1667C76.0417 28.0568 76.8469 28.0771 77.3438 27.0833C77.7594 27.9147 77.4101 27.6042 78.6458 27.6042C78.6458 27.8646 78.6458 27.8646 78.6458 28.125C78.9062 28.125 78.9062 28.125 79.1667 28.125C79.1667 32.8125 79.1667 32.8125 79.1667 37.5Z" fill="#56a565" fill-rule="nonzero" opacity="1" stroke="#56a565" stroke-linecap="round" stroke-linejoin="round" stroke-width="1"/>
<path d="M86.4583 73.9583C86.4583 73.4375 86.4583 73.4375 86.4583 72.9167C85.2191 73.5363 83.8542 73.3938 83.8542 75C83.5938 75 83.5938 75 83.3333 75C83.3333 70.9635 83.3333 70.9635 83.3333 66.9271C85.9375 66.7969 85.9375 66.7969 88.5417 66.6667C88.5417 67.4393 87.5247 67.6478 87.5 67.9688C87.3336 70.1325 87.5 72.309 87.5 74.4792C87.2396 74.4792 87.2396 74.4792 86.9792 74.4792C86.9792 74.2188 86.9792 74.2188 86.9792 73.9583C86.7188 73.9583 86.7188 73.9583 86.4583 73.9583Z" fill="#725555" fill-rule="nonzero" opacity="1" stroke="#725555" stroke-linecap="round" stroke-linejoin="round" stroke-width="1"/>
<path d="M43.75 100C43.75 99.4792 43.75 99.4792 43.75 98.9583C43.4896 98.9583 43.4896 98.9583 43.2292 98.9583C43.2292 98.6979 43.2292 98.6979 43.2292 98.4375C42.9688 98.4375 42.9688 98.4375 42.7083 98.4375C42.7083 98.1771 42.7083 98.1771 42.7083 97.9167C41.6667 97.9167 41.6667 97.9167 40.625 97.9167C40.625 97.6562 40.625 97.6562 40.625 97.3958C39.5833 97.3958 39.5833 97.3958 38.5417 97.3958C38.5417 97.1354 38.5417 97.1354 38.5417 96.875C36.2428 96.875 31.2877 96.7243 30.4688 100C37.1094 100 37.1094 100 43.75 100Z" fill="#5fa6e4" fill-rule="nonzero" opacity="1" stroke="#5fa6e4" stroke-linecap="round" stroke-linejoin="round" stroke-width="1"/>
<path d="M91.6667 58.3333C89.5833 58.3333 89.5833 58.3333 87.5 58.3333C87.5 54.1667 87.5 54.1667 87.5 50C89.5833 50 89.5833 50 91.6667 50C91.6667 54.1667 91.6667 54.1667 91.6667 58.3333Z" fill="#edb7ba" fill-rule="nonzero" opacity="1" stroke="#edb7ba" stroke-linecap="round" stroke-linejoin="round" stroke-width="1"/>
<path d="M75 50C71.875 50 71.875 50 68.75 50C68.75 49.7396 68.75 49.7396 68.75 49.4792C67.7083 49.4792 67.7083 49.4792 66.6667 49.4792C66.6667 47.6562 66.6667 47.6562 66.6667 45.8333C70.8333 45.8333 70.8333 45.8333 75 45.8333C75 47.9167 75 47.9167 75 50Z" fill="#ae8099" fill-rule="nonzero" opacity="1" stroke="#ae8099" stroke-linecap="round" stroke-linejoin="round" stroke-width="1"/>
<path d="M41.6667 50C37.5 50 37.5 50 33.3333 50C33.3333 47.9167 33.3333 47.9167 33.3333 45.8333C37.5 45.8333 37.5 45.8333 41.6667 45.8333C41.6667 47.2222 41.6667 48.6111 41.6667 50Z" fill="#ffffff" fill-rule="nonzero" opacity="1" stroke="#ffffff" stroke-linecap="round" stroke-linejoin="round" stroke-width="1"/>
<path d="M50 45.8333C50 47.9167 50 47.9167 50 50C46.875 50 46.875 50 43.75 50C43.75 49.7396 43.75 49.7396 43.75 49.4792C43.2292 49.4792 43.2292 49.4792 42.7083 49.4792C42.7083 49.2188 42.7083 49.2188 42.7083 48.9583C42.1875 48.9583 42.1875 48.9583 41.6667 48.9583C41.6667 47.3958 41.6667 47.3958 41.6667 45.8333C45.8333 45.8333 45.8333 45.8333 50 45.8333Z" fill="#a97c94" fill-rule="nonzero" opacity="1" stroke="#a97c94" stroke-linecap="round" stroke-linejoin="round" stroke-width="1"/>
<path d="M29.1667 29.1667C27.0833 29.1667 27.0833 29.1667 25 29.1667C25 25.1302 25 25.1302 25 21.0938C27.0833 20.9635 27.0833 20.9635 29.1667 20.8333C29.1667 25 29.1667 25 29.1667 29.1667Z" fill="#ebe2d2" fill-rule="nonzero" opacity="1" stroke="#ebe2d2" stroke-linecap="round" stroke-linejoin="round" stroke-width="1"/>
<path d="M41.6667 41.6667C41.6667 43.75 41.6667 43.75 41.6667 45.8333C37.5 45.8333 37.5 45.8333 33.3333 45.8333C33.3333 43.75 33.3333 43.75 33.3333 41.6667C37.5 41.6667 37.5 41.6667 41.6667 41.6667Z" fill="#c9c9c8" fill-rule="nonzero" opacity="1" stroke="#c9c9c8" stroke-linecap="round" stroke-linejoin="round" stroke-width="1"/>
<path d="M54.1667 95.8333C50 95.8333 50 95.8333 45.8333 95.8333C45.8333 94.5312 45.8333 94.5312 45.8333 93.2292C46.799 93.2292 46.2469 92.7083 47.3958 92.7083C47.3958 92.9688 47.3958 92.9688 47.3958 93.2292C47.6562 93.2292 47.6562 93.2292 47.9167 93.2292C47.9167 93.4896 47.9167 93.4896 47.9167 93.75C48.1771 93.75 48.1771 93.75 48.4375 93.75C48.4375 94.0104 48.4375 94.0104 48.4375 94.2708C48.9583 94.2708 48.9583 94.2708 49.4792 94.2708C49.4792 94.5312 49.4792 94.5312 49.4792 94.7917C50.2604 94.7917 50.2604 94.7917 51.0417 94.7917C51.0417 94.401 51.0417 94.401 51.0417 94.0104C53.839 93.7307 53.2557 94.5303 53.9063 93.2292C54.1882 95.4848 54.1667 94.6127 54.1667 95.8333Z" fill="#5a5d8f" fill-rule="nonzero" opacity="1" stroke="#5a5d8f" stroke-linecap="round" stroke-linejoin="round" stroke-width="1"/>
<path d="M83.3333 89.5833C81.7708 89.5833 81.7708 89.5833 80.2083 89.5833C80.2083 89.3229 80.2083 89.3229 80.2083 89.0625C79.9479 89.0625 79.9479 89.0625 79.6875 89.0625C79.6875 88.8021 79.6875 88.8021 79.6875 88.5417C79.4271 88.5417 79.4271 88.5417 79.1667 88.5417C79.3403 88.1944 79.5139 87.8472 79.6875 87.5C79.4271 87.5 79.4271 87.5 79.1667 87.5C79.1667 85.4167 79.1667 85.4167 79.1667 83.3333C81.25 83.3333 81.25 83.3333 83.3333 83.3333C83.3333 86.4583 83.3333 86.4583 83.3333 89.5833Z" fill="#4e507d" fill-rule="nonzero" opacity="1" stroke="#4e507d" stroke-linecap="round" stroke-linejoin="round" stroke-width="1"/>
<path d="M25 12.5C25 10.5469 25 10.5469 25 8.59375C27.3438 8.46354 27.3438 8.46354 29.6875 8.33333C29.6875 10.3427 29.1667 7.43065 29.1667 12.5C27.0833 12.5 27.0833 12.5 25 12.5Z" fill="#d8975b" fill-rule="nonzero" opacity="1" stroke="#d8975b" stroke-linecap="round" stroke-linejoin="round" stroke-width="1"/>
<path d="M62.5 8.33333C62.5 10.4167 62.5 10.4167 62.5 12.5C60.6771 12.5 60.6771 12.5 58.8542 12.5C58.8542 12.2396 58.8542 12.2396 58.8542 11.9792C58.5938 11.9792 58.5938 11.9792 58.3333 11.9792C58.3333 7.87189 58.8542 10.1278 58.8542 8.33333C60.6771 8.33333 60.6771 8.33333 62.5 8.33333Z" fill="#d68158" fill-rule="nonzero" opacity="1" stroke="#d68158" stroke-linecap="round" stroke-linejoin="round" stroke-width="1"/>
<path d="M79.1667 20.8333C79.1667 18.8802 79.1667 18.8802 79.1667 16.9271C79.6875 16.7969 79.6875 16.7969 80.2083 16.6667C80.2083 17.1875 80.2083 17.1875 80.2083 17.7083C81.7708 17.7083 81.7708 17.7083 83.3333 17.7083C83.3333 18.2292 83.3333 18.2292 83.3333 18.75C81.901 18.75 81.901 18.75 80.4688 18.75C80.3385 19.7917 80.3385 19.7917 80.2083 20.8333C79.6875 20.8333 79.6875 20.8333 79.1667 20.8333Z" fill="#509759" fill-rule="nonzero" opacity="1" stroke="#509759" stroke-linecap="round" stroke-linejoin="round" stroke-width="1"/>
<path d="M66.6667 45.8333C66.6667 43.75 66.6667 43.75 66.6667 41.6667C68.75 41.6667 68.75 41.6667 70.8333 41.6667C70.8333 43.75 70.8333 43.75 70.8333 45.8333C68.75 45.8333 68.75 45.8333 66.6667 45.8333Z" fill="#ffffff" fill-rule="nonzero" opacity="1" stroke="#ffffff" stroke-linecap="round" stroke-linejoin="round" stroke-width="1"/>
<path d="M66.6667 45.8333C64.5833 45.8333 64.5833 45.8333 62.5 45.8333C62.5 43.75 62.5 43.75 62.5 41.6667C64.5833 41.6667 64.5833 41.6667 66.6667 41.6667C66.6667 43.75 66.6667 43.75 66.6667 45.8333Z" fill="#cecfcd" fill-rule="nonzero" opacity="1" stroke="#cecfcd" stroke-linecap="round" stroke-linejoin="round" stroke-width="1"/>
<path d="M41.6667 8.33333C41.6667 10.4167 41.6667 10.4167 41.6667 12.5C39.5833 12.5 39.5833 12.5 37.5 12.5C37.5 10.4167 37.5 10.4167 37.5 8.33333C38.8889 8.33333 40.2778 8.33333 41.6667 8.33333Z" fill="#fafcf9" fill-rule="nonzero" opacity="1" stroke="#fafcf9" stroke-linecap="round" stroke-linejoin="round" stroke-width="1"/>
<path d="M41.6667 45.8333C41.6667 43.75 41.6667 43.75 41.6667 41.6667C43.75 41.6667 43.75 41.6667 45.8333 41.6667C45.8333 43.75 45.8333 43.75 45.8333 45.8333C43.75 45.8333 43.75 45.8333 41.6667 45.8333Z" fill="#ffffff" fill-rule="nonzero" opacity="1" stroke="#ffffff" stroke-linecap="round" stroke-linejoin="round" stroke-width="1"/>
<path d="M20.8333 4.16667C20.8333 2.08333 20.8333 2.08333 20.8333 0C22.9167 0 22.9167 0 25 0C25 2.08333 25 2.08333 25 4.16667C22.9167 4.16667 22.9167 4.16667 20.8333 4.16667Z" fill="#46854d" fill-rule="nonzero" opacity="1" stroke="#46854d" stroke-linecap="round" stroke-linejoin="round" stroke-width="1"/>
<path d="M54.1667 58.3333C54.1667 56.25 54.1667 56.25 54.1667 54.1667C52.2135 54.1667 52.2135 54.1667 50.2604 54.1667C50.1302 56.25 50.1302 56.25 50 58.3333C52.0833 58.3333 52.0833 58.3333 54.1667 58.3333Z" fill="#be8ba5" fill-rule="nonzero" opacity="1" stroke="#be8ba5" stroke-linecap="round" stroke-linejoin="round" stroke-width="1"/>
<path d="M75 50C75 47.9167 75 47.9167 75 45.8333C77.0833 45.8333 77.0833 45.8333 79.1667 45.8333C79.1667 47.9167 79.1667 47.9167 79.1667 50C77.0833 50 77.0833 50 75 50Z" fill="#ffffff" fill-rule="nonzero" opacity="1" stroke="#ffffff" stroke-linecap="round" stroke-linejoin="round" stroke-width="1"/>
<path d="M50 33.3333C47.9167 33.3333 47.9167 33.3333 45.8333 33.3333C45.8333 31.25 45.8333 31.25 45.8333 29.1667C47.9167 29.1667 47.9167 29.1667 50 29.1667C50 31.25 50 31.25 50 33.3333Z" fill="#5eb26f" fill-rule="nonzero" opacity="1" stroke="#5eb26f" stroke-linecap="round" stroke-linejoin="round" stroke-width="1"/>
<path d="M66.6667 50C64.5833 50 64.5833 50 62.5 50C62.5 47.9167 62.5 47.9167 62.5 45.8333C64.5833 45.8333 64.5833 45.8333 66.6667 45.8333C66.6667 47.2222 66.6667 48.6111 66.6667 50Z" fill="#ffffff" fill-rule="nonzero" opacity="1" stroke="#ffffff" stroke-linecap="round" stroke-linejoin="round" stroke-width="1"/>
<path d="M33.8542 29.1667C33.8542 27.0833 33.8542 27.0833 33.8542 25C33.4635 25 33.4635 25 33.0729 25C32.8092 26.0547 32.6159 26.5944 31.5104 26.0417C31.3802 26.5625 31.3802 26.5625 31.25 27.0833C30.599 27.0833 30.599 27.0833 29.9479 27.0833C29.8177 28.125 29.8177 28.125 29.6875 29.1667C31.0764 29.1667 32.4653 29.1667 33.8542 29.1667Z" fill="#4c9256" fill-rule="nonzero" opacity="1" stroke="#4c9256" stroke-linecap="round" stroke-linejoin="round" stroke-width="1"/>
<path d="M41.6667 23.9583C41.6667 22.3958 41.6667 22.3958 41.6667 20.8333C39.7135 20.8333 39.7135 20.8333 37.7604 20.8333C37.6302 22.3958 37.6302 22.3958 37.5 23.9583C39.0351 23.9583 38.4128 22.9167 40.625 22.9167C40.625 23.1771 40.625 23.1771 40.625 23.4375C40.8854 23.4375 40.8854 23.4375 41.1458 23.4375C41.1458 23.6979 41.1458 23.6979 41.1458 23.9583C41.4062 23.9583 41.4062 23.9583 41.6667 23.9583Z" fill="#eae3d3" fill-rule="nonzero" opacity="1" stroke="#eae3d3" stroke-linecap="round" stroke-linejoin="round" stroke-width="1"/>
<path d="M66.6667 36.4583C69.3632 36.4583 73.5336 38.3494 74.7396 35.9375C74.8698 36.7188 74.8698 36.7188 75 37.5C70.8333 37.5 70.8333 37.5 66.6667 37.5C66.6667 36.9792 66.6667 36.9792 66.6667 36.4583Z" fill="#f0e5e0" fill-rule="nonzero" opacity="1" stroke="#f0e5e0" stroke-linecap="round" stroke-linejoin="round" stroke-width="1"/>
<path d="M33.3333 41.6667C33.3333 40.1042 33.3333 40.1042 33.3333 38.5417C35.1562 38.5417 35.1562 38.5417 36.9792 38.5417C36.9792 39.5833 36.9792 39.5833 36.9792 40.625C34.9621 40.625 35.428 40.0815 34.8958 41.1458C35.9375 41.1458 35.9375 41.1458 36.9792 41.1458C36.9792 41.4062 36.9792 41.4062 36.9792 41.6667C35.1562 41.6667 35.1562 41.6667 33.3333 41.6667Z" fill="#6d6fa4" fill-rule="nonzero" opacity="1" stroke="#6d6fa4" stroke-linecap="round" stroke-linejoin="round" stroke-width="1"/>
<path d="M66.6667 37.5C64.5833 37.5 64.5833 37.5 62.5 37.5C62.5 36.9792 62.5 36.9792 62.5 36.4583C63.2813 36.4583 63.2813 36.4583 64.0625 36.4583C64.0625 36.1979 64.0625 36.1979 64.0625 35.9375C63.8021 35.9375 63.8021 35.9375 63.5417 35.9375C64.2605 35.2187 64.0326 34.8958 65.1042 34.8958C65.1042 35.6771 65.1042 35.6771 65.1042 36.4583C65.8854 36.4583 65.8854 36.4583 66.6667 36.4583C66.6667 36.9792 66.6667 36.9792 66.6667 37.5Z" fill="#539a62" fill-rule="nonzero" opacity="1" stroke="#539a62" stroke-linecap="round" stroke-linejoin="round" stroke-width="1"/>
<path d="M39.0625 8.33333C39.0625 6.38021 39.0625 6.38021 39.0625 4.42708C39.5833 4.29688 39.5833 4.29688 40.1042 4.16667C40.1042 4.42708 40.1042 4.42708 40.1042 4.6875C41.0698 4.6875 40.5177 4.16667 41.6667 4.16667C41.6667 6.25 41.6667 6.25 41.6667 8.33333C40.3646 8.33333 40.3646 8.33333 39.0625 8.33333Z" fill="#519659" fill-rule="nonzero" opacity="1" stroke="#519659" stroke-linecap="round" stroke-linejoin="round" stroke-width="1"/>
<path d="M62.5 71.875C62.5 72.1354 62.5 72.1354 62.5 72.3958C58.3333 72.3958 58.3333 72.3958 54.1667 72.3958C55.4114 69.9065 59.7168 71.875 62.5 71.875Z" fill="#faf6ed" fill-rule="nonzero" opacity="1" stroke="#faf6ed" stroke-linecap="round" stroke-linejoin="round" stroke-width="1"/>
<path d="M29.1667 53.125C28.5156 53.125 28.5156 53.125 27.8646 53.125C27.8646 48.1699 28.1072 50.1535 27.6042 47.1354C28.3854 47.0052 28.3854 47.0052 29.1667 46.875C29.1667 48.9583 29.1667 51.0417 29.1667 53.125Z" fill="#4b3436" fill-rule="nonzero" opacity="1" stroke="#4b3436" stroke-linecap="round" stroke-linejoin="round" stroke-width="1"/>
<path d="M29.1667 6.25C29.1667 5.33854 29.1667 5.33854 29.1667 4.42708C31.25 4.29688 31.25 4.29688 33.3333 4.16667C33.3333 4.42708 33.3333 4.42708 33.3333 4.6875C29.7538 4.6875 30.4526 3.67816 29.6875 5.20833C29.9479 5.20833 29.9479 5.20833 30.2083 5.20833C30.2083 5.97469 29.933 6.25 29.1667 6.25Z" fill="#e9a860" fill-rule="nonzero" opacity="1" stroke="#e9a860" stroke-linecap="round" stroke-linejoin="round" stroke-width="1"/>
<path d="M75 25C75 24.4792 75 24.4792 75 23.9583C73.4287 23.6441 73.8379 24.1178 73.4375 22.9167C72.6837 23.2935 72.9167 22.983 72.9167 23.9583C72.0052 23.9583 72.0052 23.9583 71.0938 23.9583C70.9635 24.4792 70.9635 24.4792 70.8333 25C72.9167 25 72.9167 25 75 25Z" fill="#4d9056" fill-rule="nonzero" opacity="1" stroke="#4d9056" stroke-linecap="round" stroke-linejoin="round" stroke-width="1"/>
<path d="M72.3958 79.1667C72.3958 78.6458 72.3958 78.6458 72.3958 78.125C72.1354 78.125 72.1354 78.125 71.875 78.125C71.875 77.8646 71.875 77.8646 71.875 77.6042C71.3542 77.6042 71.3542 77.6042 70.8333 77.6042C70.8333 77.3438 70.8333 77.3438 70.8333 77.0833C68.8163 77.0833 69.2822 76.5398 68.75 77.6042C69.5312 77.6042 69.5312 77.6042 70.3125 77.6042C70.3125 77.8646 70.3125 77.8646 70.3125 78.125C70.5729 78.125 70.5729 78.125 70.8333 78.125C70.8333 78.6458 70.8333 78.6458 70.8333 79.1667C71.6146 79.1667 71.6146 79.1667 72.3958 79.1667Z" fill="#faf6ee" fill-rule="nonzero" opacity="1" stroke="#faf6ee" stroke-linecap="round" stroke-linejoin="round" stroke-width="1"/>
<path d="M26.5625 66.6667C26.5625 66.9271 26.5625 66.9271 26.5625 67.1875C23.6979 67.1875 23.6979 67.1875 20.8333 67.1875C21.6909 65.4723 24.6449 66.6667 26.5625 66.6667Z" fill="#499050" fill-rule="nonzero" opacity="1" stroke="#499050" stroke-linecap="round" stroke-linejoin="round" stroke-width="1"/>
<path d="M100 23.9583C98.9583 23.9583 98.9583 23.9583 97.9167 23.9583C97.9167 23.6979 97.9167 23.6979 97.9167 23.4375C97.3958 23.4375 97.3958 23.4375 96.875 23.4375C98.2547 22.0578 96.9135 22.3958 100 22.3958C100 23.1771 100 23.1771 100 23.9583Z" fill="#4c9558" fill-rule="nonzero" opacity="1" stroke="#4c9558" stroke-linecap="round" stroke-linejoin="round" stroke-width="1"/>
<path d="M75 20.8333C75 21.0938 75 21.0938 75 21.3542C73.9583 21.3542 73.9583 21.3542 72.9167 21.3542C72.9167 19.4121 73.0693 20.528 73.6979 19.2708C73.8281 20.0521 73.8281 20.0521 73.9583 20.8333C74.4792 20.8333 74.4792 20.8333 75 20.8333Z" fill="#4b9353" fill-rule="nonzero" opacity="1" stroke="#4b9353" stroke-linecap="round" stroke-linejoin="round" stroke-width="1"/>
<path d="M33.3333 41.6667C32.8125 41.6667 32.8125 41.6667 32.2917 41.6667C32.2917 40.7138 32.5067 37.9133 33.3333 37.5C33.3333 39.5833 33.3333 39.5833 33.3333 41.6667Z" fill="#f8f3ee" fill-rule="nonzero" opacity="1" stroke="#f8f3ee" stroke-linecap="round" stroke-linejoin="round" stroke-width="1"/>
<path d="M62.5 95.8333C58.3333 95.8333 58.3333 95.8333 54.1667 95.8333C54.1667 95.5729 54.1667 95.5729 54.1667 95.3125C58.3333 95.3125 58.3333 95.3125 62.5 95.3125C62.5 95.5729 62.5 95.5729 62.5 95.8333Z" fill="#dda5b4" fill-rule="nonzero" opacity="1" stroke="#dda5b4" stroke-linecap="round" stroke-linejoin="round" stroke-width="1"/>
<path d="M95.8333 4.16667C95.8333 3.77604 95.8333 3.77604 95.8333 3.38542C97.9167 3.25521 97.9167 3.25521 100 3.125C100 3.64583 100 3.64583 100 4.16667C97.9167 4.16667 97.9167 4.16667 95.8333 4.16667Z" fill="#49884f" fill-rule="nonzero" opacity="1" stroke="#49884f" stroke-linecap="round" stroke-linejoin="round" stroke-width="1"/>
<path d="M62.5 8.33333C62.5 7.8125 62.5 7.8125 62.5 7.29167C60.5469 7.29167 60.5469 7.29167 58.5938 7.29167C58.4635 7.8125 58.4635 7.8125 58.3333 8.33333C60.4167 8.33333 60.4167 8.33333 62.5 8.33333Z" fill="#4a8c50" fill-rule="nonzero" opacity="1" stroke="#4a8c50" stroke-linecap="round" stroke-linejoin="round" stroke-width="1"/>
<path d="M70.8333 68.75C70.8333 69.7917 70.8333 69.7917 70.8333 70.8333C69.7917 70.8333 69.7917 70.8333 68.75 70.8333C68.75 69.1703 69.1703 68.75 70.8333 68.75Z" fill="#faf6ee" fill-rule="nonzero" opacity="1" stroke="#faf6ee" stroke-linecap="round" stroke-linejoin="round" stroke-width="1"/>
<path d="M62.7604 84.8958C64.7135 84.8958 64.7135 84.8958 66.6667 84.8958C66.6667 85.4167 66.6667 85.4167 66.6667 85.9375C64.5833 85.9375 64.5833 85.9375 62.5 85.9375C62.6302 85.4167 62.6302 85.4167 62.7604 84.8958Z" fill="#edabb6" fill-rule="nonzero" opacity="1" stroke="#edabb6" stroke-linecap="round" stroke-linejoin="round" stroke-width="1"/>
<path d="M28.125 35.4167C28.125 38.8021 28.125 38.8021 28.125 42.1875C27.8646 42.1875 27.8646 42.1875 27.6042 42.1875C28.6165 40.1629 28.0308 37.6783 28.125 35.4167Z" fill="#4a9454" fill-rule="nonzero" opacity="1" stroke="#4a9454" stroke-linecap="round" stroke-linejoin="round" stroke-width="1"/>
<path d="M37.5 37.5C37.5 37.2396 37.5 37.2396 37.5 36.9792C33.3996 36.9792 34.1761 35.8145 33.3333 37.5C35.4167 37.5 35.4167 37.5 37.5 37.5Z" fill="#f6f0ec" fill-rule="nonzero" opacity="1" stroke="#f6f0ec" stroke-linecap="round" stroke-linejoin="round" stroke-width="1"/>
<path d="M41.6667 16.6667C41.6667 16.9271 41.6667 16.9271 41.6667 17.1875C39.5833 17.1875 39.5833 17.1875 37.5 17.1875C38.3427 15.502 37.5663 16.6667 41.6667 16.6667Z" fill="#489154" fill-rule="nonzero" opacity="1" stroke="#489154" stroke-linecap="round" stroke-linejoin="round" stroke-width="1"/>
<path d="M29.1667 16.6667C29.1667 16.9271 29.1667 16.9271 29.1667 17.1875C27.0833 17.1875 27.0833 17.1875 25 17.1875C25.8427 15.502 25.0663 16.6667 29.1667 16.6667Z" fill="#489254" fill-rule="nonzero" opacity="1" stroke="#489254" stroke-linecap="round" stroke-linejoin="round" stroke-width="1"/>
<path d="M62.5 4.16667C62.5 4.42708 62.5 4.42708 62.5 4.6875C60.4167 4.6875 60.4167 4.6875 58.3333 4.6875C59.1761 3.00205 58.3996 4.16667 62.5 4.16667Z" fill="#479153" fill-rule="nonzero" opacity="1" stroke="#479153" stroke-linecap="round" stroke-linejoin="round" stroke-width="1"/>
<path d="M66.6667 87.5C66.6667 87.2396 66.6667 87.2396 66.6667 86.9792C62.5663 86.9792 63.3427 85.8145 62.5 87.5C64.5833 87.5 64.5833 87.5 66.6667 87.5Z" fill="#e9abae" fill-rule="nonzero" opacity="1" stroke="#e9abae" stroke-linecap="round" stroke-linejoin="round" stroke-width="1"/>
<path d="M30.2083 91.6667C30.8848 90.3137 32.3964 91.978 33.0729 90.625C33.2031 91.1458 33.2031 91.1458 33.3333 91.6667C31.7708 91.6667 31.7708 91.6667 30.2083 91.6667Z" fill="#3c3038" fill-rule="nonzero" opacity="1" stroke="#3c3038" stroke-linecap="round" stroke-linejoin="round" stroke-width="1"/>
<path d="M59.8958 33.3333C59.1146 33.3333 59.1146 33.3333 58.3333 33.3333C58.3333 32.2917 58.3333 32.2917 58.3333 31.25C59.1146 31.25 59.1146 31.25 59.8958 31.25C59.8958 32.2917 59.8958 32.2917 59.8958 33.3333Z" fill="#59a565" fill-rule="nonzero" opacity="1" stroke="#59a565" stroke-linecap="round" stroke-linejoin="round" stroke-width="1"/>
<path d="M65.3646 52.0833C66.0156 52.0833 66.0156 52.0833 66.6667 52.0833C66.6667 53.125 66.6667 53.125 66.6667 54.1667C66.1458 54.1667 66.1458 54.1667 65.625 54.1667C65.625 53.6458 65.625 53.6458 65.625 53.125C65.3646 53.125 65.3646 53.125 65.1042 53.125C65.2344 52.6042 65.2344 52.6042 65.3646 52.0833Z" fill="#fbf7ef" fill-rule="nonzero" opacity="1" stroke="#fbf7ef" stroke-linecap="round" stroke-linejoin="round" stroke-width="1"/>
<path d="M30.2083 51.5625C30.7292 51.5625 30.7292 51.5625 31.25 51.5625C31.25 52.8646 31.25 52.8646 31.25 54.1667C30.7292 54.1667 30.7292 54.1667 30.2083 54.1667C30.2083 52.8646 30.2083 52.8646 30.2083 51.5625Z" fill="#fbf7ef" fill-rule="nonzero" opacity="1" stroke="#fbf7ef" stroke-linecap="round" stroke-linejoin="round" stroke-width="1"/>
<path d="M69.2708 87.5C69.2708 87.1094 69.2708 87.1094 69.2708 86.7188C70.3125 86.5885 70.3125 86.5885 71.3542 86.4583C71.3542 86.7188 71.3542 86.7188 71.3542 86.9792C71.6146 86.9792 71.6146 86.9792 71.875 86.9792C71.875 87.2396 71.875 87.2396 71.875 87.5C70.5729 87.5 70.5729 87.5 69.2708 87.5Z" fill="#b08ca7" fill-rule="nonzero" opacity="1" stroke="#b08ca7" stroke-linecap="round" stroke-linejoin="round" stroke-width="1"/>
<path d="M35.9375 31.25C35.9375 31.5104 35.9375 31.5104 35.9375 31.7708C36.1979 31.7708 36.1979 31.7708 36.4583 31.7708C36.4583 32.0312 36.4583 32.0312 36.4583 32.2917C35.1562 32.2917 35.1562 32.2917 33.8542 32.2917C34.8471 31.2987 34.2168 31.25 35.9375 31.25Z" fill="#4c9557" fill-rule="nonzero" opacity="1" stroke="#4c9557" stroke-linecap="round" stroke-linejoin="round" stroke-width="1"/>
<path d="M37.5 29.6875C35.9375 29.6875 35.9375 29.6875 34.375 29.6875C35.0624 28.3126 34.4413 29.1667 37.5 29.1667C37.5 29.4271 37.5 29.4271 37.5 29.6875Z" fill="#4a9254" fill-rule="nonzero" opacity="1" stroke="#4a9254" stroke-linecap="round" stroke-linejoin="round" stroke-width="1"/>
<path d="M66.9271 25C67.0573 27.3438 67.0573 27.3438 67.1875 29.6875C66.9271 29.6875 66.9271 29.6875 66.6667 29.6875C66.7969 27.3438 66.7969 27.3438 66.9271 25Z" fill="#49904f" fill-rule="nonzero" opacity="1" stroke="#49904f" stroke-linecap="round" stroke-linejoin="round" stroke-width="1"/>
<path d="M87.5 79.1667C87.2396 79.1667 87.2396 79.1667 86.9792 79.1667C86.9792 76.8229 86.9792 76.8229 86.9792 74.4792C87.2396 74.4792 87.2396 74.4792 87.5 74.4792C87.5 76.8229 87.5 76.8229 87.5 79.1667Z" fill="#533f3f" fill-rule="nonzero" opacity="1" stroke="#533f3f" stroke-linecap="round" stroke-linejoin="round" stroke-width="1"/>
<path d="M33.3333 4.16667C33.3333 2.08333 33.3333 2.08333 33.3333 0C33.5938 0 33.5938 0 33.8542 0C33.8542 2.08333 33.8542 2.08333 33.8542 4.16667C33.5938 4.16667 33.5938 4.16667 33.3333 4.16667Z" fill="#e3a75d" fill-rule="nonzero" opacity="1" stroke="#e3a75d" stroke-linecap="round" stroke-linejoin="round" stroke-width="1"/>
<path d="M41.6667 50C41.6667 49.4792 41.6667 49.4792 41.6667 48.9583C42.1875 48.9583 42.1875 48.9583 42.7083 48.9583C42.7083 49.2188 42.7083 49.2188 42.7083 49.4792C43.2292 49.4792 43.2292 49.4792 43.75 49.4792C43.75 49.7396 43.75 49.7396 43.75 50C42.7083 50 42.7083 50 41.6667 50Z" fill="#b488a1" fill-rule="nonzero" opacity="1" stroke="#b488a1" stroke-linecap="round" stroke-linejoin="round" stroke-width="1"/>
<path d="M87.5 100C87.5 99.4792 87.5 99.4792 87.5 98.9583C86.5885 98.9583 86.5885 98.9583 85.6771 98.9583C85.5469 99.4792 85.5469 99.4792 85.4167 100C86.4583 100 86.4583 100 87.5 100Z" fill="#5da8e4" fill-rule="nonzero" opacity="1" stroke="#5da8e4" stroke-linecap="round" stroke-linejoin="round" stroke-width="1"/>
<path d="M81.25 75C81.25 76.0873 80.1142 75.8837 79.1667 76.0417C79.1667 75.5208 79.1667 75.5208 79.1667 75C80.2083 75 80.2083 75 81.25 75Z" fill="#704d52" fill-rule="nonzero" opacity="1" stroke="#704d52" stroke-linecap="round" stroke-linejoin="round" stroke-width="1"/>
<path d="M37.5 8.33333C37.5 6.25 37.5 6.25 37.5 4.16667C37.7604 4.16667 37.7604 4.16667 38.0208 4.16667C38.0208 6.25 38.0208 6.25 38.0208 8.33333C37.7604 8.33333 37.7604 8.33333 37.5 8.33333Z" fill="#549257" fill-rule="nonzero" opacity="1" stroke="#549257" stroke-linecap="round" stroke-linejoin="round" stroke-width="1"/>
<path d="M100 0.520833C97.9167 0.520833 97.9167 0.520833 95.8333 0.520833C95.8333 0.260417 95.8333 0.260417 95.8333 0C97.9167 0 97.9167 0 100 0C100 0.260417 100 0.260417 100 0.520833Z" fill="#469052" fill-rule="nonzero" opacity="1" stroke="#469052" stroke-linecap="round" stroke-linejoin="round" stroke-width="1"/>
<path d="M66.9271 12.5C67.0573 14.5833 67.0573 14.5833 67.1875 16.6667C66.9271 16.6667 66.9271 16.6667 66.6667 16.6667C66.7969 14.5833 66.7969 14.5833 66.9271 12.5Z" fill="#479153" fill-rule="nonzero" opacity="1" stroke="#479153" stroke-linecap="round" stroke-linejoin="round" stroke-width="1"/>
<path d="M54.4271 8.33333C54.5573 10.4167 54.5573 10.4167 54.6875 12.5C54.4271 12.5 54.4271 12.5 54.1667 12.5C54.2969 10.4167 54.2969 10.4167 54.4271 8.33333Z" fill="#489254" fill-rule="nonzero" opacity="1" stroke="#489254" stroke-linecap="round" stroke-linejoin="round" stroke-width="1"/>
<path d="M50.2604 14.5833C51.1719 14.5833 51.1719 14.5833 52.0833 14.5833C52.0833 15.6706 50.9476 15.4671 50 15.625C50.1302 15.1042 50.1302 15.1042 50.2604 14.5833Z" fill="#4b9456" fill-rule="nonzero" opacity="1" stroke="#4b9456" stroke-linecap="round" stroke-linejoin="round" stroke-width="1"/>
<path d="M79.1667 0C79.1667 0.260417 79.1667 0.260417 79.1667 0.520833C77.0833 0.520833 77.0833 0.520833 75 0.520833C75 0.260417 75 0.260417 75 0C77.0833 0 77.0833 0 79.1667 0Z" fill="#489254" fill-rule="nonzero" opacity="1" stroke="#489254" stroke-linecap="round" stroke-linejoin="round" stroke-width="1"/>
<path d="M58.3333 100C58.3333 98.9583 58.3333 98.9583 58.3333 97.9167C57.9427 97.9167 57.9427 97.9167 57.5521 97.9167C57.4219 98.9583 57.4219 98.9583 57.2917 100C57.8125 100 57.8125 100 58.3333 100Z" fill="#5ea9e5" fill-rule="nonzero" opacity="1" stroke="#5ea9e5" stroke-linecap="round" stroke-linejoin="round" stroke-width="1"/>
<path d="M75 76.0417C75 75.651 75 75.651 75 75.2604C75.7812 75.1302 75.7812 75.1302 76.5625 75C76.5625 76.2242 76.2853 76.0417 75 76.0417Z" fill="#735053" fill-rule="nonzero" opacity="1" stroke="#735053" stroke-linecap="round" stroke-linejoin="round" stroke-width="1"/>
<path d="M56.7708 25.5208C56.7708 25.2604 56.7708 25.2604 56.7708 25C57.5521 25 57.5521 25 58.3333 25C58.3333 25.5208 58.3333 25.5208 58.3333 26.0417C57.8125 26.0417 57.8125 26.0417 57.2917 26.0417C57.2917 25.7813 57.2917 25.7813 57.2917 25.5208C57.0313 25.5208 57.0313 25.5208 56.7708 25.5208Z" fill="#f5f5ea" fill-rule="nonzero" opacity="1" stroke="#f5f5ea" stroke-linecap="round" stroke-linejoin="round" stroke-width="1"/>
<path d="M29.1667 51.5625C29.1667 50.7813 29.1667 50.7813 29.1667 50C29.6875 50 29.6875 50 30.2083 50C30.2083 50.7813 30.2083 50.7813 30.2083 51.5625C29.6875 51.5625 29.6875 51.5625 29.1667 51.5625Z" fill="#f6f7eb" fill-rule="nonzero" opacity="1" stroke="#f6f7eb" stroke-linecap="round" stroke-linejoin="round" stroke-width="1"/>
<path d="M79.6875 8.33333C79.4271 8.33333 79.4271 8.33333 79.1667 8.33333C79.1667 7.55208 79.1667 7.55208 79.1667 6.77083C79.6875 6.77083 79.6875 6.77083 80.2083 6.77083C80.2083 7.73651 79.6875 7.18437 79.6875 8.33333Z" fill="#519154" fill-rule="nonzero" opacity="1" stroke="#519154" stroke-linecap="round" stroke-linejoin="round" stroke-width="1"/>
<path d="M52.0833 76.0417C52.0833 76.3021 52.0833 76.3021 52.0833 76.5625C51.0417 76.5625 51.0417 76.5625 50 76.5625C50.5322 75.4982 50.0663 76.0417 52.0833 76.0417Z" fill="#faf6ee" fill-rule="nonzero" opacity="1" stroke="#faf6ee" stroke-linecap="round" stroke-linejoin="round" stroke-width="1"/>
<path d="M40.3646 68.2292C40.4948 69.5312 40.4948 69.5312 40.625 70.8333C40.3646 70.8333 40.3646 70.8333 40.1042 70.8333C40.2344 69.5312 40.2344 69.5312 40.3646 68.2292Z" fill="#f7f7ec" fill-rule="nonzero" opacity="1" stroke="#f7f7ec" stroke-linecap="round" stroke-linejoin="round" stroke-width="1"/>
<path d="M91.6667 13.5417C91.6667 13.151 91.6667 13.151 91.6667 12.7604C92.1875 12.6302 92.1875 12.6302 92.7083 12.5C92.7083 13.0208 92.7083 13.0208 92.7083 13.5417C92.1875 13.5417 92.1875 13.5417 91.6667 13.5417Z" fill="#c68858" fill-rule="nonzero" opacity="1" stroke="#c68858" stroke-linecap="round" stroke-linejoin="round" stroke-width="1"/>
<path d="M10.6771 14.5833C11.0677 14.5833 11.0677 14.5833 11.4583 14.5833C11.4583 15.1042 11.4583 15.1042 11.4583 15.625C10.9375 15.625 10.9375 15.625 10.4167 15.625C10.5469 15.1042 10.5469 15.1042 10.6771 14.5833Z" fill="#482f32" fill-rule="nonzero" opacity="1" stroke="#482f32" stroke-linecap="round" stroke-linejoin="round" stroke-width="1"/>
<path d="M31.5104 61.9792C31.901 61.9792 31.901 61.9792 32.2917 61.9792C32.2917 62.5 32.2917 62.5 32.2917 63.0208C31.7708 63.0208 31.7708 63.0208 31.25 63.0208C31.3802 62.5 31.3802 62.5 31.5104 61.9792Z" fill="#499355" fill-rule="nonzero" opacity="1" stroke="#499355" stroke-linecap="round" stroke-linejoin="round" stroke-width="1"/>
<path d="M66.6667 50C66.6667 49.7396 66.6667 49.7396 66.6667 49.4792C67.7083 49.4792 67.7083 49.4792 68.75 49.4792C68.75 49.7396 68.75 49.7396 68.75 50C67.7083 50 67.7083 50 66.6667 50Z" fill="#ba8ea7" fill-rule="nonzero" opacity="1" stroke="#ba8ea7" stroke-linecap="round" stroke-linejoin="round" stroke-width="1"/>
<path d="M95.8333 5.20833C95.8333 4.6875 95.8333 4.6875 95.8333 4.16667C96.3542 4.16667 96.3542 4.16667 96.875 4.16667C96.875 4.6875 96.875 4.6875 96.875 5.20833C96.3542 5.20833 96.3542 5.20833 95.8333 5.20833Z" fill="#c28257" fill-rule="nonzero" opacity="1" stroke="#c28257" stroke-linecap="round" stroke-linejoin="round" stroke-width="1"/>
<path d="M79.1667 28.125C79.6875 28.125 79.6875 28.125 80.2083 28.125C80.2083 27.6042 80.2083 27.6042 80.2083 27.0833C79.8177 27.0833 79.8177 27.0833 79.4271 27.0833C79.2969 27.6042 79.2969 27.6042 79.1667 28.125Z" fill="#4e9a5b" fill-rule="nonzero" opacity="1" stroke="#4e9a5b" stroke-linecap="round" stroke-linejoin="round" stroke-width="1"/>
<path d="M82.2917 27.0833C82.8125 27.0833 82.8125 27.0833 83.3333 27.0833C83.3333 27.6042 83.3333 27.6042 83.3333 28.125C82.8125 28.125 82.8125 28.125 82.2917 28.125C82.2917 27.6042 82.2917 27.6042 82.2917 27.0833Z" fill="#499355" fill-rule="nonzero" opacity="1" stroke="#499355" stroke-linecap="round" stroke-linejoin="round" stroke-width="1"/>
<path d="M92.7083 95.8333C92.1875 95.8333 92.1875 95.8333 91.6667 95.8333C91.6667 95.3125 91.6667 95.3125 91.6667 94.7917C92.1875 94.7917 92.1875 94.7917 92.7083 94.7917C92.7083 95.3125 92.7083 95.3125 92.7083 95.8333Z" fill="#4b4048" fill-rule="nonzero" opacity="1" stroke="#4b4048" stroke-linecap="round" stroke-linejoin="round" stroke-width="1"/>
</g>
</g>
</svg>
