<?xml version="1.0" encoding="UTF-8"?>
<svg version="1.1" xmlns="http://www.w3.org/2000/svg" width="914" height="888">
<path d="M0 0 C1.10077881 0.65605225 2.20155762 1.31210449 3.33569336 1.98803711 C3.94005722 2.34498154 4.54442108 2.70192596 5.167099 3.06968689 C7.09192214 4.20952638 9.00865382 5.36225008 10.92553711 6.51538086 C12.18480497 7.26296475 13.44456728 8.00971642 14.70483398 8.75561523 C21.90032678 13.02560662 29.03806265 17.38612029 36.14770508 21.79736328 C38.38170765 23.1594179 40.62985947 24.44967462 42.92553711 25.70288086 C45.78866359 27.40857323 47.89911985 28.75249462 49.86303711 31.45288086 C49.56379905 33.12600532 49.22204566 34.79155556 48.86303711 36.45288086 C48.71694166 38.94692653 48.61627807 41.44381213 48.54663086 43.94116211 C48.51545921 44.99596016 48.51545921 44.99596016 48.48365784 46.07206726 C48.41863596 48.30307903 48.35949935 50.53420155 48.30053711 52.76538086 C48.25730675 54.2842722 48.21369106 55.80315263 48.16967773 57.32202148 C48.06300377 61.03219206 47.9616049 64.74248507 47.86303711 68.45288086 C48.7007666 67.96819336 49.53849609 67.48350586 50.40161133 66.98413086 C53.50393502 65.19072243 56.60949004 63.40297685 59.71606445 61.61694336 C61.06135774 60.84244947 62.40576415 60.06641296 63.74926758 59.28881836 C65.67811912 58.17278912 67.61006943 57.06230692 69.54272461 55.95288086 C70.14486786 55.60290039 70.74701111 55.25291992 71.36740112 54.89233398 C75.6352937 52.45288086 75.6352937 52.45288086 77.86303711 52.45288086 C77.86303711 51.46288086 77.86303711 50.47288086 77.86303711 49.45288086 C81.45092243 48.5063055 83.35530996 48.24913315 86.84472656 49.64941406 C87.87815186 50.26131592 88.91157715 50.87321777 89.97631836 51.50366211 C90.54374252 51.83327942 91.11116669 52.16289673 91.69578552 52.50250244 C93.5321831 53.57435164 95.35364041 54.6690967 97.17553711 55.76538086 C98.43740396 56.50954463 99.70010454 57.2522964 100.96362305 57.99365234 C103.46130831 59.46203059 105.95348327 60.93913895 108.44165039 62.42358398 C111.34622269 64.14634729 114.26444785 65.83573404 117.20288086 67.49975586 C133.56105461 76.78883057 133.56105461 76.78883057 136.86303711 81.45288086 C137.80332285 85.77294317 137.9238753 89.75702243 137.74194336 94.16381836 C137.69360352 95.40776367 137.64526367 96.65170898 137.59545898 97.93334961 C137.53938477 99.21854492 137.48331055 100.50374023 137.42553711 101.82788086 C137.37333008 103.1362793 137.32112305 104.44467773 137.26733398 105.79272461 C137.13805118 109.01304164 137.00310021 112.23301766 136.86303711 115.45288086 C137.64018066 114.99848633 138.41732422 114.5440918 139.21801758 114.07592773 C142.09720941 112.39521405 144.97859576 110.71839625 147.86157227 109.04418945 C149.10987408 108.31820596 150.35727575 107.59067244 151.60375977 106.86157227 C153.39357971 105.81501884 155.18654223 104.77404702 156.98022461 103.73413086 C158.05900879 103.10571289 159.13779297 102.47729492 160.24926758 101.82983398 C162.86303711 100.45288086 162.86303711 100.45288086 164.86303711 100.45288086 C164.86303711 99.46288086 164.86303711 98.47288086 164.86303711 97.45288086 C167.65540198 96.52209257 169.85579894 96.06481074 172.66772461 97.14819336 C175.11516917 98.51000103 177.48356209 99.97506737 179.86303711 101.45288086 C181.80473767 102.60152223 183.75295389 103.73867214 185.70117188 104.8762207 C187.90734552 106.1662904 190.10836374 107.46479041 192.30834961 108.76538086 C195.31931606 110.54429449 198.33484283 112.31500185 201.35522461 114.07788086 C204.89619815 116.14501417 208.42726293 118.22814782 211.9519043 120.32299805 C213.74116362 121.38082791 215.53962858 122.42124404 217.33959961 123.46069336 C218.33733398 124.05624023 219.33506836 124.65178711 220.36303711 125.26538086 C221.21897461 125.76682617 222.07491211 126.26827148 222.95678711 126.78491211 C224.86303711 128.45288086 224.86303711 128.45288086 225.70678711 131.02709961 C225.86303711 133.45288086 225.86303711 133.45288086 224.86303711 135.45288086 C224.70695688 137.85848359 224.60499253 140.23990858 224.54663086 142.64819336 C224.52584976 143.3556369 224.50506866 144.06308044 224.48365784 144.79196167 C224.41822633 147.05383511 224.35930737 149.31582548 224.30053711 151.57788086 C224.25734578 153.11044508 224.21373129 154.64299743 224.16967773 156.17553711 C224.06255156 159.93453159 223.96126621 163.69364378 223.86303711 167.45288086 C224.7007666 166.96819336 225.53849609 166.48350586 226.40161133 165.98413086 C229.50393502 164.19072243 232.60949004 162.40297685 235.71606445 160.61694336 C237.06135774 159.84244947 238.40576415 159.06641296 239.74926758 158.28881836 C241.67811912 157.17278913 243.61006943 156.06230692 245.54272461 154.95288086 C246.14486786 154.60290039 246.74701111 154.25291992 247.36740112 153.89233398 C251.6352937 151.45288086 251.6352937 151.45288086 253.86303711 151.45288086 C253.86303711 150.46288086 253.86303711 149.47288086 253.86303711 148.45288086 C257.45092243 147.5063055 259.35530996 147.24913315 262.84472656 148.64941406 C263.87815186 149.26131592 264.91157715 149.87321777 265.97631836 150.50366211 C266.54374252 150.83327942 267.11116669 151.16289673 267.69578552 151.50250244 C269.5321831 152.57435164 271.35364041 153.6690967 273.17553711 154.76538086 C274.43740396 155.50954463 275.70010454 156.2522964 276.96362305 156.99365234 C279.46130831 158.46203059 281.95348327 159.93913895 284.44165039 161.42358398 C287.34622269 163.14634729 290.26444785 164.83573404 293.20288086 166.49975586 C309.56105461 175.78883057 309.56105461 175.78883057 312.86303711 180.45288086 C314.08132833 185.74094848 313.97523139 190.94882546 313.92553711 196.33959961 C313.92175049 197.27842484 313.91796387 198.21725006 313.9140625 199.18452454 C313.90189185 202.16985765 313.88325514 205.15509206 313.86303711 208.14038086 C313.83648503 212.08178442 313.81648319 216.0231405 313.80053711 219.96459961 C313.79223877 220.87086594 313.78394043 221.77713226 313.77539062 222.71086121 C313.7720874 223.5521608 313.76878418 224.39346039 313.76538086 225.26025391 C313.76014404 225.99938522 313.75490723 226.73851654 313.74951172 227.50004578 C313.79052737 229.66974716 313.79052737 229.66974716 314.86303711 232.45288086 C314.04857299 235.73402624 313.25681657 237.14967819 310.55981445 239.22631836 C309.6157373 239.75483398 308.67166016 240.28334961 307.69897461 240.82788086 C306.65870117 241.42084961 305.61842773 242.01381836 304.54663086 242.62475586 C303.45479492 243.22803711 302.36295898 243.83131836 301.23803711 244.45288086 C299.09944046 245.66019477 296.96140811 246.86850889 294.82397461 248.07788086 C293.87312988 248.60639648 292.92228516 249.13491211 291.94262695 249.67944336 C290.41822998 250.55729492 290.41822998 250.55729492 288.86303711 251.45288086 C288.16233597 251.76623886 287.46163483 252.07959686 286.73970032 252.40245056 C284.41293267 253.56367819 282.69218125 254.59783157 280.86303711 256.45288086 C279.75073489 260.00428976 279.90427814 263.38908962 280.04663086 267.08178711 C280.05557877 268.10843979 280.06452667 269.13509247 280.07374573 270.19285583 C280.11183737 273.46884621 280.20602322 276.74058276 280.30053711 280.01538086 C280.33210018 282.22301502 280.36013487 284.43070264 280.38452148 286.63842773 C280.44295301 290.68084768 280.51001821 294.72236498 280.62255859 298.76367188 C280.65542213 299.9801516 280.65542213 299.9801516 280.68894958 301.22120667 C280.86161376 303.43463455 281.14911868 305.35003776 281.86303711 307.45288086 C283.92660559 309.07594356 283.92660559 309.07594356 286.58569336 310.41381836 C288.08797485 311.23414551 288.08797485 311.23414551 289.62060547 312.07104492 C290.71123291 312.65080078 291.80186035 313.23055664 292.92553711 313.82788086 C295.22092335 315.07843988 297.5151663 316.33109934 299.80834961 317.58569336 C300.3954924 317.90509888 300.98263519 318.22450439 301.58757019 318.55358887 C307.56553254 321.81255361 313.43553928 325.24607514 319.30053711 328.70288086 C327.26799352 333.38881451 335.27745473 337.97302278 343.42138672 342.34643555 C349.76680279 345.79921036 349.76680279 345.79921036 351.86303711 348.45288086 C351.55053711 352.14038086 351.55053711 352.14038086 350.86303711 355.45288086 C349.54303711 355.45288086 348.22303711 355.45288086 346.86303711 355.45288086 C346.89333008 356.49436279 346.92362305 357.53584473 346.95483398 358.60888672 C347.7396482 386.37176349 347.95429025 414.11844216 347.92553711 441.89038086 C347.92425308 443.13941256 347.92425308 443.13941256 347.92294312 444.41367722 C347.91151957 454.76010082 347.89139537 465.10648938 347.86303711 475.45288086 C348.85303711 475.45288086 349.84303711 475.45288086 350.86303711 475.45288086 C352.11303711 482.07788086 352.11303711 482.07788086 349.86303711 485.45288086 C350.66483398 485.67717773 351.46663086 485.90147461 352.29272461 486.13256836 C356.84008275 487.81419533 360.81286131 490.1325406 364.98803711 492.57788086 C366.84849761 493.65507792 368.70918755 494.73187879 370.57006836 495.80834961 C371.57247559 496.3902002 372.57488281 496.97205078 373.60766602 497.5715332 C377.12614693 499.60493758 380.6549427 501.61942383 384.18725586 503.62866211 C384.80842285 503.98224792 385.42958984 504.33583374 386.06958008 504.70013428 C388.54276779 506.10791548 391.01598007 507.51564918 393.49029541 508.92144775 C412.50050833 519.72782329 412.50050833 519.72782329 413.86303711 522.45288086 C413.90326102 524.78586746 413.90623958 527.11994751 413.86303711 529.45288086 C414.52303711 529.45288086 415.18303711 529.45288086 415.86303711 529.45288086 C415.86303711 561.79288086 415.86303711 594.13288086 415.86303711 627.45288086 C417.51303711 628.11288086 419.16303711 628.77288086 420.86303711 629.45288086 C422.6177227 630.36985652 424.35657529 631.31752536 426.08178711 632.28881836 C427.08685303 632.85294434 428.09191895 633.41707031 429.12744141 633.99829102 C430.19518799 634.60205566 431.26293457 635.20582031 432.36303711 635.82788086 C433.46494385 636.44840332 434.56685059 637.06892578 435.70214844 637.70825195 C439.09137663 639.61915056 442.47758609 641.53529966 445.86303711 643.45288086 C446.89477051 644.03618164 447.92650391 644.61948242 448.98950195 645.22045898 C451.84512819 646.83619768 454.69843672 648.45592779 457.55053711 650.07788086 C458.40389648 650.5617627 459.25725586 651.04564453 460.13647461 651.54418945 C460.93698242 652.00132324 461.73749023 652.45845703 462.56225586 652.92944336 C463.25150146 653.32212402 463.94074707 653.71480469 464.65087891 654.11938477 C465.74589722 654.77946533 465.74589722 654.77946533 466.86303711 655.45288086 C467.8816684 655.87738525 468.90029968 656.30188965 469.94979858 656.73925781 C473.32957269 659.88744936 473.33923322 660.5912857 473.64512634 665.01864624 C473.69006276 667.41349853 473.70138503 669.80911498 473.68701172 672.2043457 C473.70234451 673.51202408 473.71767731 674.81970245 473.73347473 676.16700745 C473.77364193 679.75202571 473.77538193 683.33609526 473.76778483 686.92129469 C473.76457471 689.915828 473.77922828 692.91016955 473.7936011 695.90466177 C473.82688659 702.97101097 473.82820028 710.03688181 473.81005859 717.10327148 C473.79194248 724.3884235 473.82885736 731.6718368 473.8927688 738.9566921 C473.94565189 745.21510138 473.96361574 751.47295785 473.95385557 757.73158228 C473.94842051 761.46797299 473.95628144 765.20312395 473.99799919 768.93931198 C474.0428065 773.10822714 474.01480321 777.27361669 473.97998047 781.44262695 C474.00291168 782.67712082 474.0258429 783.91161469 474.04946899 785.18351746 C473.89822735 793.36536805 473.89822735 793.36536805 470.89551449 796.51984978 C468.60843256 798.06735961 466.363626 799.28997622 463.86303711 800.45288086 C462.82429443 801.07855957 461.78555176 801.70423828 460.71533203 802.34887695 C459.76762939 802.88593262 458.81992676 803.42298828 457.84350586 803.97631836 C456.75336182 804.59651855 455.66321777 805.21671875 454.54003906 805.85571289 C453.37690024 806.51315264 452.21373213 807.17054056 451.05053711 807.82788086 C449.81751489 808.52789831 448.58469022 809.22826382 447.35205078 809.92895508 C444.79620513 811.38155134 442.2395231 812.83266041 439.68237305 814.28295898 C436.01079894 816.36695758 432.34598396 818.4625939 428.68334961 820.56225586 C416.08175828 827.78448634 403.45428948 834.95567342 390.76660156 842.02563477 C389.79940186 842.56494629 388.83220215 843.10425781 387.83569336 843.65991211 C386.99272705 844.12888916 386.14976074 844.59786621 385.28125 845.08105469 C383.55790176 846.05869161 381.85855892 847.07916173 380.17724609 848.12744141 C377.86303711 849.45288086 377.86303711 849.45288086 375.86303711 849.45288086 C375.53303711 851.43288086 375.20303711 853.41288086 374.86303711 855.45288086 C371.89303711 855.45288086 368.92303711 855.45288086 365.86303711 855.45288086 C365.86303711 854.79288086 365.86303711 854.13288086 365.86303711 853.45288086 C365.14567383 853.18137207 364.42831055 852.90986328 363.68920898 852.63012695 C360.87507798 851.4578965 358.29978072 850.11198434 355.64428711 848.61694336 C354.64083252 848.05370361 353.63737793 847.49046387 352.60351562 846.91015625 C350.99947876 846.00317993 350.99947876 846.00317993 349.36303711 845.07788086 C347.68842407 844.13513306 347.68842407 844.13513306 345.97998047 843.17333984 C327.98183787 833.02818757 310.08419138 822.70946493 292.19360352 812.3762207 C286.75112817 809.23329292 281.30701234 806.09320968 275.86303711 802.95288086 C273.69636231 801.70289495 271.52969565 800.45289494 269.36303711 799.20288086 C268.29053711 798.58413086 267.21803711 797.96538086 266.11303711 797.32788086 C262.86303711 795.45288086 259.61303711 793.57788086 256.36303711 791.70288086 C255.28932861 791.08348633 254.21562012 790.4640918 253.109375 789.82592773 C250.95473087 788.58275786 248.80026954 787.33927111 246.64599609 786.09545898 C241.6354959 783.20304939 236.62341076 780.31352859 231.60440063 777.43591309 C229.84574962 776.42739772 228.08770502 775.41783316 226.32983398 774.40795898 C224.1383148 773.14937568 221.94569207 771.89271099 219.75170898 770.63842773 C214.75032029 767.76351259 209.77675259 764.84408733 204.85913086 761.82788086 C203.99344482 761.29936523 203.12775879 760.77084961 202.23583984 760.22631836 C199.86303711 758.45288086 199.86303711 758.45288086 197.89819336 755.95117188 C195.59057771 753.11841865 193.51083352 751.83182378 190.30444336 750.10522461 C189.20535645 749.50597168 188.10626953 748.90671875 186.97387695 748.28930664 C186.39450378 747.97962952 185.81513062 747.66995239 185.21820068 747.35089111 C183.40460767 746.37916685 181.60095632 745.39095463 179.79907227 744.39770508 C174.04967941 741.23447675 168.27295947 738.13767258 162.44506836 735.12084961 C160.5426969 734.10657866 158.64035154 733.09225876 156.73803711 732.07788086 C155.85059814 731.63951904 154.96315918 731.20115723 154.04882812 730.74951172 C151.67992492 729.4697975 149.75399533 728.37253432 147.86303711 726.45288086 C147.4543457 724.32885742 147.4543457 724.32885742 147.44116211 722.00756836 C147.48496978 719.66535771 147.48496978 719.66535771 146.86303711 717.45288086 C143.88368193 714.5918591 140.3854665 712.84487256 136.73803711 710.95288086 C134.73005226 709.84121294 132.72224053 708.72923228 130.71459961 707.61694336 C129.22621582 706.81498535 129.22621582 706.81498535 127.70776367 705.99682617 C123.78512279 703.86785424 119.94361217 701.61715374 116.11303711 699.32788086 C115.50057129 698.9740332 114.88810547 698.62018555 114.25708008 698.25561523 C111.30125719 696.51097129 109.80845301 695.3710047 107.86303711 692.45288086 C108.22937053 690.12789375 108.22937053 690.12789375 108.86303711 687.45288086 C108.95479346 685.52110428 108.99659569 683.58662243 109.00170231 681.65267467 C109.00991397 679.90301081 109.00991397 679.90301081 109.01829153 678.11800021 C109.01926964 676.84076958 109.02024775 675.56353896 109.02125549 674.24760437 C109.02582285 672.87385391 109.03082313 671.50010483 109.03621906 670.12635738 C109.04978975 666.35233464 109.05721543 662.5783209 109.06364572 658.80428016 C109.07165435 654.73410798 109.08535054 650.6639545 109.09835815 646.59379578 C109.12011432 639.54226454 109.13826196 632.49073141 109.15396309 625.43918419 C109.17666953 615.24381358 109.2048113 605.04846368 109.23428237 594.85311065 C109.28194876 578.3120764 109.32521554 561.77103368 109.36572266 545.22998047 C109.40508242 529.16128887 109.44650981 513.09260479 109.49072266 497.02392578 C109.49480906 495.53837241 109.49480906 495.53837241 109.49897803 494.02280786 C109.51265758 489.05444928 109.52637784 484.08609082 109.54011834 479.11773241 C109.65406816 437.8961309 109.76088083 396.67451317 109.86303711 355.45288086 C106.96641296 357.05562261 104.07088157 358.66032869 101.17553711 360.26538086 C100.35891602 360.71719727 99.54229492 361.16901367 98.70092773 361.63452148 C97.11753358 362.51276035 95.53731773 363.39675905 93.96066403 364.28704196 C92.27137389 365.22593159 90.5502031 366.1073362 88.82053757 366.96958447 C86.66377893 368.29327127 86.66377893 368.29327127 86.23497391 370.69712543 C86.23350735 371.58020469 86.23204079 372.46328394 86.23052979 373.37312317 C86.21668747 374.38880875 86.20284515 375.40449432 86.18858337 376.45095825 C86.19878006 377.56510101 86.20897675 378.67924377 86.21948242 379.82714844 C86.20616631 381.58896202 86.20616631 381.58896202 86.19258118 383.3863678 C86.17290256 386.61513263 86.17532054 389.84300052 86.18706989 393.07177567 C86.19393542 396.4701933 86.17177796 399.86841728 86.15252686 403.26676941 C86.12016108 409.72871625 86.11241243 416.19044028 86.11410117 422.65245885 C86.11554881 432.05105163 86.08167973 441.44952459 86.04636765 450.84804058 C86.04113761 452.25218389 86.03591524 453.65632722 86.03070068 455.06047058 C86.02809573 455.74831861 86.02549078 456.43616663 86.02280688 457.14485854 C86.00610841 461.8071038 86.00125571 466.46926545 86.00054932 471.13154602 C85.99547909 478.23930013 85.94159962 485.34559844 85.86303711 492.45288086 C85.85586166 493.54770657 85.84868622 494.64253227 85.84129333 495.77053452 C85.81302283 498.84517012 85.74983607 501.91692343 85.67456055 504.99072266 C85.67042271 505.88996114 85.66628487 506.78919962 85.66202164 507.71568775 C85.51533914 512.05358586 85.38674194 513.84606866 82.46832275 517.22761536 C79.80592654 518.97092749 77.14852171 520.21503002 74.20336914 521.40649414 C69.14982454 523.66598633 64.45161758 526.66615462 59.67553711 529.45288086 C57.66538568 530.60601662 55.65132102 531.75237008 53.63256836 532.89038086 C52.76220947 533.3840918 51.89185059 533.87780273 50.99511719 534.38647461 C48.86303711 535.45288086 48.86303711 535.45288086 46.86303711 535.45288086 C46.86303711 536.44288086 46.86303711 537.43288086 46.86303711 538.45288086 C44.55303711 538.45288086 42.24303711 538.45288086 39.86303711 538.45288086 C39.64389648 537.86337646 39.42475586 537.27387207 39.19897461 536.66650391 C37.42578179 533.7283571 35.46182865 532.72791466 32.48803711 531.03491211 C31.42069336 530.42067383 30.35334961 529.80643555 29.25366211 529.17358398 C28.13475586 528.54387695 27.01584961 527.91416992 25.86303711 527.26538086 C24.74413086 526.62407227 23.62522461 525.98276367 22.47241211 525.32202148 C17.22139064 522.28820038 17.22139064 522.28820038 11.86303711 519.45288086 C10.93445927 516.66714733 10.73931551 515.01808972 10.74278259 512.14387512 C10.7407206 510.8250811 10.7407206 510.8250811 10.73861694 509.47964478 C10.74221222 508.5179538 10.7458075 507.55626282 10.74951172 506.56542969 C10.74936569 505.55062027 10.74921967 504.53581085 10.74906921 503.49024963 C10.74976685 500.13011551 10.75755233 496.77003657 10.76538086 493.40991211 C10.76724557 491.08249441 10.76866922 488.75507631 10.76966858 486.42765808 C10.7734896 480.29724039 10.78331637 474.16684633 10.79437256 468.03643799 C10.80459559 461.78267741 10.80916811 455.52891301 10.81420898 449.27514648 C10.82493898 437.00104755 10.84201045 424.72696617 10.86303711 412.45288086 C7.12212262 414.58649683 3.38171458 416.72099745 -0.35827637 418.85623169 C-1.62393373 419.57866885 -2.88971643 420.30088648 -4.15563965 421.02285767 C-15.7955261 427.66157397 -27.37356804 434.40138785 -38.92407227 441.19458008 C-40.96547335 442.35536794 -43.03295576 443.41160358 -45.13696289 444.45288086 C-45.13869914 445.14958234 -45.14043539 445.84628382 -45.14222425 446.56409746 C-45.24614154 488.22060415 -45.35442533 529.8770976 -45.46807983 571.53357891 C-45.48184296 576.579352 -45.49557102 581.62512519 -45.50927734 586.67089844 C-45.51200565 587.67506465 -45.51473395 588.67923086 -45.51754493 589.71382635 C-45.56114995 605.79337285 -45.60193975 621.87292525 -45.6416155 637.95248187 C-45.68264983 654.55610568 -45.72687975 671.15971896 -45.77384144 687.76332706 C-45.80000893 697.04522785 -45.82483783 706.32712765 -45.84603691 715.60904121 C-45.85431544 719.16120047 -45.86272874 722.71335939 -45.87120056 726.26551819 C-45.87324054 727.13543718 -45.87528051 728.00535617 -45.8773823 728.90163634 C-45.89989095 738.26755833 -45.93106408 747.63331136 -45.98793697 756.99909306 C-45.99284623 757.81631374 -45.99775549 758.63353442 -46.00281351 759.47551937 C-46.02260097 762.74976966 -46.04244231 766.02401894 -46.06356094 769.29826095 C-46.12698901 779.31960356 -46.13571587 789.33855339 -46.07119368 799.35991831 C-46.02898971 806.06687729 -46.01921483 812.77336326 -46.03308656 819.48043875 C-46.03942771 823.40990894 -46.02834815 827.33750282 -45.97319114 831.26662934 C-45.9224783 834.8818109 -45.91771035 838.49410143 -45.94844072 842.10948046 C-45.95263342 844.04694077 -45.906986 845.98431055 -45.85962069 847.92119634 C-45.99058158 856.24745133 -45.99058158 856.24745133 -49.33602417 859.76521218 C-51.86685375 861.5631074 -54.37177954 863.04890038 -57.13696289 864.45288086 C-58.13614746 865.05245605 -59.13533203 865.65203125 -60.16479492 866.26977539 C-60.98318848 866.70402832 -61.80158203 867.13828125 -62.64477539 867.58569336 C-63.5690332 868.08198242 -64.49329102 868.57827148 -65.44555664 869.08959961 C-66.3749707 869.58073242 -67.30438477 870.07186523 -68.26196289 870.57788086 C-79.58154784 875.48921091 -79.58154784 875.48921091 -88.13696289 883.45288086 C-96.30208018 884.53129258 -100.59570478 880.98343562 -107.13696289 876.45288086 C-115.35087955 871.19727455 -123.75759873 866.36951028 -132.30908203 861.68994141 C-133.42271118 861.07953003 -133.42271118 861.07953003 -134.55883789 860.45678711 C-135.22496094 860.09399658 -135.89108398 859.73120605 -136.57739258 859.35742188 C-138.13696289 858.45288086 -138.13696289 858.45288086 -139.13696289 857.45288086 C-139.23474591 855.47209308 -139.26067555 853.48775356 -139.26001072 851.50455379 C-139.26200177 850.2032562 -139.26399282 848.9019586 -139.2660442 847.56122774 C-139.2631906 846.09818628 -139.26024499 844.63514499 -139.25721741 843.17210388 C-139.25765297 841.63269011 -139.25852761 840.09327641 -139.25980657 838.55386311 C-139.2620544 834.30332605 -139.25802635 830.05281394 -139.25302851 825.80228007 C-139.24872829 821.22624943 -139.25017013 816.65022032 -139.25093079 812.07418823 C-139.2514563 804.13914593 -139.2483067 796.20411182 -139.24269295 788.26907158 C-139.23458157 776.79619658 -139.2319631 765.32332557 -139.23070496 753.85044802 C-139.22851386 735.23851258 -139.22185223 716.62658151 -139.21240234 698.01464844 C-139.2032297 679.93001324 -139.19614815 661.84537924 -139.19189453 643.76074219 C-139.19150045 642.08991225 -139.19150045 642.08991225 -139.1910984 640.38532817 C-139.18979341 634.79754023 -139.18852969 629.20975229 -139.1872865 623.62196434 C-139.1769121 577.23226681 -139.15929224 530.84257406 -139.13696289 484.45288086 C-139.76713916 484.10928968 -140.39731543 483.76569851 -141.04658794 483.41169548 C-143.93248692 481.83813363 -146.81829493 480.26440502 -149.70410156 478.69067383 C-150.69536797 478.1502092 -151.68663437 477.60974457 -152.70793915 477.05290222 C-167.38245586 469.04993582 -167.38245586 469.04993582 -173.44946289 465.57788086 C-174.39112305 465.06225586 -175.3327832 464.54663086 -176.30297852 464.01538086 C-182.83505617 460.25033103 -182.83505617 460.25033103 -184.26977539 456.46069336 C-184.2040332 454.97182617 -184.2040332 454.97182617 -184.13696289 453.45288086 C-184.09700195 452.45772461 -184.05704102 451.46256836 -184.01586914 450.43725586 C-183.91145508 449.36991211 -183.80704102 448.30256836 -183.69946289 447.20288086 C-182.98228055 438.61508208 -183.04908609 430.06480696 -183.13696289 421.45288086 C-183.60102539 421.7815918 -184.06508789 422.11030273 -184.54321289 422.44897461 C-190.4159024 426.4919269 -196.51805774 429.96133227 -202.81469727 433.29248047 C-207.029192 435.4101591 -207.029192 435.4101591 -209.13696289 439.45288086 C-211.51196289 441.01538086 -211.51196289 441.01538086 -215.13696289 441.45288086 C-219.79585007 439.60228734 -223.96388716 436.93748151 -228.09350586 434.11621094 C-234.06945277 430.03878154 -240.25794029 426.5462021 -246.63696289 423.14038086 C-248.60651052 422.08327186 -250.57530438 421.02475685 -252.54321289 419.96459961 C-253.40237305 419.50529053 -254.2615332 419.04598145 -255.14672852 418.57275391 C-257.13696289 417.45288086 -257.13696289 417.45288086 -258.13696289 416.45288086 C-258.13831942 417.14040865 -258.13967595 417.82793643 -258.14107358 418.53629839 C-258.22169543 459.27019795 -258.31263842 500.00406305 -258.4170145 540.737909 C-258.42953361 545.62711167 -258.44196635 550.51631455 -258.4543457 555.40551758 C-258.4568117 556.37888413 -258.45927769 557.35225068 -258.46181841 558.35511319 C-258.50155957 574.12290847 -258.53430091 589.89071092 -258.56446271 605.65852709 C-258.59555903 621.83357517 -258.63416062 638.00859273 -258.67975295 654.18360651 C-258.70765642 664.1672342 -258.72968141 674.15083954 -258.7442254 684.13449578 C-258.75475442 690.97743064 -258.77256297 697.82032224 -258.79612993 704.66322453 C-258.80951778 708.61324986 -258.81966339 712.56321446 -258.82117653 716.5132637 C-258.82263252 720.12936777 -258.8332266 723.74532554 -258.8510973 727.36138467 C-258.85824686 729.28956246 -258.85560927 731.21776886 -258.85262716 733.14595759 C-258.86009265 734.29349084 -258.86755814 735.44102409 -258.87524986 736.62333107 C-258.87866735 738.10537952 -258.87866735 738.10537952 -258.88215387 739.61736834 C-259.22653858 743.44967834 -259.82113699 747.21544633 -262.70239258 749.92504883 C-263.31501953 750.26165527 -263.92764648 750.59826172 -264.55883789 750.94506836 C-265.24816406 751.33645996 -265.93749023 751.72785156 -266.64770508 752.13110352 C-267.38666016 752.52604004 -268.12561523 752.92097656 -268.88696289 753.32788086 C-270.02246582 753.96089111 -270.02246582 753.96089111 -271.1809082 754.60668945 C-272.73689598 755.47398804 -274.29650203 756.33482634 -275.85961914 757.18920898 C-278.00037904 758.37709205 -280.10301835 759.61066207 -282.19946289 760.87475586 C-282.82369141 761.24745605 -283.44791992 761.62015625 -284.09106445 762.00415039 C-285.78945321 763.01958184 -287.48668135 764.03695377 -289.18383789 765.05444336 C-292.32517532 766.54200791 -293.73145829 766.77308097 -297.13696289 766.45288086 C-299.47924805 765.40576172 -299.47924805 765.40576172 -301.92602539 763.91772461 C-302.85495605 763.36262207 -303.78388672 762.80751953 -304.7409668 762.2355957 C-305.73789551 761.6266748 -306.73482422 761.01775391 -307.76196289 760.39038086 C-309.90617077 759.10771179 -312.05207311 757.82787204 -314.19946289 756.55053711 C-315.32481445 755.88038574 -316.45016602 755.21023438 -317.60961914 754.51977539 C-324.72038593 750.32488988 -331.98669179 746.39754696 -339.2253418 742.42919922 C-344.33793187 739.61432937 -349.36506921 736.81832166 -354.13696289 733.45288086 C-353.80696289 732.13288086 -353.47696289 730.81288086 -353.13696289 729.45288086 C-352.47696289 729.45288086 -351.81696289 729.45288086 -351.13696289 729.45288086 C-351.46696289 609.00288086 -351.79696289 488.55288086 -352.13696289 364.45288086 C-354.44696289 363.13288086 -356.75696289 361.81288086 -359.13696289 360.45288086 C-360.53166163 356.31960361 -360.12013289 352.50306307 -359.69946289 348.20288086 C-358.98228055 339.61508208 -359.04908609 331.06480696 -359.13696289 322.45288086 C-359.60102539 322.7815918 -360.06508789 323.11030273 -360.54321289 323.44897461 C-366.4159024 327.4919269 -372.51805774 330.96133227 -378.81469727 334.29248047 C-383.029192 336.4101591 -383.029192 336.4101591 -385.13696289 340.45288086 C-387.51196289 342.01538086 -387.51196289 342.01538086 -391.13696289 342.45288086 C-397.51450345 339.91960741 -403.17039522 335.84556615 -408.79321289 331.96459961 C-412.36984514 329.65767181 -416.1515724 327.7621819 -419.94946289 325.84741211 C-422.13696289 324.45288086 -422.13696289 324.45288086 -423.13696289 321.45288086 C-426.69156382 319.62480038 -430.2086348 319.02576204 -434.13696289 318.45288086 C-435.80500966 318.12652388 -437.47220603 317.79562492 -439.13696289 317.45288086 C-441.10291352 312.58305533 -441.3352459 308.31327245 -441.11352539 303.14428711 C-441.08904327 302.34861328 -441.06456116 301.55293945 -441.03933716 300.7331543 C-440.95823109 298.1600306 -440.86174835 295.58784394 -440.76196289 293.01538086 C-440.6286705 289.48431238 -440.50034622 285.95313595 -440.37915039 282.42163086 C-440.33389221 281.12316978 -440.33389221 281.12316978 -440.28771973 279.79847717 C-440.13797759 274.85224074 -440.19165032 269.98945111 -440.51977539 265.04663086 C-441.44000199 250.99573009 -441.44000199 250.99573009 -437.73852539 246.61303711 C-434.87976628 244.80987307 -432.10852423 243.44944596 -428.96166992 242.2277832 C-426.04292771 240.98827454 -423.55640623 239.18163479 -420.94946289 237.39038086 C-411.00330844 230.8745845 -400.56551021 225.13511497 -390.2487793 219.23510742 C-386.03623719 216.82246366 -381.83571065 214.38942412 -377.63696289 211.95288086 C-372.43879928 208.94000085 -367.23727198 205.93305723 -362.03149414 202.93334961 C-351.42530085 196.82161628 -340.82768468 190.69686137 -330.26196289 184.51538086 C-320.99199689 179.09361536 -311.67864483 173.7508314 -302.34851074 168.43365479 C-293.22413449 163.23242957 -284.13563515 157.97260208 -275.07006836 152.66943359 C-264.54611664 146.51521344 -253.98316152 140.4291809 -243.41918945 134.34399414 C-237.99036347 131.21607938 -232.56377008 128.08429638 -227.13696289 124.95288086 C-224.97030706 123.70286207 -222.80364039 122.45286208 -220.63696289 121.20288086 C-219.56446289 120.58413086 -218.49196289 119.96538086 -217.38696289 119.32788086 C-181.63696289 98.70288086 -181.63696289 98.70288086 -178.38647461 96.82763672 C-176.22139218 95.57852568 -174.05635307 94.32933957 -171.89135742 93.08007812 C-166.45080583 89.94085777 -161.00949073 86.80297523 -155.56665039 83.66772461 C-145.1149001 77.64540711 -134.67403174 71.60607829 -124.26196289 65.51538086 C-115.62414115 60.46449966 -106.95368595 55.47278042 -98.26196289 50.51538086 C-75.37365685 37.45906486 -52.56483769 24.278474 -29.94946289 10.75366211 C-28.42820801 9.84704834 -28.42820801 9.84704834 -26.8762207 8.92211914 C-24.9202184 7.75624975 -22.96634939 6.58679195 -21.01489258 5.41333008 C-20.14251953 4.89399902 -19.27014648 4.37466797 -18.37133789 3.83959961 C-17.21456543 3.1467688 -17.21456543 3.1467688 -16.03442383 2.43994141 C-14.13696289 1.45288086 -14.13696289 1.45288086 -12.13696289 1.45288086 C-12.13696289 0.46288086 -12.13696289 -0.52711914 -12.13696289 -1.54711914 C-7.50109711 -3.09240774 -4.33031035 -2.13566633 0 0 Z M203.30053711 300.45288086 C202.16616211 301.11288086 201.03178711 301.77288086 199.86303711 302.45288086 C199.66764365 315.80476691 200.26785185 329.11661534 200.86303711 342.45288086 C204.40822595 341.05528181 204.40822595 341.05528181 207.86303711 339.45288086 C207.86303711 325.92288086 207.86303711 312.39288086 207.86303711 298.45288086 C206.12097403 298.45288086 204.77708619 299.59379776 203.30053711 300.45288086 Z " fill="#040302" transform="translate(441.136962890625,4.547119140625)"/>
<path d="M0 0 C1.88191686 0.9279493 3.76231325 1.85898248 5.64208984 2.79125977 C7.21305923 3.56845116 7.21305923 3.56845116 8.81576538 4.36134338 C13.90014395 6.97784361 18.75105445 9.95227777 23.625 12.9375 C44.48602398 26.48952532 44.48602398 26.48952532 66.62062073 37.35699463 C69.1283274 38.81288634 69.86843574 39.52047563 70.64507675 42.35117054 C70.89263144 45.54633642 70.90757657 48.6765429 70.85473633 51.88110352 C70.8622995 53.09606506 70.86986267 54.31102661 70.87765503 55.56280518 C70.89191822 58.89219032 70.87537877 62.21880975 70.84582353 65.5479176 C70.82273666 69.03128021 70.84074805 72.51441245 70.85490417 75.99778748 C70.87583396 82.5958119 70.86291984 89.19328711 70.83643216 95.79127496 C70.79030414 107.61125295 70.80607125 119.43127468 70.8274824 131.25129646 C70.833716 135.40023975 70.82662249 139.54889243 70.80826437 143.69779789 C70.79593291 146.88128434 70.79538104 150.06478416 70.79223633 153.24829102 C70.7833992 154.40006332 70.77456207 155.55183563 70.76545715 156.73851013 C70.76650452 157.78862274 70.76755188 158.83873535 70.76863098 159.92066956 C70.76328952 161.29141805 70.76328952 161.29141805 70.75784016 162.68985844 C70.84790569 165.27553635 70.84790569 165.27553635 73 168 C74.57618353 168.68135978 76.15639516 169.35434257 77.75146484 169.99023438 C82.84025161 172.27549193 87.54137103 175.37518512 92.3125 178.25 C94.7262853 179.69535849 97.14223241 181.13707812 99.55859375 182.578125 C100.173255 182.9450647 100.78791626 183.31200439 101.42120361 183.69006348 C107.86586855 187.5301106 114.36847391 191.26591474 120.875 195 C123.01724204 196.2377363 125.15918266 197.47599446 127.30078125 198.71484375 C130.68077339 200.66951792 134.07027615 202.60250861 137.48046875 204.50390625 C138.67494767 205.18928831 139.86901263 205.87539276 141.0625 206.5625 C142.50302734 207.36880859 142.50302734 207.36880859 143.97265625 208.19140625 C146.66611634 210.59424251 146.75808478 212.47988666 147 216 C148.32 216.33 149.64 216.66 151 217 C151 246.7 151 276.4 151 307 C159.91 311.95 159.91 311.95 169 317 C172.70061841 319.14921462 176.38978676 321.30513017 180.0625 323.5 C181.91260251 324.60052591 183.76286504 325.70078287 185.61328125 326.80078125 C186.51127441 327.33525879 187.40926758 327.86973633 188.33447266 328.42041016 C190.91841769 329.95165437 193.50989318 331.46903774 196.10546875 332.98046875 C196.89236084 333.439375 197.67925293 333.89828125 198.48999023 334.37109375 C199.95819712 335.22629215 201.42769193 336.07928463 202.89868164 336.9296875 C205.52502938 338.46278651 207.83964144 339.83964144 210 342 C210.24609566 344.12018013 210.24609566 344.12018013 210.24050903 346.7961731 C210.24463303 348.31484482 210.24463303 348.31484482 210.24884033 349.86419678 C210.2380545 351.53654388 210.2380545 351.53654388 210.22705078 353.24267578 C210.22734283 354.4133963 210.22763489 355.58411682 210.22793579 356.79031372 C210.22677919 360.00503797 210.21673198 363.21958929 210.20278788 366.43427896 C210.19030592 369.79218708 210.18911203 373.15009839 210.18673706 376.50802612 C210.18051481 382.86870017 210.16409398 389.22930566 210.14403808 395.58994949 C210.1217022 402.83047724 210.11069148 410.07100821 210.10064721 417.31156182 C210.07972836 432.20774611 210.04453797 447.10386621 210 462 C206.401349 460.59316552 203.11969197 459.02375219 199.7734375 457.0859375 C198.75588379 456.49820557 197.73833008 455.91047363 196.68994141 455.30493164 C195.59601074 454.6680542 194.50208008 454.03117676 193.375 453.375 C192.21411505 452.7022457 191.0531433 452.02964117 189.89208984 451.35717773 C180.6399499 445.98977928 171.44564372 440.52605489 162.25366211 435.05639648 C151.29900968 428.55317836 140.23793605 422.24432779 129.16549683 415.94491577 C119.82706096 410.62872585 110.53044483 405.23961228 101.2265625 399.86328125 C97.96475993 397.9796495 94.70138156 396.09877679 91.4375 394.21875 C79.99994935 387.62931961 68.58093705 381.01024239 57.18798828 374.34399414 C51.79993562 371.19750218 46.3982772 368.07640368 40.9765625 364.98828125 C40.3752652 364.6456575 39.7739679 364.30303375 39.15444946 363.95002747 C36.26923148 362.30686895 33.38230152 360.66689842 30.49267578 359.03149414 C28.32793249 357.80119459 26.18233912 356.53654681 24.05793381 355.23783493 C21.11923225 353.51520681 18.19283128 352.29002567 14.99834061 351.11520767 C9.12775324 348.70334577 4.00015556 346.04936492 0 341 C-3.52269929 331.56836782 -2.58019258 320.69867886 -2.32131243 310.77805305 C-2.23447847 306.602382 -2.26420125 302.42728191 -2.27935791 298.2509613 C-2.28981778 291.02560413 -2.2273818 283.8038741 -2.11460114 276.57942963 C-1.95165871 266.13491844 -1.89993449 255.69215094 -1.8748413 245.2465066 C-1.83112871 228.29794751 -1.6982012 211.35131972 -1.50878906 194.40380859 C-1.3250481 177.94654975 -1.18356111 161.48981651 -1.09863281 145.03173828 C-1.09337834 144.01632547 -1.08812387 143.00091266 -1.08271018 141.95472977 C-1.05660835 136.86041238 -1.03133445 131.76609128 -1.00647211 126.67176771 C-0.79932576 84.44650203 -0.44723332 42.22336179 0 0 Z " fill="#DAC573" transform="translate(597,386)"/>
<path d="M0 0 C0 15.84 0 31.68 0 48 C-6.6 51.63 -13.2 55.26 -20 59 C-22.31 60.32 -24.62 61.64 -27 63 C-27.86625 63.33 -28.7325 63.66 -29.625 64 C-32.11870956 64.91979567 -32.11870956 64.91979567 -34.28613281 66.85498047 C-37.02168379 69.0171387 -39.73866609 70.65179406 -42.796875 72.3203125 C-43.9113501 72.93261719 -45.0258252 73.54492188 -46.17407227 74.17578125 C-47.04915939 74.65265381 -47.04915939 74.65265381 -47.94192505 75.13916016 C-51.01289354 76.81358361 -54.07463761 78.50470671 -57.13671875 80.1953125 C-58.0416935 80.6944516 -58.0416935 80.6944516 -58.96495056 81.20367432 C-63.54036462 83.73241932 -68.06972445 86.32767674 -72.5625 89 C-79.48932438 93.11802089 -86.45485377 97.16477697 -93.4375 101.1875 C-94.53835938 101.82196045 -95.63921875 102.4564209 -96.7734375 103.11010742 C-101.32661113 105.73351801 -105.88061474 108.35548617 -110.43457031 110.97753906 C-112.7005475 112.28246734 -114.96633733 113.58772102 -117.23193359 114.89331055 C-119.43229768 116.16123769 -121.63313551 117.42834309 -123.83447266 118.69458008 C-128.65543739 121.47209215 -133.46457673 124.26426485 -138.234375 127.12890625 C-139.0173999 127.59772217 -139.8004248 128.06653809 -140.60717773 128.54956055 C-142.02209895 129.39995436 -143.43342428 130.25637685 -144.84008789 131.12036133 C-147.4653601 132.69785914 -149.66961799 133.93784419 -152.69921875 134.5078125 C-155.14437813 134.81150137 -155.14437813 134.81150137 -156.81665039 136.83203125 C-159.14693031 139.14589524 -161.38114627 140.56426391 -164.234375 142.1796875 C-165.27062012 142.77128662 -166.30686523 143.36288574 -167.37451172 143.97241211 C-168.48842285 144.60026611 -169.60233398 145.22812012 -170.75 145.875 C-171.92376549 146.54295376 -173.09709885 147.2116674 -174.27001953 147.88110352 C-176.07580055 148.91170627 -177.88179649 149.94190251 -179.68911743 150.96980286 C-185.44566426 154.24487198 -191.16187919 157.58733213 -196.875 160.9375 C-206.14500639 166.36065385 -215.45937859 171.70324673 -224.79046631 177.02023315 C-232.88707843 181.63484029 -240.95788801 186.29084886 -249 191 C-257.63497557 196.05630923 -266.30606319 201.04607122 -275 206 C-284.71753555 211.53774539 -294.40141245 217.12971934 -304.0559082 222.77685547 C-319.99335803 232.09608836 -335.999423 241.29653071 -352.03466797 250.44628906 C-367.65272572 259.36326563 -383.22084759 268.36665886 -398.75 277.4375 C-401.63614171 279.12168829 -404.52251515 280.80547753 -407.40917969 282.48876953 C-409.06134381 283.45248004 -410.71308183 284.41692166 -412.36425781 285.38232422 C-414.36535217 286.55090222 -416.36949366 287.71401569 -418.375 288.875 C-419.43460937 289.49117188 -420.49421875 290.10734375 -421.5859375 290.7421875 C-424 292 -424 292 -426 292 C-426 276.82 -426 261.64 -426 246 C-185.5 107.25 -185.5 107.25 -182.24951172 105.37475586 C-180.08442929 104.12564482 -177.91939018 102.87645871 -175.75439453 101.62719727 C-170.31384294 98.48797691 -164.87252784 95.35009437 -159.4296875 92.21484375 C-148.97793801 86.19252671 -138.53700452 80.15330663 -128.125 74.0625 C-118.85500223 68.64078822 -109.54168248 63.29795085 -100.21154785 57.98077393 C-91.08630776 52.77905629 -81.99611799 47.520123 -72.9309082 42.21435547 C-65.7017454 37.98513073 -58.44833329 33.79957062 -51.1875 29.625 C-36.71926702 21.2987145 -22.31234209 12.85410187 -8.03515625 4.20361328 C-7.12636719 3.65302246 -6.21757813 3.10243164 -5.28125 2.53515625 C-4.47751953 2.04539307 -3.67378906 1.55562988 -2.84570312 1.05102539 C-1 0 -1 0 0 0 Z " fill="#DAC473" transform="translate(746,189)"/>
<path d="M0 0 C2.2890625 1.08813477 2.2890625 1.08813477 4.625 2.44140625 C5.4910083 2.93930664 6.3570166 3.43720703 7.24926758 3.95019531 C8.15700928 4.48225586 9.06475098 5.01431641 10 5.5625 C10.93030029 6.10100586 11.86060059 6.63951172 12.8190918 7.19433594 C19.95495433 11.34192851 27.01912961 15.5964825 34 20 C31.52079295 22.77339447 28.79477299 24.40788797 25.56640625 26.23046875 C24.45700684 26.86025635 23.34760742 27.49004395 22.20458984 28.13891602 C20.99057624 28.82180641 19.77654583 29.50466691 18.5625 30.1875 C17.30129909 30.90174002 16.04039894 31.61651134 14.77978516 32.33178711 C12.15824638 33.81866981 9.53542555 35.30325207 6.91162109 36.78613281 C0.88841211 40.19231003 -5.11798789 43.62786766 -11.125 47.0625 C-12.29336319 47.73000228 -13.46173886 48.39748271 -14.63012695 49.06494141 C-25.69984323 55.39074173 -36.74301691 61.76226927 -47.78222656 68.14111328 C-53.18670645 71.26324605 -58.59347412 74.38141204 -64 77.5 C-66.1666775 78.74998122 -68.33334417 79.99998121 -70.5 81.25 C-109.5 103.75 -109.5 103.75 -112.75048828 105.62524414 C-114.91557071 106.87435518 -117.08060982 108.12354129 -119.24560547 109.37280273 C-124.68615706 112.51202309 -130.12747216 115.64990563 -135.5703125 118.78515625 C-146.02206279 124.80747375 -156.46293115 130.84680257 -166.875 136.9375 C-175.51282001 141.98838019 -184.1831964 146.98024353 -192.875 151.9375 C-210.25801694 161.85201231 -227.60067715 171.83456905 -244.875 181.9375 C-254.14505515 187.35911495 -263.4583165 192.70204857 -272.78845215 198.01922607 C-281.9128284 203.22045129 -291.00132774 208.48027878 -300.06689453 213.78344727 C-307.32211757 218.02617291 -314.59356072 222.23993243 -321.875 226.4375 C-322.95249512 227.05874756 -324.02999023 227.67999512 -325.14013672 228.32006836 C-330.64138027 231.49077018 -336.14439264 234.65838267 -341.6484375 237.82421875 C-342.74188477 238.45384521 -343.83533203 239.08347168 -344.96191406 239.73217773 C-347.13745059 240.98454889 -349.31387031 242.23538718 -351.49121094 243.48461914 C-356.78059174 246.52790735 -362.03601606 249.61304406 -367.2421875 252.796875 C-368.73057129 253.70058838 -368.73057129 253.70058838 -370.24902344 254.62255859 C-372.10601155 255.75409176 -373.95620193 256.89689277 -375.79785156 258.05322266 C-380.99906414 261.21361876 -384.89529743 262.73212622 -391 263 C-391.33 263.99 -391.66 264.98 -392 266 C-409.578125 255.74609375 -409.578125 255.74609375 -412.75976562 253.88232422 C-414.9891333 252.58723495 -417.2280495 251.30848871 -419.47460938 250.04345703 C-420.57095703 249.42196777 -421.66730469 248.80047852 -422.796875 248.16015625 C-423.79557617 247.60078369 -424.79427734 247.04141113 -425.82324219 246.46508789 C-426.54157227 245.98160889 -427.25990234 245.49812988 -428 245 C-428 244.34 -428 243.68 -428 243 C-427.36835938 242.64921387 -426.73671875 242.29842773 -426.0859375 241.93701172 C-413.39137915 234.87863607 -400.75808557 227.73599656 -388.22753906 220.38964844 C-380.59590259 215.91951323 -372.93211797 211.50763191 -365.25 207.125 C-364.66634674 206.79196869 -364.08269348 206.45893738 -363.48135376 206.11581421 C-360.51240496 204.42200953 -357.54297977 202.72904238 -354.57324219 201.03662109 C-331.36656681 187.81108151 -308.18215734 174.54753617 -285.125 161.0625 C-275.85494485 155.64088505 -266.5416835 150.29795143 -257.21154785 144.98077393 C-248.0871716 139.77954871 -238.99867226 134.51972122 -229.93310547 129.21655273 C-219.40915375 123.06233258 -208.84619863 116.97630004 -198.28222656 110.89111328 C-192.85340058 107.76319852 -187.42680719 104.63141552 -182 101.5 C-179.83334417 100.24998121 -177.6666775 98.99998122 -175.5 97.75 C-174.4275 97.13125 -173.355 96.5125 -172.25 95.875 C-58.5 30.25 -58.5 30.25 -55.24560547 28.37255859 C-53.0934787 27.13088473 -50.94145927 25.88902478 -48.78955078 24.64697266 C-43.74969023 21.73833177 -38.70882508 18.83148102 -33.66400146 15.93145752 C-31.88250422 14.90724335 -30.10135678 13.88242349 -28.3203125 12.85742188 C-26.08923375 11.57366625 -23.85750427 10.29104061 -21.625 9.00976562 C-20.61179687 8.42646484 -19.59859375 7.84316406 -18.5546875 7.2421875 C-17.12141113 6.41992676 -17.12141113 6.41992676 -15.65917969 5.58105469 C-12.61662399 3.77205811 -9.69789422 1.81565572 -6.82080078 -0.24560547 C-4.20637801 -1.32881362 -2.67756974 -0.8119329 0 0 Z " fill="#DAC472" transform="translate(615,113)"/>
<path d="M0 0 C2.2890625 1.08813477 2.2890625 1.08813477 4.625 2.44140625 C5.4910083 2.93930664 6.3570166 3.43720703 7.24926758 3.95019531 C8.15700928 4.48225586 9.06475098 5.01431641 10 5.5625 C10.93030029 6.10100586 11.86060059 6.63951172 12.8190918 7.19433594 C19.95495433 11.34192851 27.01912961 15.5964825 34 20 C31.52079295 22.77339447 28.79477299 24.40788797 25.56640625 26.23046875 C24.45700684 26.86025635 23.34760742 27.49004395 22.20458984 28.13891602 C20.99057624 28.82180641 19.77654583 29.50466691 18.5625 30.1875 C17.30129909 30.90174002 16.04039894 31.61651134 14.77978516 32.33178711 C12.15824638 33.81866981 9.53542555 35.30325207 6.91162109 36.78613281 C0.88841211 40.19231003 -5.11798789 43.62786766 -11.125 47.0625 C-12.29336319 47.73000228 -13.46173886 48.39748271 -14.63012695 49.06494141 C-25.69984323 55.39074173 -36.74301691 61.76226927 -47.78222656 68.14111328 C-53.18670645 71.26324605 -58.59347412 74.38141204 -64 77.5 C-66.1666775 78.74998122 -68.33334417 79.99998121 -70.5 81.25 C-109.5 103.75 -109.5 103.75 -112.75048828 105.62524414 C-114.91557071 106.87435518 -117.08060982 108.12354129 -119.24560547 109.37280273 C-124.68615706 112.51202309 -130.12747216 115.64990563 -135.5703125 118.78515625 C-146.02206279 124.80747375 -156.46293115 130.84680257 -166.875 136.9375 C-175.51282001 141.98838019 -184.1831964 146.98024353 -192.875 151.9375 C-210.25801694 161.85201231 -227.60067715 171.83456905 -244.875 181.9375 C-254.14505515 187.35911495 -263.4583165 192.70204857 -272.78845215 198.01922607 C-281.9128284 203.22045129 -291.00132774 208.48027878 -300.06689453 213.78344727 C-307.32211726 218.02617273 -314.59353319 222.23998054 -321.875 226.4375 C-323.48580444 227.3661084 -323.48580444 227.3661084 -325.12915039 228.31347656 C-329.55350496 230.86322796 -333.97852587 233.41182081 -338.40380859 235.95996094 C-359.75371827 247.96327253 -359.75371827 247.96327253 -380.6484375 260.72265625 C-383.17139413 262.09309947 -384.96787337 262.47521443 -387.8125 262.6875 C-388.99779297 262.78611328 -388.99779297 262.78611328 -390.20703125 262.88671875 C-390.79871094 262.92410156 -391.39039063 262.96148437 -392 263 C-392 263.66 -392 264.32 -392 265 C-395.90630666 263.54904763 -399.3984872 261.72031599 -403 259.62890625 C-404.134375 258.97212891 -405.26875 258.31535156 -406.4375 257.63867188 C-407.62502495 256.9466574 -408.81252474 256.25459973 -410 255.5625 C-411.18732732 254.87405107 -412.37482583 254.18589727 -413.5625 253.49804688 C-416.71176955 251.67111266 -419.85928295 249.84159742 -423 248 C-423.94875 247.47398193 -424.8975 246.94796387 -425.875 246.40600586 C-426.57625 245.94202393 -427.2775 245.47804199 -428 245 C-428 244.34 -428 243.68 -428 243 C-427.02897339 242.45811035 -427.02897339 242.45811035 -426.03833008 241.90527344 C-403.69425231 229.42994494 -381.49062125 216.72254245 -359.33056641 203.92333984 C-353.88809106 200.78041206 -348.44397523 197.64032882 -343 194.5 C-340.8333252 193.2500141 -338.66665854 192.00001408 -336.5 190.75 C-297.5 168.25 -297.5 168.25 -294.24951172 166.37475586 C-292.08442929 165.12564482 -289.91939018 163.87645871 -287.75439453 162.62719727 C-282.31384294 159.48797691 -276.87252784 156.35009437 -271.4296875 153.21484375 C-260.97793801 147.19252671 -250.53700452 141.15330663 -240.125 135.0625 C-230.85436069 129.64041301 -221.54063301 124.29675988 -212.20953369 118.97976685 C-204.11292157 114.36515971 -196.04211199 109.70915114 -188 105 C-179.36502443 99.94369077 -170.69393681 94.95392878 -162 90 C-152.27875494 84.46014067 -142.59105132 78.86625068 -132.93310547 73.21655273 C-122.40915375 67.06233258 -111.84619863 60.97630004 -101.28222656 54.89111328 C-95.85340058 51.76319852 -90.42680719 48.63141552 -85 45.5 C-82.83334417 44.24998121 -80.6666775 42.99998122 -78.5 41.75 C-77.4275 41.13125 -76.355 40.5125 -75.25 39.875 C-65.5 34.25 -65.5 34.25 -62.24731445 32.37353516 C-60.08950197 31.12858718 -57.93178647 29.8834711 -55.77416992 28.63818359 C-50.22283408 25.43447349 -44.66963459 22.2340637 -39.11328125 19.0390625 C-37.41691528 18.06259766 -37.41691528 18.06259766 -35.6862793 17.06640625 C-33.46600372 15.78877173 -31.24483529 14.51268736 -29.02270508 13.23828125 C-24.37556451 10.56498582 -19.75088226 7.87572828 -15.2109375 5.0234375 C-14.17005981 4.3735083 -14.17005981 4.3735083 -13.1081543 3.71044922 C-11.34874093 2.60161847 -9.60144547 1.47362004 -7.85546875 0.34375 C-4.47556545 -1.24679273 -3.51401963 -0.9914708 0 0 Z " fill="#DAC473" transform="translate(528,65)"/>
<path d="M0 0 C1.00691895 0.59135742 2.01383789 1.18271484 3.05126953 1.79199219 C4.72769531 2.76845703 4.72769531 2.76845703 6.43798828 3.76464844 C7.60342074 4.45594026 8.76878492 5.14734723 9.93408203 5.83886719 C11.09115239 6.51547291 12.24870113 7.19126126 13.40673828 7.86621094 C19.35110006 11.34800627 25.24070006 14.90055626 31.05908203 18.58886719 C28.57987498 21.36226165 25.85385502 22.99675516 22.62548828 24.81933594 C21.51608887 25.44912354 20.40668945 26.07891113 19.26367188 26.7277832 C18.04965827 27.41067359 16.83562786 28.0935341 15.62158203 28.77636719 C14.36038112 29.49060721 13.09948097 30.20537853 11.83886719 30.9206543 C9.21732841 32.407537 6.59450758 33.89211926 3.97070312 35.375 C-2.05250585 38.78117722 -8.05890585 42.21673485 -14.06591797 45.65136719 C-15.23428116 46.31886947 -16.40265683 46.9863499 -17.57104492 47.65380859 C-28.6407612 53.97960892 -39.68393488 60.35113646 -50.72314453 66.72998047 C-56.12762442 69.85211324 -61.53439209 72.97027923 -66.94091797 76.08886719 C-69.10759547 77.3388484 -71.27426214 78.5888484 -73.44091797 79.83886719 C-112.44091796 102.33886719 -112.44091796 102.33886719 -115.69140625 104.21411133 C-117.85648868 105.46322237 -120.02152779 106.71240848 -122.18652344 107.96166992 C-127.62707503 111.10089028 -133.06839013 114.23877282 -138.51123047 117.37402344 C-148.96298076 123.39634093 -159.40384912 129.43566976 -169.81591797 135.52636719 C-178.45373798 140.57724737 -187.12411437 145.56911072 -195.81591797 150.52636719 C-213.19893491 160.44087949 -230.54159512 170.42343624 -247.81591797 180.52636719 C-257.08597312 185.94798214 -266.39923447 191.29091576 -275.72937012 196.60809326 C-284.85374637 201.80931848 -293.94224571 207.06914596 -303.0078125 212.37231445 C-310.26303554 216.6150401 -317.53447869 220.82879961 -324.81591797 225.02636719 C-325.89341309 225.64761475 -326.9709082 226.2688623 -328.08105469 226.90893555 C-333.58229824 230.07963737 -339.08531061 233.24724986 -344.58935547 236.41308594 C-345.68280273 237.0427124 -346.77625 237.67233887 -347.90283203 238.32104492 C-350.07836856 239.57341608 -352.25478828 240.82425437 -354.43212891 242.07348633 C-359.72150971 245.11677454 -364.97693403 248.20191125 -370.18310547 251.38574219 C-371.67148926 252.28945557 -371.67148926 252.28945557 -373.18994141 253.21142578 C-375.04692952 254.34295895 -376.8971199 255.48575996 -378.73876953 256.64208984 C-383.93998211 259.80248595 -387.8362154 261.3209934 -393.94091797 261.58886719 C-394.27091797 262.57886719 -394.60091797 263.56886719 -394.94091797 264.58886719 C-395.97087891 263.98300781 -397.00083984 263.37714844 -398.06201172 262.75292969 C-398.74263672 262.35275635 -399.42326172 261.95258301 -400.12451172 261.5402832 C-401.63952008 260.64870603 -403.15383274 259.75594573 -404.66748047 258.86206055 C-408.7028452 256.48127873 -412.74800212 254.12166895 -416.81982422 251.80371094 C-417.98203491 251.13637939 -417.98203491 251.13637939 -419.16772461 250.45556641 C-420.66407018 249.59706807 -422.16448796 248.74562256 -423.66918945 247.90185547 C-428.82848556 244.92616441 -428.82848556 244.92616441 -429.94091797 241.58886719 C-428.97412109 241.09257812 -428.00732422 240.59628906 -427.01123047 240.08496094 C-425.69593561 239.39912862 -424.3808424 238.71290946 -423.06591797 238.02636719 C-422.43427734 237.70345703 -421.80263672 237.38054687 -421.15185547 237.04785156 C-417.24670816 234.99764923 -413.65236022 232.72970928 -410.06591797 230.15917969 C-405.18098283 226.67706663 -400.11758396 223.81859751 -394.81591797 221.02636719 C-386.85111287 216.75543394 -378.98487806 212.35175325 -371.19091797 207.77636719 C-370.19801758 207.1935498 -369.20511719 206.61073242 -368.18212891 206.01025391 C-366.14101245 204.81169514 -364.09999784 203.6129629 -362.05908203 202.4140625 C-356.74223518 199.30188374 -351.40415936 196.22665842 -346.06591797 193.15136719 C-344.4460498 192.21780396 -344.4460498 192.21780396 -342.79345703 191.26538086 C-340.60345248 190.00340784 -338.41334813 188.741608 -336.22314453 187.47998047 C-330.79431855 184.3520657 -325.36772516 181.22028271 -319.94091797 178.08886719 C-317.77426214 176.8388484 -315.60759547 175.5888484 -313.44091797 174.33886719 C-311.83216797 173.41074219 -311.83216797 173.41074219 -310.19091797 172.46386719 C-300.44091797 166.83886719 -300.44091797 166.83886719 -297.19042969 164.96362305 C-295.02534726 163.71451201 -292.86030815 162.46532589 -290.6953125 161.21606445 C-285.25476091 158.07684409 -279.81344581 154.93896156 -274.37060547 151.80371094 C-263.91885597 145.7813939 -253.47792249 139.74217382 -243.06591797 133.65136719 C-233.79527866 128.2292802 -224.48155098 122.88562707 -215.15045166 117.56863403 C-207.05383954 112.9540269 -198.98302996 108.29801833 -190.94091797 103.58886719 C-182.3059424 98.53255796 -173.63485478 93.54279597 -164.94091797 88.58886719 C-155.21967291 83.04900786 -145.53196928 77.45511787 -135.87402344 71.80541992 C-125.35007172 65.65119977 -114.78711659 59.56516723 -104.22314453 53.47998047 C-97.71362208 49.72940319 -91.20697017 45.97384729 -84.70019531 42.21850586 C-79.23557134 39.06501557 -73.76943895 35.91419678 -68.30029297 32.76855469 C-66.09708132 31.50047606 -63.8939556 30.23224812 -61.69091797 28.96386719 C-60.62550781 28.3508374 -59.56009766 27.73780762 -58.46240234 27.10620117 C-53.11692388 24.02356019 -47.78911838 20.91488356 -42.48779297 17.75683594 C-41.4684668 17.14984863 -40.44914062 16.54286133 -39.39892578 15.91748047 C-37.46872253 14.76502996 -35.54086946 13.6086314 -33.61572266 12.44775391 C-32.33810059 11.68422607 -32.33810059 11.68422607 -31.03466797 10.90527344 C-30.28894531 10.45611572 -29.54322266 10.00695801 -28.77490234 9.54418945 C-26.94091797 8.58886719 -26.94091797 8.58886719 -24.94091797 8.58886719 C-24.94091797 7.92886719 -24.94091797 7.26886719 -24.94091797 6.58886719 C-22.41009694 5.04692991 -19.86886519 3.53086235 -17.31591797 2.02636719 C-16.60306641 1.58873047 -15.89021484 1.15109375 -15.15576172 0.70019531 C-14.45322266 0.29091797 -13.75068359 -0.11835938 -13.02685547 -0.54003906 C-12.38796387 -0.92232666 -11.74907227 -1.30461426 -11.09082031 -1.69848633 C-7.01081748 -3.0509197 -3.75739977 -1.80290309 0 0 Z " fill="#DAC473" transform="translate(441.94091796875,15.4111328125)"/>
<path d="M0 0 C2.2890625 1.08813477 2.2890625 1.08813477 4.625 2.44140625 C5.4910083 2.93930664 6.3570166 3.43720703 7.24926758 3.95019531 C8.15700928 4.48225586 9.06475098 5.01431641 10 5.5625 C10.93030029 6.10100586 11.86060059 6.63951172 12.8190918 7.19433594 C19.95495433 11.34192851 27.01912961 15.5964825 34 20 C31.52079295 22.77339447 28.79477299 24.40788797 25.56640625 26.23046875 C24.45700684 26.86025635 23.34760742 27.49004395 22.20458984 28.13891602 C20.99057624 28.82180641 19.77654583 29.50466691 18.5625 30.1875 C17.30129909 30.90174002 16.04039894 31.61651134 14.77978516 32.33178711 C12.15824638 33.81866981 9.53542555 35.30325207 6.91162109 36.78613281 C0.88841211 40.19231003 -5.11798789 43.62786766 -11.125 47.0625 C-12.29336319 47.73000228 -13.46173886 48.39748271 -14.63012695 49.06494141 C-25.69984323 55.39074173 -36.74301691 61.76226927 -47.78222656 68.14111328 C-53.18670645 71.26324605 -58.59347412 74.38141204 -64 77.5 C-66.1666775 78.74998122 -68.33334417 79.99998121 -70.5 81.25 C-109.5 103.75 -109.5 103.75 -112.75048828 105.62524414 C-114.91557071 106.87435518 -117.08060982 108.12354129 -119.24560547 109.37280273 C-124.68615706 112.51202309 -130.12747216 115.64990563 -135.5703125 118.78515625 C-146.02206279 124.80747375 -156.46293115 130.84680257 -166.875 136.9375 C-175.51282001 141.98838019 -184.1831964 146.98024353 -192.875 151.9375 C-210.25801694 161.85201231 -227.60067715 171.83456905 -244.875 181.9375 C-254.14505515 187.35911495 -263.4583165 192.70204857 -272.78845215 198.01922607 C-281.9128284 203.22045129 -291.00132774 208.48027878 -300.06689453 213.78344727 C-307.32211726 218.02617273 -314.59353319 222.23998054 -321.875 226.4375 C-323.48580444 227.3661084 -323.48580444 227.3661084 -325.12915039 228.31347656 C-329.55350496 230.86322796 -333.97852587 233.41182081 -338.40380859 235.95996094 C-359.75371827 247.96327253 -359.75371827 247.96327253 -380.6484375 260.72265625 C-383.17139413 262.09309947 -384.96787337 262.47521443 -387.8125 262.6875 C-388.99779297 262.78611328 -388.99779297 262.78611328 -390.20703125 262.88671875 C-390.79871094 262.92410156 -391.39039063 262.96148437 -392 263 C-392 263.66 -392 264.32 -392 265 C-395.90630666 263.54904763 -399.3984872 261.72031599 -403 259.62890625 C-404.134375 258.97212891 -405.26875 258.31535156 -406.4375 257.63867188 C-407.62502495 256.9466574 -408.81252474 256.25459973 -410 255.5625 C-411.18732732 254.87405107 -412.37482583 254.18589727 -413.5625 253.49804688 C-416.71176955 251.67111266 -419.85928295 249.84159742 -423 248 C-423.94875 247.47398193 -424.8975 246.94796387 -425.875 246.40600586 C-426.57625 245.94202393 -427.2775 245.47804199 -428 245 C-428 244.34 -428 243.68 -428 243 C-427.36835938 242.64921387 -426.73671875 242.29842773 -426.0859375 241.93701172 C-413.32434275 234.84136277 -400.63208088 227.656394 -388.04077148 220.26220703 C-380.76424279 216.00053808 -373.42954759 211.85296113 -366.0625 207.75 C-358.51605232 203.5460192 -351.00950327 199.29380724 -343.58007812 194.88647461 C-337.26944664 191.14536503 -330.91900153 187.47505342 -324.5625 183.8125 C-323.45527588 183.17449463 -322.34805176 182.53648926 -321.20727539 181.87915039 C-318.93662932 180.57110523 -316.66587642 179.26324552 -314.39501953 177.95556641 C-308.9283002 174.80667946 -303.46425113 171.65316736 -298 168.5 C-295.83334689 167.2499765 -293.66668021 165.99997653 -291.5 164.75 C-290.4275 164.13125 -289.355 163.5125 -288.25 162.875 C-226.5 127.25 -226.5 127.25 -223.24951172 125.37475586 C-221.08442929 124.12564482 -218.91939018 122.87645871 -216.75439453 121.62719727 C-211.31384294 118.48797691 -205.87252784 115.35009437 -200.4296875 112.21484375 C-189.97793801 106.19252671 -179.53700452 100.15330663 -169.125 94.0625 C-159.85436069 88.64041301 -150.54063301 83.29675988 -141.20953369 77.97976685 C-133.11292157 73.36515971 -125.04211199 68.70915114 -117 64 C-108.36502443 58.94369077 -99.69393681 53.95392878 -91 49 C-81.28160148 43.46176283 -71.59594907 37.8708272 -61.94189453 32.22094727 C-53.52344138 27.29632683 -45.07826015 22.41897703 -36.6159668 17.57006836 C-31.25046892 14.48755393 -25.92127662 11.36135231 -20.64453125 8.12890625 C-19.63986816 7.51797119 -18.63520508 6.90703613 -17.60009766 6.27758789 C-15.7054083 5.12123976 -13.81788717 3.95303531 -11.93896484 2.77124023 C-11.09672363 2.25891846 -10.25448242 1.74659668 -9.38671875 1.21875 C-8.65670654 0.76435547 -7.92669434 0.30996094 -7.17456055 -0.15820312 C-4.33127063 -1.25887267 -2.88687756 -0.90829727 0 0 Z " fill="#DAC473" transform="translate(704,164)"/>
<path d="M0 0 C0 13.53 0 27.06 0 41 C-4.95 43.784375 -4.95 43.784375 -10 46.625 C-19.26942546 51.85344714 -28.47971427 57.1756669 -37.66210938 62.55517578 C-45.41187184 67.08916061 -53.19880102 71.55543006 -61 76 C-70.72134099 81.53968899 -80.40895092 87.13375063 -90.06689453 92.78344727 C-100.59084625 98.93766742 -111.15380137 105.02369996 -121.71777344 111.10888672 C-127.14659942 114.23680148 -132.57319281 117.36858448 -138 120.5 C-140.16665583 121.75001879 -142.3333225 123.00001878 -144.5 124.25 C-145.5725 124.86875 -146.645 125.4875 -147.75 126.125 C-261.5 191.75 -261.5 191.75 -264.75048828 193.62524414 C-266.91557071 194.87435518 -269.08060982 196.12354129 -271.24560547 197.37280273 C-276.68615706 200.51202309 -282.12747216 203.64990563 -287.5703125 206.78515625 C-299.05534843 213.40272457 -310.52483572 220.04540655 -321.96801758 226.73510742 C-328.15381577 230.34851325 -334.35394063 233.93590605 -340.56420898 237.50708008 C-351.06134523 243.54342652 -361.52057984 249.63902935 -371.9375 255.8125 C-372.52657135 256.1613324 -373.1156427 256.51016479 -373.7225647 256.86956787 C-380.43439965 260.81777472 -380.43439965 260.81777472 -387 265 C-388.99117408 265.69258229 -390.9921136 266.35747635 -393 267 C-394.67163195 267.65411685 -396.34015202 268.31653318 -398 269 C-398 272.3 -398 275.6 -398 279 C-398.7216333 279.10884521 -399.4432666 279.21769043 -400.18676758 279.32983398 C-403.2160121 280.05145823 -405.33727289 281.14033344 -408.01171875 282.72265625 C-408.93404297 283.26083984 -409.85636719 283.79902344 -410.80664062 284.35351562 C-411.75732422 284.91748047 -412.70800781 285.48144531 -413.6875 286.0625 C-415.58499967 287.18219003 -417.48463491 288.29827145 -419.38671875 289.41015625 C-420.22420654 289.90652588 -421.06169434 290.40289551 -421.92456055 290.91430664 C-424 292 -424 292 -426 292 C-426 276.82 -426 261.64 -426 246 C-185.5 107.25 -185.5 107.25 -182.24951172 105.37475586 C-180.08442929 104.12564482 -177.91939018 102.87645871 -175.75439453 101.62719727 C-170.31384294 98.48797691 -164.87252784 95.35009437 -159.4296875 92.21484375 C-148.97793801 86.19252671 -138.53700452 80.15330663 -128.125 74.0625 C-118.85500223 68.64078822 -109.54168248 63.29795085 -100.21154785 57.98077393 C-91.08630776 52.77905629 -81.99611799 47.520123 -72.9309082 42.21435547 C-65.7017454 37.98513073 -58.44833329 33.79957062 -51.1875 29.625 C-36.71926702 21.2987145 -22.31234209 12.85410187 -8.03515625 4.20361328 C-7.12636719 3.65302246 -6.21757813 3.10243164 -5.28125 2.53515625 C-4.47751953 2.04539307 -3.67378906 1.55562988 -2.84570312 1.05102539 C-1 0 -1 0 0 0 Z " fill="#D9C472" transform="translate(657,138)"/>
<path d="M0 0 C0 13.53 0 27.06 0 41 C-4.95 43.784375 -4.95 43.784375 -10 46.625 C-19.26942546 51.85344714 -28.47971427 57.1756669 -37.66210938 62.55517578 C-45.41187184 67.08916061 -53.19880102 71.55543006 -61 76 C-70.72134099 81.53968899 -80.40895092 87.13375063 -90.06689453 92.78344727 C-100.59084625 98.93766742 -111.15380137 105.02369996 -121.71777344 111.10888672 C-127.14659942 114.23680148 -132.57319281 117.36858448 -138 120.5 C-140.16665583 121.75001879 -142.3333225 123.00001878 -144.5 124.25 C-145.5725 124.86875 -146.645 125.4875 -147.75 126.125 C-261.5 191.75 -261.5 191.75 -264.75048828 193.62524414 C-266.91557071 194.87435518 -269.08060982 196.12354129 -271.24560547 197.37280273 C-276.68615706 200.51202309 -282.12747216 203.64990563 -287.5703125 206.78515625 C-299.05534843 213.40272457 -310.52483572 220.04540655 -321.96801758 226.73510742 C-328.15381577 230.34851325 -334.35394063 233.93590605 -340.56420898 237.50708008 C-351.06134523 243.54342652 -361.52057984 249.63902935 -371.9375 255.8125 C-372.52657135 256.1613324 -373.1156427 256.51016479 -373.7225647 256.86956787 C-380.43439965 260.81777472 -380.43439965 260.81777472 -387 265 C-388.99117408 265.69258229 -390.9921136 266.35747635 -393 267 C-394.67163195 267.65411685 -396.34015202 268.31653318 -398 269 C-398 272.3 -398 275.6 -398 279 C-398.7216333 279.10884521 -399.4432666 279.21769043 -400.18676758 279.32983398 C-403.2160121 280.05145823 -405.33727289 281.14033344 -408.01171875 282.72265625 C-408.93404297 283.26083984 -409.85636719 283.79902344 -410.80664062 284.35351562 C-411.75732422 284.91748047 -412.70800781 285.48144531 -413.6875 286.0625 C-415.58499967 287.18219003 -417.48463491 288.29827145 -419.38671875 289.41015625 C-420.22420654 289.90652588 -421.06169434 290.40289551 -421.92456055 290.91430664 C-424 292 -424 292 -426 292 C-426 276.82 -426 261.64 -426 246 C-185.5 107.25 -185.5 107.25 -182.24951172 105.37475586 C-180.08442929 104.12564482 -177.91939018 102.87645871 -175.75439453 101.62719727 C-170.31384294 98.48797691 -164.87252784 95.35009437 -159.4296875 92.21484375 C-148.97793801 86.19252671 -138.53700452 80.15330663 -128.125 74.0625 C-118.85500223 68.64078822 -109.54168248 63.29795085 -100.21154785 57.98077393 C-91.08630776 52.77905629 -81.99611799 47.520123 -72.9309082 42.21435547 C-65.7017454 37.98513073 -58.44833329 33.79957062 -51.1875 29.625 C-36.71926702 21.2987145 -22.31234209 12.85410187 -8.03515625 4.20361328 C-7.12636719 3.65302246 -6.21757812 3.10243164 -5.28125 2.53515625 C-4.47751953 2.04539307 -3.67378906 1.55562988 -2.84570312 1.05102539 C-1 0 -1 0 0 0 Z " fill="#D9C472" transform="translate(481,39)"/>
<path d="M0 0 C0 12.21 0 24.42 0 37 C-3.63 39.02125 -7.26 41.0425 -11 43.125 C-20.64938622 48.51594489 -30.22941339 54.0138084 -39.76367188 59.60595703 C-47.47795124 64.12600344 -55.23128108 68.57454531 -63 73 C-72.72142984 78.53953103 -82.40895304 84.13375187 -92.06689453 89.78344727 C-102.59084625 95.93766742 -113.15380137 102.02369996 -123.71777344 108.10888672 C-129.14659942 111.23680148 -134.57319281 114.36858448 -140 117.5 C-142.16665583 118.75001879 -144.3333225 120.00001878 -146.5 121.25 C-147.5725 121.86875 -148.645 122.4875 -149.75 123.125 C-263.5 188.75 -263.5 188.75 -266.75048828 190.62524414 C-268.91557071 191.87435518 -271.08060982 193.12354129 -273.24560547 194.37280273 C-278.68615706 197.51202309 -284.12747216 200.64990563 -289.5703125 203.78515625 C-301.05534843 210.40272457 -312.52483572 217.04540655 -323.96801758 223.73510742 C-330.15331037 227.34821801 -336.35287129 230.9354149 -342.56274414 234.50610352 C-352.33686139 240.12708372 -362.08893673 245.78353376 -371.79623413 251.519104 C-373.50692401 252.52966929 -375.21889511 253.53806474 -376.9309082 254.54638672 C-388.13560481 260.43945523 -388.13560481 260.43945523 -397 269 C-397.99 269 -398.98 269 -400 269 C-399.81074951 269.8516272 -399.81074951 269.8516272 -399.61767578 270.72045898 C-399.27088802 273.447213 -399.26269574 275.338809 -400 278 C-403.20389007 281.09524445 -406.94855188 283.00683169 -410.875 285.0625 C-411.90753906 285.64193359 -412.94007813 286.22136719 -414.00390625 286.81835938 C-421.55751919 291 -421.55751919 291 -424 291 C-424.02505615 290.13197754 -424.0501123 289.26395508 -424.07592773 288.36962891 C-424.17099484 285.15286837 -424.27023203 281.93627151 -424.37231445 278.71972656 C-424.41565846 277.3268741 -424.45733396 275.93396869 -424.49731445 274.54101562 C-424.55502932 272.54023349 -424.61921869 270.53964141 -424.68359375 268.5390625 C-424.72025146 267.33459473 -424.75690918 266.13012695 -424.79467773 264.88916016 C-424.81052987 262.06003633 -424.81052987 262.06003633 -426 260 C-426.07116382 257.62597499 -426.08409085 255.24999323 -426.0625 252.875 C-426.05347656 251.59367188 -426.04445313 250.31234375 -426.03515625 248.9921875 C-426.02355469 248.00476563 -426.01195312 247.01734375 -426 246 C-185.5 107.25 -185.5 107.25 -182.24951172 105.37475586 C-180.08442929 104.12564482 -177.91939018 102.87645871 -175.75439453 101.62719727 C-170.31384294 98.48797691 -164.87252784 95.35009437 -159.4296875 92.21484375 C-148.97793801 86.19252671 -138.53700452 80.15330663 -128.125 74.0625 C-118.85500223 68.64078822 -109.54168248 63.29795085 -100.21154785 57.98077393 C-91.08630776 52.77905629 -81.99611799 47.520123 -72.9309082 42.21435547 C-65.7017454 37.98513073 -58.44833329 33.79957062 -51.1875 29.625 C-36.71926702 21.2987145 -22.31234209 12.85410187 -8.03515625 4.20361328 C-7.12636719 3.65302246 -6.21757813 3.10243164 -5.28125 2.53515625 C-4.47751953 2.04539307 -3.67378906 1.55562988 -2.84570312 1.05102539 C-1 0 -1 0 0 0 Z " fill="#D9C472" transform="translate(570,90)"/>
<path d="M0 0 C4.23394248 1.36265526 7.88363956 2.90876573 11.73046875 5.15234375 C12.78041016 5.76400391 13.83035156 6.37566406 14.91210938 7.00585938 C15.99298828 7.64330078 17.07386719 8.28074219 18.1875 8.9375 C19.27998047 9.57107422 20.37246094 10.20464844 21.49804688 10.85742188 C29.67686675 15.64981725 29.67686675 15.64981725 31.45825195 17.58032227 C33.44404254 19.60356645 33.44404254 19.60356645 39 21 C39 141.45 39 261.9 39 386 C34.38 383.36 29.76 380.72 25 378 C17.33840767 373.69522122 17.33840767 373.69522122 9.66796875 369.40625 C8.69988281 368.86226562 7.73179688 368.31828125 6.734375 367.7578125 C5.87038086 367.2745752 5.00638672 366.79133789 4.11621094 366.29345703 C2 365 2 365 0 363 C-0.24839699 360.42403638 -0.24839699 360.42403638 -0.24609566 357.08479881 C-0.25007775 355.81634412 -0.25405985 354.54788943 -0.25816262 353.24099672 C-0.25245578 351.82019948 -0.24656457 350.39940297 -0.24050903 348.97860718 C-0.24138042 347.47957779 -0.24313017 345.9805487 -0.24568737 344.48152125 C-0.25017802 340.34723002 -0.24213376 336.21304161 -0.23213124 332.07876348 C-0.22352366 327.62613258 -0.22641499 323.17350785 -0.22793579 318.72087097 C-0.22898635 311.00137321 -0.22269191 303.28190917 -0.21146011 295.56241989 C-0.19523122 284.40123032 -0.18999979 273.24005711 -0.18748413 262.07885702 C-0.18310292 243.97215845 -0.16978228 225.86547786 -0.15087891 207.75878906 C-0.13253112 190.16601654 -0.11836923 172.5732489 -0.10986328 154.98046875 C-0.10933783 153.8967148 -0.10881239 152.81296085 -0.10827102 151.69636588 C-0.10566101 146.25968931 -0.10313358 140.82301271 -0.10064721 135.38633609 C-0.07990144 90.25754493 -0.04466434 45.12877339 0 0 Z " fill="#D9C472" transform="translate(99,374)"/>
<path d="M0 0 C0.54954647 51.10082155 0.97233635 102.20134413 1.22556791 153.30454031 C1.25558423 159.34007598 1.28664802 165.37560583 1.31835938 171.41113281 C1.32780255 173.21345092 1.32780255 173.21345092 1.3374365 175.0521795 C1.44182007 194.49817218 1.63101776 213.94245901 1.85166711 233.38744028 C2.07624866 253.3456804 2.20943926 273.30302835 2.25812387 293.26248014 C2.29102967 305.57596607 2.39485926 317.88463096 2.58999521 330.19663213 C2.71704603 338.64409001 2.75516628 347.08906307 2.72403306 355.53740658 C2.7086792 360.41118476 2.73185857 365.27655805 2.8609314 370.14883232 C3.57731202 398.5733151 3.57731202 398.5733151 -2.34116936 405.89704084 C-7.97919405 410.628949 -14.15500785 413.4574027 -21.05122662 415.89660907 C-25.29609956 417.48498284 -29.12393869 419.67032725 -33 422 C-33.54954432 370.77178263 -33.97233528 319.54386349 -34.22556791 268.31327742 C-34.25558423 262.26272049 -34.28664803 256.21216936 -34.31835938 250.16162109 C-34.32465483 248.95708507 -34.33095028 247.75254905 -34.3374365 246.51151194 C-34.44182057 227.01702257 -34.63101856 207.52423479 -34.85166711 188.03075431 C-35.07624722 168.02279338 -35.20943896 148.0157224 -35.25812387 128.00655282 C-35.29102994 115.66236269 -35.39486124 103.32298152 -35.58999521 90.98027243 C-35.7170442 82.51179108 -35.75516665 74.04578839 -35.72403306 65.57642363 C-35.70867897 60.69050209 -35.73186199 55.81296454 -35.8609314 50.92854309 C-36.57849305 22.39802894 -36.57849305 22.39802894 -30.62660408 15.08305597 C-24.9425628 10.33425624 -18.72531164 7.45711397 -11.77592182 5.01939225 C-9.27513138 4.10103555 -7.13833286 3.0605598 -4.85829926 1.69795036 C-2 0 -2 0 0 0 Z " fill="#D6C171" transform="translate(386,454)"/>
<path d="M0 0 C0 131.34 0 262.68 0 398 C-12.16552506 393.94482498 -22.86600647 386.36228202 -34 380 C-34 259.55 -34 139.1 -34 15 C-31.03 15.33 -28.06 15.66 -25 16 C-25 15.01 -25 14.02 -25 13 C-23.02807617 11.46606445 -23.02807617 11.46606445 -20.29296875 9.86328125 C-19.31392578 9.28642578 -18.33488281 8.70957031 -17.32617188 8.11523438 C-16.29041016 7.52033203 -15.25464844 6.92542969 -14.1875 6.3125 C-13.16333984 5.70599609 -12.13917969 5.09949219 -11.08398438 4.47460938 C-3.40819214 0 -3.40819214 0 0 0 Z " fill="#D9C372" transform="translate(345,478)"/>
<path d="M0 0 C0 39.6 0 79.2 0 120 C-8.25 124.62 -16.5 129.24 -25 134 C-33.95563716 139.20091399 -33.95563716 139.20091399 -42.89453125 144.4296875 C-49.28523116 148.17456941 -55.70439981 151.86919663 -62.125 155.5625 C-70.52267953 160.39926158 -78.90198897 165.2654497 -87.25 170.1875 C-88.59795654 170.98039429 -88.59795654 170.98039429 -89.97314453 171.78930664 C-93.54045039 173.89906627 -97.06998554 176.01254206 -100.484375 178.36328125 C-103 180 -103 180 -105 180 C-105.56267167 164.46769725 -105.98480635 148.93616202 -106.24349213 133.39604759 C-106.36685809 126.17819465 -106.5346832 118.96669758 -106.81054688 111.75292969 C-107.05113159 105.45865217 -107.20488288 99.16897342 -107.25812387 92.8702265 C-107.28926142 89.53453396 -107.37387561 86.22229636 -107.53752136 82.88892746 C-108.33292134 66.00629388 -108.33292134 66.00629388 -105 59 C-99.14887455 52.841924 -91.50929556 49.41918418 -83.77632427 46.18280602 C-80.34365949 44.72037722 -77.23410369 42.96970856 -74.03125 41.0625 C-72.18846599 40.03992392 -70.34474528 39.01903366 -68.5 38 C-59.36046213 32.9152111 -50.30043915 27.70995097 -41.27880859 22.41918945 C-33.09093628 17.62212465 -24.8653283 12.89365216 -16.625 8.1875 C-16.00410492 7.83262512 -15.38320984 7.47775024 -14.74349976 7.11212158 C-2.29697609 0 -2.29697609 0 0 0 Z " fill="#DAC473" transform="translate(780,365)"/>
<path d="M0 0 C0 123.42 0 246.84 0 374 C-5.88746487 371.64501405 -11.18308983 368.62696622 -16.6875 365.5 C-17.74517578 364.90574219 -18.80285156 364.31148437 -19.89257812 363.69921875 C-21.40561523 362.84263672 -21.40561523 362.84263672 -22.94921875 361.96875 C-24.33113403 361.18661133 -24.33113403 361.18661133 -25.7409668 360.38867188 C-28 359 -28 359 -30 357 C-30.24839699 354.56510103 -30.24839699 354.56510103 -30.24609566 351.42838097 C-30.25007775 350.23656098 -30.25405985 349.04474099 -30.25816262 347.81680524 C-30.25245582 346.48247348 -30.24656462 345.14814249 -30.24050903 343.81381226 C-30.24138045 342.40552843 -30.24313026 340.99724492 -30.24568737 339.58896315 C-30.25017739 335.70550403 -30.24213463 331.82215441 -30.23213124 327.93870926 C-30.22352276 323.75601953 -30.22641505 319.57333635 -30.22793579 315.39064026 C-30.2289863 308.13932193 -30.22269245 300.88803949 -30.21146011 293.63673019 C-30.19523044 283.15246047 -30.18999971 272.66820817 -30.18748413 262.18392725 C-30.18310304 245.1753427 -30.16978273 228.16677728 -30.15087891 211.15820312 C-30.13253081 194.63248796 -30.11836907 178.10677798 -30.10986328 161.58105469 C-30.10933783 160.56301464 -30.10881239 159.5449746 -30.10827102 158.49608485 C-30.10566101 153.38905786 -30.10313358 148.28203082 -30.10064721 143.17500377 C-30.07990182 100.78332258 -30.04466505 58.39166228 -30 16 C-26.33424729 13.88134239 -22.66805947 11.76344032 -19.00146484 9.64624023 C-17.75394874 8.92574531 -16.5065522 8.20504332 -15.25927734 7.48413086 C-13.46743592 6.44851209 -11.67516716 5.41363643 -9.8828125 4.37890625 C-8.26463623 3.44413452 -8.26463623 3.44413452 -6.61376953 2.49047852 C-2.24635545 0 -2.24635545 0 0 0 Z " fill="#D9C372" transform="translate(589,337)"/>
<path d="M0 0 C0.30413203 14.98562517 0.53314015 29.97101077 0.67355824 44.9590683 C0.74050213 51.91907608 0.83169831 58.8771631 0.98071289 65.8359375 C1.12449352 72.55351579 1.19971732 79.26868888 1.23340416 85.98786926 C1.25740381 88.54937632 1.30427456 91.11077554 1.37449074 93.6714325 C1.88893099 113.2114435 1.88893099 113.2114435 -1.23416138 117.82194519 C-4.65926468 121.06517821 -8.57326779 122.45888968 -13 124 C-15.17036498 125.2007774 -17.32231525 126.43608356 -19.4453125 127.71875 C-21.67102301 128.98067055 -23.89761547 130.24103657 -26.125 131.5 C-40.19229563 139.4862476 -54.10332866 147.72028438 -68 156 C-72.20628137 158.50347208 -76.41489905 161.00295789 -80.625 163.5 C-82.03048096 164.33760864 -82.03048096 164.33760864 -83.46435547 165.19213867 C-84.73883545 165.94781128 -84.73883545 165.94781128 -86.0390625 166.71875 C-86.78365723 167.16154297 -87.52825195 167.60433594 -88.29541016 168.06054688 C-90 169 -90 169 -91 169 C-91 130.06 -91 91.12 -91 51 C-78.625 44.07 -78.625 44.07 -66 37 C-57.02898774 31.76697203 -57.02898774 31.76697203 -48.06640625 26.51953125 C-40.69359814 22.21842608 -33.23408155 18.07496858 -25.77319336 13.92919922 C-19.17433868 10.25177004 -12.64825805 6.48213384 -6.23608398 2.48706055 C-2.20354875 0 -2.20354875 0 0 0 Z " fill="#D9C372" transform="translate(906,677)"/>
<path d="M0 0 C0.01458252 1.0194873 0.02916504 2.03897461 0.04418945 3.08935547 C0.10208466 6.86543166 0.17931665 10.64090596 0.26245117 14.41650391 C0.29574214 16.05182134 0.32376106 17.68725482 0.34643555 19.32275391 C0.37990628 21.67140243 0.43221436 24.01898337 0.48828125 26.3671875 C0.49467117 27.10057343 0.5010611 27.83395935 0.50764465 28.58956909 C0.53994543 30.87324756 0.53994543 30.87324756 1 34 C1.99 34.66 2.98 35.32 4 36 C4.37259549 38.38360274 4.37259549 38.38360274 4.36914349 41.44668007 C4.37511663 42.61063289 4.38108978 43.77458572 4.38724393 44.97380984 C4.37413614 46.90859999 4.37413614 46.90859999 4.36076355 48.88247681 C4.3620707 50.25776325 4.36469545 51.63304898 4.36853105 53.0083307 C4.37526581 56.8006309 4.3632026 60.5926788 4.34819686 64.38494682 C4.3352836 68.46947621 4.33962261 72.5539905 4.34190369 76.63853455 C4.34347942 83.71962501 4.33403901 90.80063277 4.31719017 97.88170242 C4.2928452 108.11982213 4.28499952 118.3579017 4.2812262 128.59604721 C4.27465463 145.20533021 4.25467436 161.81456909 4.22631836 178.42382812 C4.19879602 194.56152119 4.17755352 210.69920228 4.16479492 226.83691406 C4.16400675 227.83105814 4.16321858 228.82520222 4.16240653 229.84947188 C4.15849151 234.83662627 4.15470037 239.82378073 4.15097082 244.81093526 C4.11985295 286.20732087 4.06699798 327.60365791 4 369 C3.25859772 369.40348663 2.51719543 369.80697327 1.75332642 370.22268677 C0.77334686 370.7565097 -0.20663269 371.29033264 -1.21630859 371.84033203 C-2.18458588 372.36756866 -3.15286316 372.8948053 -4.15048218 373.4380188 C-8.71563973 375.94043876 -13.23967909 378.51445133 -17.76171875 381.09375 C-22.89213967 384 -22.89213967 384 -24 384 C-24.50375807 336.95870251 -24.89131193 289.91769092 -25.12343725 242.87422701 C-25.15095219 237.31808378 -25.17942734 231.76194585 -25.20849609 226.20581055 C-25.21426692 225.0997025 -25.22003775 223.99359446 -25.22598346 222.85396799 C-25.3216667 204.9528785 -25.49509702 187.05334621 -25.69736151 169.15317998 C-25.9032326 150.78034281 -26.02532032 132.40832002 -26.06994689 114.0343768 C-26.10010952 102.6991676 -26.19528152 91.36835933 -26.37416227 80.03450551 C-26.4906312 72.25802558 -26.52556775 64.48381374 -26.4970303 56.70652536 C-26.4829569 52.21998484 -26.50419382 47.74111653 -26.62252045 43.25594902 C-27.28196999 17.0210469 -27.28196999 17.0210469 -21.75322008 10.24726081 C-16.09497169 5.4749794 -7.70268202 0 0 0 Z " fill="#D8C372" transform="translate(170,378)"/>
<path d="M0 0 C10.88881992 4.03135699 21.00473 11.25381362 30.92822266 17.17529297 C36.24690912 20.33471616 41.59220128 23.44838256 46.9375 26.5625 C47.93749023 27.14580078 48.93748047 27.72910156 49.96777344 28.33007812 C54.96574776 31.24287241 59.97178168 34.13972004 65 37 C65 37.66 65 38.32 65 39 C62.35921766 40.52352827 59.71843269 42.047052 57.07763672 43.57055664 C54.74328358 44.91732423 52.40896765 46.26415607 50.07470703 47.61108398 C44.16021511 51.02377298 38.24511559 54.43539406 32.328125 57.84375 C21.93490311 63.8319081 11.54921935 69.83246517 1.1875 75.875 C0.23174072 76.43155273 -0.72401855 76.98810547 -1.70874023 77.56152344 C-6.74104469 80.49651472 -11.76250828 83.44859539 -16.76844788 86.42828369 C-19.42207422 88.00698124 -22.0788033 89.58041817 -24.73568726 91.15362549 C-26.02636147 91.91995385 -27.31547618 92.68891552 -28.60293579 93.46063232 C-30.40206375 94.53889162 -32.2062712 95.60814735 -34.01171875 96.67578125 C-35.04772217 97.29364502 -36.08372559 97.91150879 -37.15112305 98.5480957 C-39.92314313 99.96083059 -41.90230021 100.80290783 -45 101 C-47.26635742 100.15820312 -47.26635742 100.15820312 -49.60546875 98.78125 C-50.49355225 98.26852539 -51.38163574 97.75580078 -52.29663086 97.22753906 C-53.25061768 96.65745117 -54.20460449 96.08736328 -55.1875 95.5 C-56.69098999 94.62553223 -56.69098999 94.62553223 -58.22485352 93.73339844 C-60.37400844 92.48239039 -62.51965514 91.22533978 -64.66210938 89.96289062 C-69.12532394 87.33823841 -73.61214758 84.75545166 -78.09936523 82.17211914 C-81.38751063 80.27878419 -84.67235559 78.37981507 -87.95703125 76.48046875 C-95.27065735 72.25934335 -102.62418204 68.1112943 -110 64 C-106.66327583 61.21467884 -103.3379763 58.92791016 -99.53515625 56.828125 C-98.49544678 56.250625 -97.4557373 55.673125 -96.38452148 55.078125 C-95.28825439 54.47484375 -94.1919873 53.8715625 -93.0625 53.25 C-90.78364839 51.98474555 -88.50500068 50.7191238 -86.2265625 49.453125 C-84.59509277 48.54916992 -84.59509277 48.54916992 -82.93066406 47.62695312 C-72.17166322 41.65411227 -61.56743514 35.41425325 -50.94506836 29.203125 C-44.72487523 25.57180357 -38.47972909 21.99510773 -32.1875 18.49047852 C-24.69615337 14.30088074 -17.30020224 9.94605258 -9.89453125 5.60742188 C-8.90066406 5.02541016 -7.90679688 4.44339844 -6.8828125 3.84375 C-5.54307373 3.05774414 -5.54307373 3.05774414 -4.17626953 2.25585938 C-2.80588024 1.46504913 -1.4151601 0.70758005 0 0 Z " fill="#DAC473" transform="translate(713,317)"/>
<path d="M0 0 C0.83772949 0.52134521 1.67545898 1.04269043 2.53857422 1.57983398 C3.50408203 2.17159424 4.46958984 2.76335449 5.46435547 3.37304688 C6.49689453 4.01749756 7.52943359 4.66194824 8.59326172 5.32592773 C10.82337518 6.69333416 13.05472843 8.05840696 15.28857422 9.41967773 C16.15678802 9.95015465 16.15678802 9.95015465 17.0425415 10.49134827 C24.3478361 14.93716006 31.79628237 19.13447924 39.24859619 23.32766724 C43.00672113 25.44247778 46.74579483 27.58647122 50.46826172 29.76342773 C51.39509766 30.29822754 52.32193359 30.83302734 53.27685547 31.3840332 C54.10314453 31.88950684 54.92943359 32.39498047 55.78076172 32.91577148 C56.49876953 33.34752686 57.21677734 33.77928223 57.95654297 34.22412109 C59.46826172 35.76342773 59.46826172 35.76342773 59.84667969 38.32080078 C59.46826172 40.76342773 59.46826172 40.76342773 57.10107422 42.69311523 C55.94250867 43.3604917 54.77185746 44.00709775 53.59326172 44.63842773 C52.9383374 45.01008057 52.28341309 45.3817334 51.60864258 45.76464844 C50.0986428 46.62092154 48.58419752 47.4693825 47.06640625 48.31176758 C43.13006394 50.5111184 39.23421285 52.7794672 35.33251953 55.03955078 C31.96828115 56.98709754 28.59955402 58.92669096 25.22998047 60.86499023 C15.97008388 66.1975274 6.7450995 71.58957587 -2.48046875 76.98120117 C-5.71654834 78.87137408 -8.95404498 80.75910097 -12.19189453 82.64624023 C-13.83037354 83.6013147 -13.83037354 83.6013147 -15.50195312 84.57568359 C-17.59462155 85.79542758 -19.68738964 87.0150006 -21.78027344 88.234375 C-22.72306152 88.78407959 -23.66584961 89.33378418 -24.63720703 89.90014648 C-25.46373779 90.38185303 -26.29026855 90.86355957 -27.1418457 91.35986328 C-29.59977877 92.75241534 -29.59977877 92.75241534 -32.02514648 94.56738281 C-34.53173828 95.76342773 -34.53173828 95.76342773 -36.99243164 95.14672852 C-37.83040283 94.69023926 -38.66837402 94.23375 -39.53173828 93.76342773 C-40.42062744 93.28760254 -41.3095166 92.81177734 -42.2253418 92.3215332 C-43.1939917 91.76353027 -44.1626416 91.20552734 -45.16064453 90.63061523 C-46.26480713 89.99687988 -47.36896973 89.36314453 -48.5065918 88.71020508 C-49.7024808 88.01962448 -50.89836279 87.32903173 -52.09423828 86.63842773 C-53.33483874 85.92534558 -54.57564624 85.2126235 -55.81665039 84.50024414 C-58.4074184 83.01260937 -60.99727887 81.52341334 -63.58642578 80.03295898 C-69.31888066 76.7339999 -75.05873582 73.44799491 -80.80026245 70.16485596 C-82.54352237 69.16744498 -84.28581408 68.16834239 -86.02807617 67.16918945 C-92.81817169 63.28294222 -99.64690146 59.4793274 -106.53173828 55.76342773 C-106.53173828 55.10342773 -106.53173828 54.44342773 -106.53173828 53.76342773 C-105.49339844 53.19180908 -105.49339844 53.19180908 -104.43408203 52.60864258 C-91.09420533 45.25545297 -77.81362441 37.82651313 -64.67749023 30.11328125 C-55.71070225 24.85159457 -46.69364781 19.68031601 -37.65063477 14.55102539 C-32.31095474 11.5188574 -26.99383906 8.46155785 -21.74658203 5.27124023 C-20.87751221 4.74812256 -20.00844238 4.22500488 -19.11303711 3.68603516 C-17.53004651 2.72894025 -15.95491213 1.75866766 -14.38989258 0.77246094 C-13.69677979 0.35569092 -13.00366699 -0.0610791 -12.28955078 -0.49047852 C-11.70318848 -0.85471924 -11.11682617 -1.21895996 -10.51269531 -1.59423828 C-6.72571695 -2.82218259 -3.47329355 -1.69645437 0 0 Z " fill="#DAC473" transform="translate(787.53173828125,496.236572265625)"/>
<path d="M0 0 C0 27.06 0 54.12 0 82 C-0.66 82 -1.32 82 -2 82 C-1.91814453 82.76642822 -1.83628906 83.53285645 -1.75195312 84.32250977 C-2 87 -2 87 -3.63867188 88.53881836 C-4.40759766 88.96815674 -5.17652344 89.39749512 -5.96875 89.83984375 C-6.83741699 90.33798584 -7.70608398 90.83612793 -8.60107422 91.34936523 C-9.55771973 91.87344971 -10.51436523 92.39753418 -11.5 92.9375 C-13.53391059 94.09365074 -15.56776279 95.24990421 -17.6015625 96.40625 C-19.18952637 97.29570313 -19.18952637 97.29570313 -20.80957031 98.203125 C-25.86799977 101.05207211 -30.86760872 104.00011118 -35.875 106.9375 C-37.88366086 108.10885131 -39.89277899 109.27941884 -41.90234375 110.44921875 C-48.08185338 114.04755268 -54.26007117 117.64809513 -60.4375 121.25 C-61.92648804 122.1174585 -61.92648804 122.1174585 -63.44555664 123.00244141 C-68.03206241 125.67634644 -72.61335234 128.35817619 -77.1796875 131.06640625 C-77.96802979 131.53336914 -78.75637207 132.00033203 -79.56860352 132.48144531 C-81.01852557 133.34152311 -82.46703489 134.20398898 -83.91381836 135.06933594 C-86.59143757 136.65743643 -89.03605375 138.01201792 -92 139 C-92.55863853 127.90101783 -92.98368734 116.80542113 -93.24349213 105.69519615 C-93.36827943 100.53390345 -93.53700448 95.38228218 -93.81054688 90.2265625 C-95.52678401 57.01855848 -95.52678401 57.01855848 -89.76831055 48.82434082 C-84.20021545 43.86228191 -77.90400578 41.23228711 -70.8684082 38.95977783 C-67.2191963 37.73874078 -64.30259739 36.07527274 -61.03125 34.0625 C-59.18845893 33.03993664 -57.34473993 32.01904334 -55.5 31 C-41.46576739 23.19084393 -27.5849672 15.12098706 -13.7890625 6.8984375 C-12.99564453 6.42696289 -12.20222656 5.95548828 -11.38476562 5.46972656 C-9.92009851 4.59814203 -8.45770387 3.72272276 -6.99804688 2.84277344 C-2.2221875 0 -2.2221875 0 0 0 Z " fill="#DAC473" transform="translate(847,547)"/>
<path d="M0 0 C3.18701172 1.51538086 3.18701172 1.51538086 6.4296875 3.46484375 C7.01830063 3.81418976 7.60691376 4.16353577 8.21336365 4.52346802 C10.10722295 5.65076633 11.99097853 6.7938512 13.875 7.9375 C15.17404879 8.71458898 16.47377577 9.49054533 17.77416992 10.26538086 C20.33997038 11.7960391 22.90223508 13.33234054 25.46142578 14.87402344 C30.05706225 17.64001144 34.68344803 20.35292337 39.3125 23.0625 C40.64218118 23.84462025 41.97164103 24.62711704 43.30078125 25.41015625 C44.19152344 25.93480469 45.08226562 26.45945312 46 27 C41.39385302 31.04724212 36.21288167 33.80405734 30.875 36.75 C22.06854861 41.66650674 13.35060784 46.71020107 4.6875 51.875 C-5.68693683 58.05902508 -16.11368493 64.13776575 -26.60083008 70.12841797 C-27.61556396 70.70994629 -28.63029785 71.29147461 -29.67578125 71.890625 C-30.62146973 72.42623047 -31.5671582 72.96183594 -32.54150391 73.51367188 C-34.58115438 74.74677933 -36.28635591 76.02767166 -38.10546875 77.546875 C-41.94730277 79.475569 -44.15433102 79.02675644 -48.24707031 77.97949219 C-53.45470697 76.12661544 -58.11947176 73.41317272 -62.875 70.625 C-63.95257568 70.00737793 -65.03015137 69.38975586 -66.14038086 68.75341797 C-76.17547033 62.97539295 -86.11904754 57.03752176 -96 51 C-91.49228568 47.02425197 -86.46225607 44.42074146 -81.1875 41.625 C-72.152875 36.76748092 -63.26105898 31.7094144 -54.41821289 26.51220703 C-45.19543072 21.09649058 -35.91304841 15.78947527 -26.61474609 10.50488281 C-24.95306396 9.55887207 -24.95306396 9.55887207 -23.2578125 8.59375 C-22.1946582 7.99304688 -21.13150391 7.39234375 -20.03613281 6.7734375 C-18.06251225 5.62062472 -16.11620378 4.4192461 -14.20605469 3.1640625 C-13.35172852 2.60460937 -12.49740234 2.04515625 -11.6171875 1.46875 C-10.88870605 0.96794922 -10.16022461 0.46714844 -9.40966797 -0.04882812 C-5.91163854 -1.42961056 -3.62522322 -0.87372779 0 0 Z " fill="#DAC473" transform="translate(857,641)"/>
<path d="M0 0 C0.21031398 17.62838176 0.36898307 35.25637165 0.46630955 52.88572121 C0.51270297 61.0715391 0.57594193 69.2565772 0.67895508 77.44189453 C0.76870746 84.57693069 0.82673435 91.71140215 0.84679645 98.84698713 C0.85852332 102.62502735 0.88604248 106.40145221 0.95157051 110.17897415 C1.01278656 113.73683501 1.03148256 117.29242012 1.01796913 120.8507576 C1.0216159 122.77504813 1.06999105 124.69909197 1.11978149 126.6227417 C1.03079052 134.91313645 1.03079052 134.91313645 -1.97619152 138.08369255 C-4.26065127 139.6277274 -6.49978431 140.84665694 -9 142 C-9.90226318 142.55800293 -10.80452637 143.11600586 -11.73413086 143.69091797 C-14.1327071 145.09010932 -16.53257355 146.48674442 -18.9375 147.875 C-19.78634766 148.37257813 -20.63519531 148.87015625 -21.50976562 149.3828125 C-22.31994141 149.85203125 -23.13011719 150.32125 -23.96484375 150.8046875 C-24.6930835 151.22733887 -25.42132324 151.64999023 -26.17163086 152.08544922 C-28 153 -28 153 -30 153 C-30 108.12 -30 63.24 -30 17 C-21.42 12.05 -12.84 7.1 -4 2 C-1 0 -1 0 0 0 Z " fill="#D8C372" transform="translate(518,377)"/>
<path d="M0 0 C0 42.57 0 85.14 0 129 C-1.98 128.34 -3.96 127.68 -6 127 C-7.11176605 126.63793457 -8.2235321 126.27586914 -9.36898804 125.90283203 C-13.33362904 124.12939141 -16.4395877 122.58111145 -19 119 C-21.56820621 111.3793538 -20.82847447 102.8037495 -20.7265625 94.875 C-20.73532599 92.48419529 -20.74794806 90.0934019 -20.76425171 87.70263672 C-20.78339096 82.69841946 -20.75566346 77.69722434 -20.69482422 72.69335938 C-20.62073558 66.28876267 -20.66339943 59.89124496 -20.74126625 53.48690796 C-20.78832148 48.55178796 -20.77326 43.61833775 -20.73960495 38.6831665 C-20.7309535 36.32292841 -20.74150419 33.96253703 -20.77183914 31.60247803 C-20.95176075 13.67077529 -20.95176075 13.67077529 -17.72246552 9.25183105 C-14.26706051 6.1146039 -10.36445254 4.59407664 -6 3 C-0.86074305 0 -0.86074305 0 0 0 Z " fill="#DAC473" transform="translate(480,399)"/>
<path d="M0 0 C3.66095826 1.38289079 7.01704575 3.02896063 10.4296875 4.94140625 C11.47382812 5.52599609 12.51796875 6.11058594 13.59375 6.71289062 C14.6765625 7.32326172 15.759375 7.93363281 16.875 8.5625 C17.91914062 9.14580078 18.96328125 9.72910156 20.0390625 10.33007812 C22.20931142 11.54885816 24.36368725 12.79626368 26.50268555 14.0690918 C29.08939432 15.49724396 31.40877945 16.58743685 34.13208008 17.64379883 C38.37454027 19.44151826 42.21373848 21.20996991 45 25 C47.43788642 32.52190762 46.40403363 40.79808938 45.9375 48.5625 C45.86219068 50.73740067 45.79376125 52.91255113 45.73242188 55.08789062 C45.56776424 60.39740835 45.317488 65.69754248 45 71 C41.03276277 69.52724053 37.47545124 67.65838949 33.80859375 65.55078125 C33.22263931 65.21507614 32.63668488 64.87937103 32.03297424 64.53349304 C30.16605729 63.4628585 28.30177901 62.38771995 26.4375 61.3125 C24.60500824 60.26075212 22.77206249 59.20986769 20.93710327 58.16242981 C19.72431443 57.46177508 18.51835265 56.7491709 17.31948853 56.02494812 C14.36295243 54.25360544 11.72564294 52.90292068 8.44873047 51.7434082 C4.62323111 50.24051327 2.60306141 49.21075772 0 46 C-2.00199969 38.43506252 -1.1185247 30.29050936 -0.75 22.5625 C-0.68977579 20.37840085 -0.63502832 18.19414337 -0.5859375 16.00976562 C-0.45399939 10.66971274 -0.25355312 5.33558745 0 0 Z " fill="#DAC473" transform="translate(91,314)"/>
<path d="M0 0 C3.73386575 1.4935463 6.95338794 2.99328677 10.4296875 4.94140625 C11.47382813 5.52599609 12.51796875 6.11058594 13.59375 6.71289062 C14.6765625 7.32326172 15.759375 7.93363281 16.875 8.5625 C17.91914063 9.14580078 18.96328125 9.72910156 20.0390625 10.33007812 C22.20931142 11.54885816 24.36368725 12.79626368 26.50268555 14.0690918 C29.08939432 15.49724396 31.40877945 16.58743685 34.13208008 17.64379883 C38.37454027 19.44151826 42.21373848 21.20996991 45 25 C47.43788642 32.52190762 46.40403363 40.79808938 45.9375 48.5625 C45.86219068 50.73740067 45.79376125 52.91255113 45.73242188 55.08789062 C45.56776424 60.39740835 45.317488 65.69754248 45 71 C44.67 70.01 44.34 69.02 44 68 C41.37026424 66.64756447 39.13635978 66.01716242 36.20092773 65.64770508 C32.58369045 64.91576011 30.14626007 63.63378417 26.97265625 61.76171875 C25.28946289 60.77848633 25.28946289 60.77848633 23.57226562 59.77539062 C22.40219104 59.07968385 21.23227021 58.38371843 20.0625 57.6875 C18.89699096 57.00239268 17.73097896 56.31814023 16.56445312 55.63476562 C14.40249907 54.36587349 12.24280032 53.0931247 10.08618164 51.81518555 C6.74106105 49.84770105 3.36950241 47.92542995 0 46 C0 30.82 0 15.64 0 0 Z " fill="#DAC473" transform="translate(267,413)"/>
<path d="M0 0 C0.85609863 0.46664063 1.71219727 0.93328125 2.59423828 1.4140625 C4.12395264 2.23777344 4.12395264 2.23777344 5.68457031 3.078125 C6.81233887 3.72523438 7.94010742 4.37234375 9.10205078 5.0390625 C9.70935028 5.38662598 10.31664978 5.73418945 10.94235229 6.09228516 C12.21894785 6.82368021 13.4946607 7.55661791 14.76953125 8.29101562 C16.71830263 9.41352356 18.66968075 10.5313826 20.62158203 11.6484375 C30.10075455 17.08507335 30.10075455 17.08507335 33.59423828 19.4140625 C33.95500183 21.40090942 33.95500183 21.40090942 33.93481445 23.86376953 C33.93447456 25.24497482 33.93447456 25.24497482 33.93412781 26.65408325 C33.91864395 27.64995453 33.9031601 28.64582581 33.88720703 29.671875 C33.88296219 30.69006317 33.87871735 31.70825134 33.87434387 32.7572937 C33.85751407 36.01814923 33.81985374 39.27839291 33.78173828 42.5390625 C33.76669702 44.74608484 33.75300765 46.95311684 33.74072266 49.16015625 C33.70759658 54.57833473 33.65735481 59.99615492 33.59423828 65.4140625 C29.57831959 63.92539094 25.97611346 62.02273096 22.26220703 59.89453125 C21.6667659 59.55408279 21.07132477 59.21363434 20.45783997 58.86286926 C19.20221591 58.14408018 17.94748514 57.42372865 16.69360352 56.7019043 C14.79993831 55.61203722 12.90341465 54.52729205 11.00634766 53.44335938 C7.52639077 51.44883276 4.04927958 49.45165096 0.59423828 47.4140625 C-0.47764488 46.90138824 -0.47764488 46.90138824 -1.57118225 46.37835693 C-6.97840565 43.57460868 -6.97840565 43.57460868 -8.12889099 40.45030212 C-8.41684512 38.02385361 -8.43726375 35.7235693 -8.36279297 33.28125 C-8.36333176 32.40759796 -8.36387054 31.53394592 -8.36442566 30.63381958 C-8.35674389 28.79297235 -8.32950026 26.95211567 -8.28393555 25.11181641 C-8.21828573 22.29009433 -8.22232054 19.47468245 -8.23583984 16.65234375 C-8.21977525 14.86193748 -8.19972953 13.07156157 -8.17529297 11.28125 C-8.17600296 10.43746796 -8.17671295 9.59368591 -8.17744446 8.72433472 C-8.05448647 4.93339359 -7.94476264 2.93946626 -5.17016602 0.23486328 C-2.40576172 -0.5859375 -2.40576172 -0.5859375 0 0 Z " fill="#DAC473" transform="translate(189.40576171875,367.5859375)"/>
<path d="M0 0 C4.70868827 2.30932644 9.32910461 4.69289378 13.85546875 7.34765625 C15.40717773 8.25547852 15.40717773 8.25547852 16.99023438 9.18164062 C18.04533203 9.80232422 19.10042969 10.42300781 20.1875 11.0625 C21.25419922 11.68705078 22.32089844 12.31160156 23.41992188 12.95507812 C26.28247425 14.63250875 29.14359982 16.31211518 32 18 C32.92748047 18.34772461 33.85496094 18.69544922 34.81054688 19.05371094 C37 21 37 21 37.4256134 23.04124451 C37.58246753 25.82678299 37.56093205 28.56640104 37.48828125 31.35546875 C37.48120651 32.37224197 37.47413177 33.3890152 37.46684265 34.43659973 C37.43882918 37.68764484 37.37607585 40.93697453 37.3125 44.1875 C37.28742621 46.38994911 37.26461145 48.59242518 37.24414062 50.79492188 C37.1889801 56.19720096 37.10528492 61.59847795 37 67 C33.79142076 65.78258014 30.88066475 64.44549453 27.9609375 62.64453125 C27.22045166 62.19005615 26.47996582 61.73558105 25.71704102 61.26733398 C24.94416748 60.78723877 24.17129395 60.30714355 23.375 59.8125 C22.57827881 59.32144775 21.78155762 58.83039551 20.96069336 58.32446289 C13.91652894 53.97350853 6.88950082 49.59300054 0 45 C-0.36076355 43.05111694 -0.36076355 43.05111694 -0.34057617 40.64208984 C-0.34034958 39.74130707 -0.34012299 38.84052429 -0.33988953 37.91244507 C-0.32440567 36.93844757 -0.30892181 35.96445007 -0.29296875 34.9609375 C-0.28872391 33.96494537 -0.28447906 32.96895325 -0.28010559 31.94277954 C-0.2632768 28.75324775 -0.22561676 25.56434167 -0.1875 22.375 C-0.1724586 20.21615494 -0.15876925 18.0573 -0.14648438 15.8984375 C-0.11335967 10.59874388 -0.06311896 5.29941663 0 0 Z " fill="#DAC473" transform="translate(10,267)"/>
<path d="M0 0 C0.22297148 6.01375038 0.38601105 12.02508338 0.49438477 18.04199219 C0.53956701 20.08701491 0.60092981 22.13174812 0.67895508 24.17578125 C0.78852332 27.12051719 0.83924086 30.06140613 0.87890625 33.0078125 C0.92535782 33.9174173 0.97180939 34.82702209 1.01966858 35.76419067 C1.02178971 38.44904419 0.90312176 40.46784009 0 43 C-2.68222055 45.6451572 -5.66460455 47.29194762 -9 49 C-10.51944214 49.91217285 -10.51944214 49.91217285 -12.06958008 50.84277344 C-12.96056396 51.34325195 -13.85154785 51.84373047 -14.76953125 52.359375 C-15.76017578 52.91753906 -16.75082031 53.47570312 -17.77148438 54.05078125 C-18.77501953 54.61152344 -19.77855469 55.17226563 -20.8125 55.75 C-21.83537109 56.32621094 -22.85824219 56.90242188 -23.91210938 57.49609375 C-27.91141727 59.74324907 -31.89588875 61.94794437 -36 64 C-36 49.48 -36 34.96 -36 20 C-31.895625 17.628125 -27.79125 15.25625 -23.5625 12.8125 C-21.64932983 11.70612183 -21.64932983 11.70612183 -19.69750977 10.57739258 C-1.37812289 0 -1.37812289 0 0 0 Z " fill="#D9C372" transform="translate(633,311)"/>
<path d="M0 0 C3.95377192 38.67093072 3.95377192 38.67093072 -2.24267578 46.34619141 C-7.81158946 51.19506084 -14.19970987 53.82709613 -21.18017578 56.05029297 C-24.7955519 57.26793912 -27.74326399 59.03881055 -31 61 C-31.66 61 -32.32 61 -33 61 C-33 46.81 -33 32.62 -33 18 C-20.3125 10.6875 -20.3125 10.6875 -16.3371582 8.3972168 C-15.29390381 7.79562744 -14.25064941 7.19403809 -13.17578125 6.57421875 C-12.11270752 5.96151123 -11.04963379 5.34880371 -9.9543457 4.7175293 C-8.03187956 3.59989032 -6.12542012 2.45409325 -4.23901367 1.27661133 C-2 0 -2 0 0 0 Z " fill="#D8C372" transform="translate(713,265)"/>
<path d="M0 0 C0 14.19 0 28.38 0 43 C-14 51 -14 51 -15 51 C-15.22297148 44.98624962 -15.38601105 38.97491662 -15.49438477 32.95800781 C-15.53956701 30.91298509 -15.60092981 28.86825188 -15.67895508 26.82421875 C-15.78852332 23.87948281 -15.83924086 20.93859387 -15.87890625 17.9921875 C-15.92535782 17.0825827 -15.97180939 16.17297791 -16.01966858 15.23580933 C-16.02179323 12.5465079 -15.90985894 10.53482076 -15 8 C-12.30368853 5.35996064 -9.36362246 3.67066888 -6 2 C-5.28441422 1.61842743 -4.56882843 1.23685486 -3.83155823 0.84371948 C-2 0 -2 0 0 0 Z " fill="#D4BF6F" transform="translate(672,289)"/>
</svg>
