<?xml version="1.0" encoding="UTF-8" standalone="no"?>
<!DOCTYPE svg PUBLIC "-//W3C//DTD SVG 1.1//EN" "http://www.w3.org/Graphics/SVG/1.1/DTD/svg11.dtd">
<!-- Created with Vectornator (http://vectornator.io/) -->
<svg height="100%" stroke-miterlimit="10" style="fill-rule:nonzero;clip-rule:evenodd;stroke-linecap:round;stroke-linejoin:round;" version="1.1" viewBox="0 0 50 50" width="100%" xml:space="preserve" xmlns="http://www.w3.org/2000/svg" xmlns:vectornator="http://vectornator.io" xmlns:xlink="http://www.w3.org/1999/xlink">
<defs/>
<g id="Layer-1" vectornator:layerName="Layer 1">
<g opacity="1" vectornator:layerName="Group 1">
<path d="M12.9138 19.8127C12.6459 19.6891 12.2488 19.8451 12.0168 19.8719C11.7163 19.9065 11.4942 19.8668 11.2159 19.931C11.1223 19.9526 10.9636 20.0691 10.8635 20.0788C10.5444 20.1098 10.2623 20.0697 9.96644 20.138C9.70672 20.1979 9.3789 20.3109 9.06942 20.3154C7.73469 20.3346 6.39959 20.3257 5.06486 20.3449C4.8285 20.3484 4.57182 20.3745 4.32802 20.3745C4.01283 20.3745 3.49261 21.5936 3.39897 21.8529C3.19811 22.409 3.23878 23.064 3.23878 23.6565C3.23878 25.4601 3.25589 27.2017 3.65526 28.8603C3.72312 29.1422 3.65773 29.2289 3.71933 29.57C3.75614 29.7738 3.96082 30.0187 4.00766 30.2204C4.19237 31.016 4.32516 31.859 4.45617 32.645C4.46856 32.7193 4.57381 32.8161 4.61635 32.8815C4.90534 33.326 4.9793 33.903 5.25708 34.3303C5.36523 34.4967 5.35521 34.7794 5.41726 34.9512C5.48512 35.1391 5.66001 35.4922 5.76966 35.6608C5.90533 35.8695 5.84785 36.1753 5.99392 36.4C6.30246 36.8746 6.51289 37.2752 6.69872 37.7897C6.99532 38.6109 7.84379 39.3287 8.30054 40.0664C8.41271 40.2475 8.51844 40.6401 8.58887 40.8351C8.88641 41.659 9.87612 42.7328 10.5431 43.3484C11.1663 43.9235 12.5814 44.6147 13.3943 44.7085C13.773 44.7521 14.3583 45.3393 14.7399 45.4476C15.1166 45.5546 15.577 45.527 15.9573 45.6546C16.1589 45.7223 16.5864 45.8986 16.7902 45.9207C18.0144 46.0536 19.2785 45.9313 20.5064 46.0094C20.5534 46.0124 20.683 46.1222 20.7307 46.1277C21.6307 46.2315 22.573 46.4317 23.4538 46.4825C23.6537 46.494 23.9806 46.6832 24.1586 46.6895C26.2706 46.7635 28.4151 46.8077 30.5338 46.8077C30.6898 46.8077 30.8823 46.6999 31.0464 46.6895C32.2816 46.6108 33.4142 46.5819 34.6345 46.4825C34.688 46.4781 34.73 46.3447 34.7626 46.3347C34.8812 46.2982 35.011 46.2804 35.115 46.2164C35.222 46.1506 35.3747 46.2156 35.4995 46.1868C35.8399 46.1083 36.1406 45.8837 36.4926 45.8024C36.6282 45.7712 36.7843 45.8033 36.9091 45.7137C38.0971 44.8609 39.3284 43.8652 40.4011 42.8753C40.654 42.6418 40.8218 42.2781 41.0098 42.0178C41.3937 41.4864 41.9613 41.0005 42.2592 40.4508C42.5486 39.9166 42.8053 39.2951 43.1242 38.7654C44.479 36.5146 45.0503 34.0274 46.2958 31.7284C46.3823 31.5687 46.1997 31.5576 46.1997 31.4327C46.1997 31.2169 46.4069 30.9809 46.4239 30.7527C46.4408 30.5263 46.4186 30.2969 46.456 30.0726C46.4628 30.0313 46.5377 30.0236 46.5521 29.9839C46.6997 29.5751 46.5341 28.8992 46.52 28.5942C46.4996 28.1511 46.5298 27.7071 46.52 27.2637C46.5087 26.7502 46.2762 26.2028 46.2958 25.6966C46.3261 24.9123 46.5031 23.9508 46.4239 23.1834C46.4168 23.114 46.3004 23.0965 46.2637 23.0356C46.1483 22.8438 46.4382 22.5472 46.1036 22.4442C46.1036 21.9712 46.1136 21.498 46.1036 21.025C46.1014 20.9245 46.0515 20.8292 46.0395 20.7293C46.023 20.5929 46.0497 19.8288 46.0395 19.8127C45.8472 19.5086 45.2132 19.1421 44.8221 19.1327C44.0215 19.1135 43.2203 19.1327 42.4194 19.1327C40.7531 19.1327 39.1027 19.2518 37.4217 19.2214C35.4753 19.1862 33.5019 18.9849 31.559 18.9849C31.17 18.9849 30.7045 19.092 30.3416 19.1031C29.4264 19.1313 28.2881 19.0374 27.3622 19.1031C26.5319 19.1621 25.7961 19.3974 24.9915 19.4284C23.8125 19.4737 23.3568 19.4025 22.2364 19.4284C21.997 19.4339 21.7365 19.5405 21.4996 19.5466C19.9975 19.5857 18.3907 19.4528 16.8863 19.5762C16.6215 19.5979 16.1569 19.6867 15.7971 19.6945C14.9323 19.713 14.0669 19.7059 13.2021 19.724C12.9792 19.7287 13.0188 19.7159 12.9138 19.8127Z" fill="#e2ac78" fill-rule="nonzero" opacity="1" stroke="none"/>
<path d="M44.5658 19.7536C43.9968 19.721 43.8647 20.7114 43.3164 20.9363C43.0319 21.053 42.6257 21.0923 42.3873 21.2615C42.0254 21.5185 41.7334 21.8019 41.3622 22.0303C40.9697 22.2717 40.401 22.2314 40.0166 22.4442C39.4011 22.7851 38.2128 22.6133 37.5819 22.7103C37.5074 22.7218 37.4831 22.8177 37.4217 22.8582C37.1431 23.0418 36.738 22.894 36.3965 22.9173C35.7601 22.9608 35.1099 23.1399 34.4743 23.1538C33.6309 23.1724 32.7869 23.1644 31.9434 23.1834C30.7808 23.2096 29.5779 23.4495 28.4194 23.4495C24.7026 23.4495 21.0187 23.7892 17.2707 23.7156C15.9117 23.6889 14.5908 23.4495 13.2342 23.4495C13.0953 23.4495 12.9875 23.3171 12.8497 23.3017C12.509 23.2636 12.1668 23.2367 11.8246 23.213C10.8314 23.1442 9.72734 23.2909 8.74905 23.0651C7.74433 22.8333 7.01188 22.646 6.1541 22.0303C5.99762 21.918 4.80303 20.7333 4.96875 21.4981C5.01704 21.7209 5.83381 22.1513 6.02595 22.2964C6.3513 22.5421 7.00474 23.0579 7.40352 23.0947C7.74541 23.1263 7.94423 23.0999 8.23647 23.1538C8.56535 23.2146 8.80165 23.4033 9.19756 23.42C9.816 23.4459 10.9335 23.3844 11.6003 23.5382C12.3197 23.7042 13.2587 23.6858 14.0351 23.7156C14.6394 23.7389 15.2519 23.9377 15.8611 23.9522C16.6192 23.9701 17.3775 23.9721 18.1357 23.9817C18.8902 23.9913 19.623 23.9873 20.3783 24.0113C20.3996 24.012 20.4216 24.0161 20.4424 24.0113C20.6555 23.9621 20.9748 23.9226 21.1792 23.9226C23.7676 23.9226 26.3556 23.8957 28.9641 23.7452C29.7671 23.6989 30.8266 23.5377 31.6231 23.4495C31.8888 23.4201 32.2536 23.4495 32.5521 23.4495C33.1715 23.4495 33.7909 23.4582 34.4102 23.4495C34.9469 23.442 35.4824 23.2426 36.0121 23.2426C36.983 23.2426 38.1387 23.1157 39.1196 22.9764C39.3283 22.9468 39.6391 22.7605 39.8564 22.7103C40.305 22.6068 40.7502 22.5042 41.202 22.3851C41.7661 22.2363 42.2639 21.5268 42.7397 21.4389C43.3623 21.324 44.0397 20.7797 44.3415 20.3154C44.4443 20.1573 44.9082 19.7732 44.5658 19.7536Z" fill="#c9976a" fill-rule="nonzero" opacity="1" stroke="none"/>
<path d="M46.3278 24.8983C46.0517 25.1532 46.4089 26.8882 46.4239 27.2341C46.4436 27.6873 46.4253 28.1417 46.456 28.5942C46.4578 28.6221 46.5185 28.6255 46.52 28.6534C46.5403 29.0274 46.529 29.4025 46.52 29.7769C46.5158 29.9539 46.1107 31.3922 46.2637 31.5805C46.6224 31.2495 46.6335 30.5329 46.6802 30.1022C46.8161 28.8481 46.7906 27.6153 46.5841 26.3767C46.538 26.1003 46.4759 25.035 46.3278 24.8983Z" fill="#c7ab93" fill-rule="nonzero" opacity="1" stroke="none"/>
<path d="M46.0395 19.7536C45.7877 19.986 46.0074 20.3188 46.0074 20.5815C46.0074 21.2276 45.9538 21.765 46.0395 22.5034C46.05 22.5937 46.2317 22.6195 46.2317 22.7103C46.2317 22.9348 46.1554 22.9947 46.3598 23.1834C46.4918 23.0616 46.3282 21.1614 46.2958 20.9067C46.2732 20.7295 46.2519 20.552 46.2317 20.3745C46.209 20.1752 46.1868 19.8896 46.0395 19.7536Z" fill="#c7ab93" fill-rule="nonzero" opacity="1" stroke="none"/>
</g>
</g>
</svg>
