<?xml version="1.0" encoding="UTF-8" standalone="no"?>
<!DOCTYPE svg PUBLIC "-//W3C//DTD SVG 1.1//EN" "http://www.w3.org/Graphics/SVG/1.1/DTD/svg11.dtd">
<!-- Created with Vectornator (http://vectornator.io/) -->
<svg height="100%" stroke-miterlimit="10" style="fill-rule:nonzero;clip-rule:evenodd;stroke-linecap:round;stroke-linejoin:round;" version="1.1" viewBox="0 0 100 100" width="100%" xml:space="preserve" xmlns="http://www.w3.org/2000/svg" xmlns:vectornator="http://vectornator.io" xmlns:xlink="http://www.w3.org/1999/xlink">
<defs/>
<g id="Layer-1" vectornator:layerName="Layer 1">
<g opacity="1" vectornator:layerName="Group 1">
<path d="M37.5 0C37.4837 1.35091 37.483 2.7021 37.4512 4.05273C37.4413 4.47317 37.4512 4.91645 37.4512 5.41992C37.4512 6.16734 37.4023 6.98102 37.4023 7.71484C37.4023 7.91617 37.3476 8.29599 37.5488 8.30078C38.8831 8.33255 40.2181 8.30078 41.5527 8.30078C41.5853 8.30078 41.6213 8.31534 41.6504 8.30078C41.6916 8.28019 41.7469 8.24915 41.748 8.20312C41.7798 6.91771 41.7163 5.63112 41.748 4.3457C41.7492 4.29968 41.7997 4.2486 41.8457 4.24805C44.4985 4.21589 47.1519 4.21589 49.8047 4.24805C49.8507 4.2486 49.8747 4.30887 49.9023 4.3457C50.1041 4.61476 49.9023 7.18588 49.9023 7.71484C49.9023 7.82032 50.0378 8.29046 49.7559 8.30078C48.4709 8.34779 47.1839 8.26904 45.8984 8.30078C45.8524 8.30192 45.8019 8.35242 45.8008 8.39844C45.769 9.68385 45.8627 10.9715 45.8008 12.2559C45.7963 12.3478 45.6821 12.4001 45.6055 12.4512C45.5037 12.519 45.0279 12.4023 44.9219 12.4023C43.7712 12.4023 42.5081 12.3795 41.4551 12.3535C40.1697 12.3218 38.8826 12.4005 37.5977 12.3535C36.4389 12.3111 38.4453 8.3137 37.3535 8.30078C34.6356 8.26862 31.9171 8.26862 29.1992 8.30078C28.0954 8.31384 30.2175 12.1596 29.0039 12.4023C27.7038 12.6624 26.2339 12.3535 24.9023 12.3535C23.5677 12.3535 22.2327 12.3853 20.8984 12.3535C20.8524 12.3524 20.8013 12.3019 20.8008 12.2559C20.7686 9.58678 20.8329 6.91712 20.8008 4.24805C20.8002 4.20201 20.7491 4.1515 20.7031 4.15039C19.3851 4.11863 18.0664 4.15039 16.748 4.15039C16.7155 4.15039 16.6795 4.13583 16.6504 4.15039C16.6092 4.17098 16.5539 4.20203 16.5527 4.24805C16.521 5.53346 16.5845 6.82005 16.5527 8.10547C16.5516 8.15149 16.5011 8.20199 16.4551 8.20312C15.1697 8.23486 13.882 8.14123 12.5977 8.20312C12.5057 8.20756 12.4045 8.30639 12.4023 8.39844C12.3388 11.0995 12.4345 13.8023 12.4023 16.5039C12.3891 17.6189 8.29468 15.5659 8.25195 16.748C8.20492 18.0493 8.2837 19.3526 8.25195 20.6543C8.25083 20.7003 8.20032 20.7508 8.1543 20.752C6.8526 20.7837 5.54928 20.7049 4.24805 20.752C3.06521 20.7947 5.12871 24.8752 4.00391 24.9023C2.68593 24.9341 1.36719 24.9023 0.0488281 24.9023C0.0244141 29.0771 0.0244141 29.0771 0 33.252C2.73437 33.2682 5.46875 33.3169 8.20312 33.3008C10.2662 33.2886 6.30343 25.1488 8.39844 25.0977C9.70013 25.0659 11.003 25.0659 12.3047 25.0977C12.5461 25.1035 12.3878 25.8948 12.4023 26.0254C12.4365 26.3327 12.4023 26.6439 12.4023 26.9531C12.4023 27.2193 12.3492 29.1444 12.5977 29.1504C13.9156 29.1821 15.2352 29.1974 16.5527 29.1504C17.7234 29.1086 15.6834 25.0763 16.7969 25.0488C18.0823 25.0171 19.3689 25.0171 20.6543 25.0488C20.7003 25.05 20.7517 25.1004 20.752 25.1465C20.7843 31.9823 20.7035 38.8185 20.752 45.6543C20.7671 47.7961 29.0277 43.7977 29.0527 45.8984C29.0849 48.6001 29.0849 51.3023 29.0527 54.0039C29.0522 54.0499 29.0011 54.1013 28.9551 54.1016C22.0867 54.134 15.218 54.0692 8.34961 54.1016C7.26016 54.1067 9.24954 58.1901 8.1543 58.2031C5.45267 58.2353 2.75065 58.2031 0.0488281 58.2031C0.0244141 62.4512 0.0244141 62.4512 0 66.6992C2.7181 66.7155 5.43658 66.6998 8.1543 66.748C8.20032 66.7489 8.25139 66.7997 8.25195 66.8457C8.28411 69.4822 8.28411 72.1193 8.25195 74.7559C8.24995 74.92 7.38443 74.9512 7.32422 74.9512C6.53168 74.9512 5.6947 74.9512 4.93164 74.9512C4.87595 74.9512 4.16528 74.8475 4.15039 75.0977C4.07206 76.4137 4.11863 77.7348 4.15039 79.0527C4.1515 79.0988 4.20201 79.1498 4.24805 79.1504C6.98223 79.1826 9.71699 79.1826 12.4512 79.1504C13.5467 79.1375 11.5508 75.0619 12.6465 75.0488C15.3318 75.0167 18.0178 75.081 20.7031 75.0488C21.3707 75.0408 20.1577 70.8157 20.9961 70.8008C23.6975 70.7528 26.3999 70.8329 29.1016 70.8008C30.198 70.7877 28.1906 66.7262 29.2969 66.6992C30.5986 66.6675 31.9014 66.731 33.2031 66.6992C33.2491 66.6981 33.3002 66.6476 33.3008 66.6016C33.3329 63.8674 33.3329 61.1326 33.3008 58.3984C33.288 57.315 29.2517 59.2798 29.248 58.2031C29.2156 48.584 29.2156 38.9648 29.248 29.3457C29.2482 29.2997 29.2997 29.2492 29.3457 29.248C30.5986 29.2163 31.8526 29.2163 33.1055 29.248C34.2312 29.2765 32.0163 33.3008 33.3984 33.3008C34.7168 33.3008 36.0355 33.3325 37.3535 33.3008C37.6226 33.2943 37.5488 30.7842 37.5488 30.3711C37.5488 28.344 37.3896 26.1695 37.5 24.0723C37.5227 23.6411 37.6627 21.3215 37.5 20.9961C37.5488 20.9473 37.5775 20.8521 37.6465 20.8496C38.9314 20.8026 40.219 20.8026 41.5039 20.8496C41.5729 20.8521 41.6479 20.9271 41.6504 20.9961C41.6974 22.281 41.6187 23.5681 41.6504 24.8535C41.6515 24.8995 41.7121 24.9224 41.748 24.9512C42.1516 25.274 44.2714 25 44.873 25C44.9783 25 45.7967 24.9676 45.8008 25.1953C45.8487 27.8642 45.7686 30.534 45.8008 33.2031C45.8013 33.2492 45.8524 33.2997 45.8984 33.3008C47.2164 33.3325 48.5355 33.3325 49.8535 33.3008C50.1881 33.2927 49.9769 32.319 50 32.2266C50.2564 31.2011 49.9871 29.9725 50 28.9551C50.0354 26.1574 50.0488 23.0572 50.0488 20.3125C50.0488 19.9219 50.0488 19.5312 50.0488 19.1406C50.0488 18.8603 49.8846 16.7607 50.1465 16.748C51.4471 16.6854 52.751 16.7163 54.0527 16.748C54.0988 16.7492 54.1498 16.7997 54.1504 16.8457C54.1825 19.5148 54.1504 22.1842 54.1504 24.8535C54.1504 24.8861 54.1358 24.9221 54.1504 24.9512C54.171 24.9923 54.202 25.0477 54.248 25.0488C55.5497 25.0806 56.8531 25.0018 58.1543 25.0488C58.2233 25.0513 58.2995 25.1263 58.3008 25.1953C58.3487 27.8642 58.2847 30.5339 58.3008 33.2031C58.301 33.2395 58.3278 33.2717 58.3496 33.3008C58.3772 33.3376 58.4012 33.3973 58.4473 33.3984C59.749 33.4302 61.0523 33.3514 62.3535 33.3984C62.4225 33.4009 62.4975 33.4759 62.5 33.5449C62.547 34.8462 62.4682 36.1495 62.5 37.4512C62.5011 37.4972 62.5549 37.5317 62.5977 37.5488C62.755 37.6118 63.2598 37.5 63.4277 37.5C64.2091 37.5 65.0193 37.5488 65.7715 37.5488C65.9207 37.5488 66.6438 37.589 66.6504 37.4023C66.6975 36.0685 66.6186 34.7327 66.6504 33.3984C66.677 32.2809 70.7874 34.3113 70.8008 33.2031C70.8329 30.534 70.7528 27.8642 70.8008 25.1953C70.802 25.1263 70.8783 25.0514 70.9473 25.0488C72.2322 25.0018 73.5193 25.0171 74.8047 25.0488C74.8507 25.05 74.902 25.1004 74.9023 25.1465C74.9346 29.2154 74.8541 33.2848 74.9023 37.3535C74.906 37.6633 75.5137 37.5 75.5859 37.5C76.372 37.5 77.4046 37.3565 78.1738 37.5488C78.3282 37.5874 79.0496 37.3851 79.0527 37.6465C79.0849 40.3318 79.0206 43.0178 79.0527 45.7031C79.0533 45.7492 79.1178 45.7682 79.1504 45.8008C79.1829 45.7682 79.2478 45.7492 79.248 45.7031C79.2804 40.2507 79.2157 34.7981 79.248 29.3457C79.2483 29.2997 79.2997 29.2492 79.3457 29.248C80.5986 29.2163 81.8526 29.2163 83.1055 29.248C83.1515 29.2492 83.2029 29.2997 83.2031 29.3457C83.2355 36.1816 83.1546 43.0177 83.2031 49.8535C83.2036 49.9226 83.2806 49.9984 83.3496 50C84.7165 50.0314 86.0847 49.9988 87.4512 49.9512C87.4972 49.9496 87.5477 49.8995 87.5488 49.8535C87.5806 48.5518 87.5171 47.249 87.5488 45.9473C87.5499 45.9012 87.6004 45.8502 87.6465 45.8496C90.2993 45.8175 92.9527 45.8175 95.6055 45.8496C95.6515 45.8502 95.7028 45.9012 95.7031 45.9473C95.7355 51.3996 95.7355 56.8523 95.7031 62.3047C95.6967 63.3843 91.6767 61.4061 91.6504 62.5C91.6186 63.818 91.7124 65.1382 91.6504 66.4551C91.6461 66.547 91.547 66.6461 91.4551 66.6504C90.1382 66.7124 88.818 66.6186 87.5 66.6504C87.454 66.6515 87.4135 66.7034 87.4023 66.748C87.3157 67.0946 87.4512 67.5583 87.4512 67.9199C87.4512 68.9001 87.3915 69.9035 87.4023 70.8496C87.4182 72.2331 87.4353 73.6165 87.4512 75C87.4671 76.3817 87.1731 77.9744 87.5977 79.248C90.2832 79.248 92.9689 79.2159 95.6543 79.248C96.7507 79.2612 94.7441 83.3236 95.8496 83.3496C97.2001 83.3814 98.5514 83.3496 99.9023 83.3496C99.9268 52.0508 99.9268 52.0508 99.9512 20.752C97.2493 20.7357 94.5471 20.7514 91.8457 20.7031C91.7997 20.7023 91.7486 20.6515 91.748 20.6055C91.7159 17.9527 91.7159 15.2993 91.748 12.6465C91.7486 12.6005 91.7997 12.55 91.8457 12.5488C93.1311 12.5171 94.4174 12.5647 95.7031 12.5488C95.7447 12.5483 95.898 12.4386 95.8984 12.4023C95.9306 9.71699 95.8663 7.03106 95.8984 4.3457C95.899 4.29967 95.9501 4.24917 95.9961 4.24805C97.2978 4.2163 98.6003 4.24805 99.9023 4.24805C99.9268 2.12402 99.9268 2.12402 99.9512 0C68.7256 0 68.7256 0 37.5 0Z" fill="#21b44b" fill-rule="nonzero" opacity="1" stroke="none"/>
<path d="M45.8008 24.9512C45.5457 25.0787 43.1817 24.9512 42.7246 24.9512C42.5692 24.9512 41.7567 25.0428 41.748 24.8047C41.701 23.5035 41.7798 22.2001 41.748 20.8984C41.7461 20.8206 41.5463 20.7525 41.5039 20.752C40.2182 20.7363 38.93 20.6756 37.6465 20.752C37.5316 20.7588 37.4837 20.9147 37.4023 20.9961C37.6681 21.5275 37.371 22.696 37.4023 23.291C37.5252 25.6254 37.4023 28.0355 37.4023 30.3223C37.4023 30.9684 37.3745 31.8081 37.4512 32.4219C37.4587 32.4825 37.4918 33.194 37.3047 33.2031C36.0041 33.2666 34.7001 33.2349 33.3984 33.2031C32.3033 33.1764 34.2981 29.1768 33.2031 29.1504C31.8851 29.1186 30.566 29.1186 29.248 29.1504C29.202 29.1515 29.1505 29.202 29.1504 29.248C29.1179 38.8997 29.1181 48.5515 29.1504 58.2031C29.1553 59.6755 33.2918 57.3654 33.3008 58.4961C33.3331 62.565 33.3008 66.6341 33.3008 70.7031C33.3008 70.7357 33.2862 70.7717 33.3008 70.8008C33.3214 70.842 33.3524 70.8973 33.3984 70.8984C34.6839 70.9302 35.9704 70.8667 37.2559 70.8984C37.3019 70.8996 37.3524 70.9501 37.3535 70.9961C37.3852 72.2652 37.3218 73.5356 37.3535 74.8047C37.3561 74.9089 37.4446 75.047 37.5488 75.0488C40.2665 75.0971 42.9852 75.0167 45.7031 75.0488C46.7994 75.0618 44.7929 79.1244 45.8984 79.1504C54.1969 79.3456 62.5 79.1992 70.8008 79.1992C72.1518 79.1992 73.5033 79.198 74.8535 79.1504C74.8995 79.1488 74.95 79.0988 74.9512 79.0527C74.9829 77.7673 74.8893 76.4796 74.9512 75.1953C74.9556 75.1033 75.0544 75.0022 75.1465 75C77.8313 74.9365 80.5176 75 83.2031 75C83.2625 75 83.397 75.023 83.3984 74.9023C83.4306 72.217 83.3663 69.5311 83.3984 66.8457C83.399 66.7997 83.4501 66.7492 83.4961 66.748C84.7978 66.7163 86.1003 66.748 87.4023 66.748C87.4349 66.748 87.4674 66.748 87.5 66.748C88.8509 66.748 90.2022 66.7798 91.5527 66.748C91.5954 66.747 91.7478 66.5126 91.748 66.5039C91.7794 65.2022 91.7163 63.8994 91.748 62.5977C91.7747 61.5036 95.7944 63.482 95.8008 62.4023C95.8331 56.9011 95.8492 51.3995 95.8008 45.8984C95.8002 45.8294 95.7233 45.7532 95.6543 45.752C92.9855 45.704 90.315 45.6884 87.6465 45.752C87.5544 45.7541 87.4556 45.8553 87.4512 45.9473C87.3893 47.2316 87.3893 48.5204 87.4512 49.8047C87.467 50.1331 88.453 49.9907 88.5742 50C89.4661 50.0686 90.4463 49.9663 91.3574 50C91.3988 50.0015 91.6006 50.0678 91.6016 50.1465C91.6337 52.8156 91.6337 55.4852 91.6016 58.1543C91.601 58.2003 91.5499 58.2508 91.5039 58.252C90.2348 58.2837 88.9644 58.2837 87.6953 58.252C87.6493 58.2508 87.5982 58.2003 87.5977 58.1543C87.5655 55.4852 87.6298 52.8156 87.5977 50.1465C87.5973 50.1201 87.3112 49.9513 87.3047 49.9512C86.003 49.9194 84.7001 49.9829 83.3984 49.9512C83.3524 49.95 83.301 49.8995 83.3008 49.8535C83.2684 42.9851 83.3332 36.1165 83.3008 29.248C83.3006 29.202 83.2491 29.1515 83.2031 29.1504C81.8851 29.1186 80.566 29.1186 79.248 29.1504C79.202 29.1515 79.1507 29.202 79.1504 29.248C79.118 34.7004 79.1827 40.1531 79.1504 45.6055C79.1501 45.6515 79.0987 45.701 79.0527 45.7031C78.3861 45.7341 77.7174 45.6721 77.0508 45.7031C77.0048 45.7053 76.9857 45.7682 76.9531 45.8008C77.4596 46.3073 79.0419 45.5622 79.0527 45.9961C79.0845 47.2652 79.0845 48.5356 79.0527 49.8047C79.046 50.0738 77.2963 49.9023 76.6602 49.9023C76.3938 49.9023 75.4785 50.0781 75.2441 49.9023C75.2073 49.8747 75.1486 49.8507 75.1465 49.8047C75.1154 49.1218 75.1775 48.4368 75.1465 47.7539C75.1191 47.1514 75.0814 46.5495 75.0488 45.9473C75.0463 45.9013 74.9837 45.8822 74.9512 45.8496C74.9186 45.8822 74.8546 45.9012 74.8535 45.9473C74.8218 47.2327 74.9005 48.5197 74.8535 49.8047C74.851 49.8737 74.7756 49.9431 74.707 49.9512C73.4895 50.0944 72.0711 49.9023 70.8496 49.9023C68.0805 49.9023 65.4166 49.9203 62.6465 49.8535C62.5774 49.8519 62.5027 49.776 62.5 49.707C62.4531 48.5035 62.4531 47.2973 62.5 46.0937C62.5027 46.0247 62.5775 45.9498 62.6465 45.9473C63.9314 45.9003 65.2185 45.979 66.5039 45.9473C66.5499 45.9461 66.569 45.8822 66.6016 45.8496C66.569 45.8171 66.5499 45.7531 66.5039 45.752C65.2348 45.7202 63.9644 45.7837 62.6953 45.752C62.6493 45.7508 62.5988 45.7003 62.5977 45.6543C62.4981 41.5732 62.6939 37.4896 62.5977 33.3984C62.5966 33.3524 62.5326 33.3333 62.5 33.3008C62.4674 33.3171 62.4387 33.3496 62.4023 33.3496C61.1002 33.3496 59.7974 33.3484 58.4961 33.3008C58.4501 33.2991 58.399 33.2492 58.3984 33.2031C58.3663 30.5015 58.4306 27.7993 58.3984 25.0977C58.3975 25.0198 58.1956 24.9517 58.1543 24.9512C56.8849 24.9355 55.6148 24.9829 54.3457 24.9512C54.2997 24.95 54.2486 24.8995 54.248 24.8535C54.2159 22.1519 54.2802 19.4497 54.248 16.748C54.2475 16.702 54.1916 16.671 54.1504 16.6504C54.1213 16.6358 54.0853 16.6504 54.0527 16.6504C52.7344 16.6504 51.4156 16.6186 50.0977 16.6504C49.7708 16.6583 49.9512 19.6215 49.9512 19.873C49.9512 20.0043 49.9023 20.1324 49.9023 20.2637C49.9023 23.2938 49.9023 26.649 49.9023 29.6875C49.9023 30.4897 50.1015 31.43 49.9023 32.2266C49.8386 32.4817 50.0379 32.8343 49.9023 33.1055C49.8818 33.1466 49.8507 33.202 49.8047 33.2031C48.5356 33.2349 47.2652 33.2349 45.9961 33.2031C45.9501 33.202 45.899 33.1515 45.8984 33.1055C45.8663 30.4201 45.9306 27.7342 45.8984 25.0488C45.8979 25.0028 45.8333 24.9837 45.8008 24.9512Z" fill="#fce7d7" fill-rule="nonzero" opacity="1" stroke="none"/>
<path d="M33.3008 58.3008C33.2682 58.3333 33.2037 58.3524 33.2031 58.3984C33.171 61.1001 33.2353 63.8023 33.2031 66.5039C33.2026 66.5499 33.1515 66.6004 33.1055 66.6016C31.8363 66.6333 30.5649 66.5397 29.2969 66.6016C28.0623 66.6618 30.1173 70.6898 29.0039 70.7031C26.3186 70.7353 23.6326 70.671 20.9473 70.7031C20.9046 70.7036 20.7521 70.9392 20.752 70.9473C20.7206 72.249 20.7837 73.5518 20.752 74.8535C20.7508 74.8995 20.7003 74.9506 20.6543 74.9512C17.9527 74.9833 15.2505 74.919 12.5488 74.9512C11.4531 74.9642 13.4493 79.0395 12.3535 79.0527C9.68444 79.0849 7.01478 79.0849 4.3457 79.0527C4.29967 79.0522 4.24918 79.0011 4.24805 78.9551C4.21631 77.6697 4.21631 76.3831 4.24805 75.0977C4.24918 75.0516 4.30453 75.0206 4.3457 75C4.7182 74.8138 6.86517 75.0488 7.32422 75.0488C7.44219 75.0488 8.3456 75.028 8.34961 74.8047C8.39755 72.1358 8.39755 69.4657 8.34961 66.7969C8.34837 66.7278 8.27217 66.6516 8.20312 66.6504C5.48545 66.6024 2.76693 66.6504 0.0488281 66.6504C0.0244141 83.3008 0.0244141 83.3008 0 99.9512C10.4004 99.9512 10.4004 99.9512 20.8008 99.9512C20.8171 98.6328 20.802 97.3137 20.8496 95.9961C20.8513 95.9501 20.9012 95.8996 20.9473 95.8984C22.249 95.8667 23.5529 95.9604 24.8535 95.8984C26.1112 95.8385 24.0099 91.7129 25.1465 91.6992C27.8156 91.6671 30.4852 91.7314 33.1543 91.6992C33.2585 91.698 33.3946 91.6081 33.3984 91.5039C33.446 90.2027 33.3667 88.8993 33.3984 87.5977C33.3996 87.5516 33.4501 87.5011 33.4961 87.5C34.7652 87.4683 36.0367 87.5619 37.3047 87.5C37.3591 87.4973 37.5963 87.2126 37.5977 87.1094C37.6135 85.8888 37.566 84.6676 37.5977 83.4473C37.5989 83.4012 37.6493 83.35 37.6953 83.3496C41.7479 83.3173 45.8009 83.3819 49.8535 83.3496C49.8995 83.3492 49.9501 83.298 49.9512 83.252C49.9829 81.9177 49.9194 80.5823 49.9512 79.248C49.9523 79.202 50.0163 79.1829 50.0488 79.1504C50.0163 79.1178 49.9972 79.0538 49.9512 79.0527C48.6332 79.021 47.3141 79.0845 45.9961 79.0527C45.9501 79.0516 45.8996 79.0011 45.8984 78.9551C45.8667 77.6534 45.9302 76.3505 45.8984 75.0488C45.8973 75.0028 45.842 74.9718 45.8008 74.9512C45.7717 74.9366 45.7357 74.9512 45.7031 74.9512C43.0013 74.9512 40.2991 74.9991 37.5977 74.9512C37.5286 74.9499 37.4537 74.8737 37.4512 74.8047C37.4041 73.5035 37.4829 72.2001 37.4512 70.8984C37.4245 69.8042 33.407 71.7845 33.3984 70.7031C33.3661 66.6017 33.4307 62.4999 33.3984 58.3984C33.3981 58.3524 33.3333 58.3333 33.3008 58.3008Z" fill="#663035" fill-rule="nonzero" opacity="1" stroke="none"/>
<path d="M0.0488281 33.2031C0.0244141 45.7275 0.0244141 45.7275 0 58.252C2.73437 58.2682 5.46889 58.3328 8.20312 58.3008C9.35301 58.2873 7.35258 54.2044 8.44727 54.1992C15.3157 54.1668 22.1843 54.2316 29.0527 54.1992C29.0988 54.199 29.1499 54.1476 29.1504 54.1016C29.1826 51.3348 29.1826 48.5675 29.1504 45.8008C29.126 43.7052 20.8595 47.6888 20.8496 45.6055C20.8172 38.7696 20.8981 31.9334 20.8496 25.0977C20.8491 25.0286 20.7721 24.9536 20.7031 24.9512C19.3856 24.9041 18.0656 24.9041 16.748 24.9512C15.5774 24.993 17.6174 29.0252 16.5039 29.0527C15.2185 29.0845 13.9319 29.0845 12.6465 29.0527C12.469 29.0484 12.4831 28.2904 12.5 28.2227C12.6856 27.4803 12.5488 26.3968 12.5488 25.6348C12.5488 25.5541 12.5575 25.0049 12.3535 25C11.0355 24.9682 9.7168 25 8.39844 25C8.36589 25 8.3299 24.9854 8.30078 25C8.25961 25.0206 8.20368 25.0516 8.20312 25.0977C8.17097 27.7667 8.23528 30.4364 8.20312 33.1055C8.20257 33.1515 8.1515 33.2026 8.10547 33.2031C5.42011 33.2353 2.73437 33.2031 0.0488281 33.2031Z" fill="#663035" fill-rule="nonzero" opacity="1" stroke="none"/>
<path d="M62.5 95.6055C62.4674 95.638 62.4484 95.7026 62.4023 95.7031C59.6519 95.7353 56.901 95.7031 54.1504 95.7031C51.4323 95.7031 48.714 95.7357 45.9961 95.7031C45.9501 95.7026 45.8996 95.6515 45.8984 95.6055C45.8667 94.3201 45.9302 93.0335 45.8984 91.748C45.8965 91.6705 45.6967 91.6018 45.6543 91.6016C43.0013 91.5856 40.3481 91.6337 37.6953 91.6016C37.6493 91.601 37.5988 91.5499 37.5977 91.5039C37.5659 90.251 37.6294 88.997 37.5977 87.7441C37.595 87.64 37.5065 87.5037 37.4023 87.5C36.0686 87.4524 34.7327 87.4682 33.3984 87.5C32.2878 87.5264 34.3104 91.5809 33.1543 91.6016C30.4692 91.6495 27.7828 91.5536 25.0977 91.6016C25.0286 91.6028 24.9536 91.679 24.9512 91.748C24.9041 93.0656 24.9829 94.3851 24.9512 95.7031C24.9238 96.8396 20.7946 94.7529 20.752 95.9473C20.7049 97.2648 20.752 98.584 20.752 99.9023C58.252 99.9268 58.252 99.9268 95.752 99.9512C95.7682 98.6003 95.8167 97.2494 95.8008 95.8984C95.788 94.8145 91.7609 96.7872 91.748 95.7031C91.7159 93.0015 91.7802 90.2993 91.748 87.5977C91.7471 87.5201 91.5452 87.4514 91.5039 87.4512C88.8021 87.4352 86.0998 87.4032 83.3984 87.4512C82.2434 87.4717 84.2507 91.5462 83.1543 91.5527C77.6856 91.5851 72.2167 91.5204 66.748 91.5527C65.6453 91.5593 67.6701 95.6762 66.5527 95.7031C65.2348 95.7349 63.9156 95.7349 62.5977 95.7031C62.5516 95.702 62.5326 95.638 62.5 95.6055Z" fill="#02a6fd" fill-rule="nonzero" opacity="1" stroke="none"/>
<path d="M95.7031 99.9023C97.8271 99.9268 97.8271 99.9268 99.9512 99.9512C99.9512 91.626 99.9512 91.626 99.9512 83.3008C98.6165 83.2845 97.2811 83.2996 95.9473 83.252C95.9013 83.2503 95.8507 83.2003 95.8496 83.1543C95.8179 81.8689 95.8966 80.5818 95.8496 79.2969C95.8471 79.2279 95.7722 79.1516 95.7031 79.1504C93.0343 79.1024 90.3642 79.1983 87.6953 79.1504C87.6263 79.1491 87.5731 79.0686 87.5488 79.0039C87.2778 78.2811 87.5488 76.2095 87.5488 75.5371C87.5488 73.5536 87.5488 71.5602 87.5488 69.6289C87.5488 68.8373 87.5 68.0342 87.5 67.2363C87.5 67.1147 87.6457 66.6562 87.4023 66.6504C86.0681 66.6186 84.7327 66.6186 83.3984 66.6504C83.3524 66.6515 83.3013 66.702 83.3008 66.748C83.2686 69.4334 83.3329 72.1193 83.3008 74.8047C83.3002 74.8507 83.2492 74.9018 83.2031 74.9023C80.4852 74.9345 77.7667 74.8702 75.0488 74.9023C75.0224 74.9027 74.8537 75.1887 74.8535 75.1953C74.8218 76.4482 74.8852 77.7022 74.8535 78.9551C74.8523 79.0011 74.8019 79.0516 74.7559 79.0527C73.4542 79.0845 72.1513 79.021 70.8496 79.0527C70.7289 79.0557 70.752 79.1876 70.752 79.248C70.752 80.5339 70.7202 81.8201 70.752 83.1055C70.7537 83.1782 70.8171 83.2357 70.8496 83.3008C70.8702 83.342 70.9012 83.3981 70.9473 83.3984C74.9999 83.4307 79.0529 83.3661 83.1055 83.3984C84.1919 83.4071 82.206 87.4307 83.3496 87.4512C86.0347 87.4991 88.7219 87.3722 91.4062 87.4512C91.5213 87.4546 91.647 87.5803 91.6504 87.6953C91.7293 90.3634 91.6504 93.0339 91.6504 95.7031C91.6504 95.7357 91.6358 95.7717 91.6504 95.8008C91.671 95.842 91.702 95.8973 91.748 95.8984C93.0335 95.9302 94.3201 95.8667 95.6055 95.8984C95.6515 95.8996 95.702 95.9501 95.7031 95.9961C95.7349 97.2978 95.7031 98.6003 95.7031 99.9023Z" fill="#663035" fill-rule="nonzero" opacity="1" stroke="none"/>
<path d="M0 0C0 12.4756 0 12.4756 0 24.9512C1.35091 24.9674 2.70209 25.0314 4.05273 25C5.2251 24.9727 3.17313 20.8774 4.29687 20.8496C5.58229 20.8179 6.86998 20.9115 8.1543 20.8496C8.24626 20.8452 8.34518 20.7463 8.34961 20.6543C8.4115 19.37 8.31787 18.0823 8.34961 16.7969C8.37734 15.6738 12.4794 17.7204 12.5 16.5527C12.548 13.8351 12.4678 11.1163 12.5 8.39844C12.5131 7.29044 16.6228 9.32137 16.6504 8.20312C16.6821 6.91771 16.6187 5.63112 16.6504 4.3457C16.6515 4.29968 16.702 4.24918 16.748 4.24805C18.0335 4.21631 19.3201 4.21631 20.6055 4.24805C20.6515 4.24918 20.7026 4.29967 20.7031 4.3457C20.7353 7.01478 20.671 9.68444 20.7031 12.3535C20.7037 12.3995 20.7682 12.4186 20.8008 12.4512C20.8333 12.4186 20.8979 12.3995 20.8984 12.3535C20.9306 9.65188 20.8984 6.94987 20.8984 4.24805C20.8984 4.14773 20.8506 4.039 20.8496 3.95508C20.8337 2.65309 20.8496 1.35091 20.8496 0.0488281C10.4248 0.0244141 10.4248 0.0244141 0 0Z" fill="#663035" fill-rule="nonzero" opacity="1" stroke="none"/>
<path d="M62.5488 95.6543C62.3686 95.2938 62.5488 94.6973 62.5488 94.2871C62.5488 93.011 62.5488 91.8714 62.5488 90.625C62.5488 90.0861 62.3599 88.0732 62.5488 87.6953C62.5698 87.6534 62.6332 87.5007 62.6953 87.5C65.3644 87.4678 68.0343 87.5479 70.7031 87.5C70.7722 87.4988 70.8473 87.4225 70.8496 87.3535C70.8967 85.9709 70.8496 84.5866 70.8496 83.2031C70.8496 81.8848 70.8657 80.5663 70.8496 79.248C70.849 79.1966 70.8171 79.1504 70.8008 79.1016C63.8672 79.1016 56.9335 79.0692 50 79.1016C49.954 79.1018 49.9026 79.1532 49.9023 79.1992C49.8863 81.9173 49.9029 84.6358 49.9512 87.3535C49.9558 87.6148 50.8781 87.5488 50.9766 87.5488C51.7296 87.5488 52.5091 87.5488 53.2227 87.5488C53.296 87.5488 54.0499 87.4064 54.0527 87.6465C54.0849 90.3318 54.0206 93.0178 54.0527 95.7031C54.0533 95.7492 54.1044 95.8002 54.1504 95.8008C56.9009 95.8329 59.6521 95.8487 62.4023 95.8008C62.4714 95.7996 62.5 95.7031 62.5488 95.6543Z" fill="#fca3a9" fill-rule="nonzero" opacity="1" stroke="none"/>
<path d="M70.8496 83.1055C70.8171 83.138 70.753 83.1571 70.752 83.2031C70.7202 84.5699 70.7837 85.9379 70.752 87.3047C70.7509 87.3507 70.7003 87.4018 70.6543 87.4023C67.9689 87.4345 65.283 87.3702 62.5977 87.4023C62.3197 87.4057 62.48 89.087 62.4512 89.4043C62.3554 90.4579 62.2324 92.3886 62.4023 93.4082C62.4719 93.8254 62.5853 95.2395 62.4023 95.6055C62.4674 95.6706 62.5057 95.7965 62.5977 95.8008C63.9146 95.8628 65.2344 95.8008 66.5527 95.8008C67.9733 95.8008 65.7074 91.6571 66.8457 91.6504C72.2981 91.618 77.7509 91.6988 83.2031 91.6504C84.351 91.6402 82.3471 87.5619 83.4473 87.5488C86.1489 87.5167 88.8511 87.581 91.5527 87.5488C91.5988 87.5483 91.6178 87.4837 91.6504 87.4512C91.6178 87.4186 91.5988 87.3541 91.5527 87.3535C88.8348 87.3213 86.1163 87.3857 83.3984 87.3535C82.3147 87.3407 84.2838 83.3094 83.2031 83.3008C79.1505 83.2685 75.0971 83.3648 71.0449 83.3008C70.9529 83.2993 70.9147 83.1706 70.8496 83.1055Z" fill="#4b51a6" fill-rule="nonzero" opacity="1" stroke="none"/>
<path d="M49.9512 79.1504C49.9186 79.1829 49.8546 79.202 49.8535 79.248C49.8218 80.5497 49.8853 81.8526 49.8535 83.1543C49.8524 83.2003 49.8019 83.2516 49.7559 83.252C45.7195 83.2842 41.6827 83.2037 37.6465 83.252C37.5774 83.2528 37.5026 83.3294 37.5 83.3984C37.4531 84.6345 37.5159 85.8725 37.5 87.1094C37.4993 87.1631 37.3634 87.4009 37.3047 87.4023C36.003 87.4341 34.7001 87.3706 33.3984 87.4023C33.3524 87.4035 33.3333 87.4674 33.3008 87.5C33.3333 87.5325 33.3524 87.5965 33.3984 87.5977C34.7164 87.6294 36.036 87.5506 37.3535 87.5977C38.5282 87.6396 36.4843 91.6783 37.6465 91.6992C40.3153 91.7472 42.9855 91.6513 45.6543 91.6992C46.8098 91.72 44.7972 95.7877 45.8984 95.8008C48.6163 95.8329 51.3348 95.8329 54.0527 95.8008C54.0988 95.8002 54.1498 95.7492 54.1504 95.7031C54.1826 93.0015 54.1826 90.2993 54.1504 87.5977C54.1477 87.3726 53.3422 87.4023 53.2715 87.4023C52.5805 87.4023 51.7494 87.3365 51.0254 87.4023C50.978 87.4066 50.0522 87.5841 50.0488 87.3047C50.0167 84.6193 50.081 81.9334 50.0488 79.248C50.0483 79.202 49.9837 79.1829 49.9512 79.1504Z" fill="#4b51a6" fill-rule="nonzero" opacity="1" stroke="none"/>
<path d="M54.1504 54.1504C54.1178 54.1829 54.0539 54.202 54.0527 54.248C54.021 55.5497 54.0845 56.8526 54.0527 58.1543C54.0516 58.2003 54.0011 58.2508 53.9551 58.252C52.6697 58.2837 51.3834 58.2363 50.0977 58.252C50.0462 58.2526 50 58.2845 49.9512 58.3008C49.9512 61.0514 49.919 63.8023 49.9512 66.5527C49.9517 66.5988 50.0028 66.6501 50.0488 66.6504C55.55 66.6827 61.0515 66.6827 66.5527 66.6504C66.5988 66.6501 66.6498 66.5988 66.6504 66.5527C66.6826 63.8348 66.6826 61.1163 66.6504 58.3984C66.6498 58.3524 66.5988 58.3011 66.5527 58.3008C62.5001 58.2685 58.447 58.349 54.3945 58.3008C54.3255 58.3 54.2505 58.2233 54.248 58.1543C54.201 56.8531 54.2798 55.5497 54.248 54.248C54.2469 54.202 54.1829 54.1829 54.1504 54.1504Z" fill="#fca3a9" fill-rule="nonzero" opacity="1" stroke="none"/>
<path d="M33.3008 0C33.2845 1.31836 33.2996 2.63748 33.252 3.95508C33.2503 4.00108 33.2003 4.05161 33.1543 4.05273C31.8526 4.08448 30.5497 4.02099 29.248 4.05273C29.202 4.05386 29.171 4.10922 29.1504 4.15039C29.1358 4.17951 29.1504 4.21549 29.1504 4.24805C29.1504 5.56641 29.1821 6.88515 29.1504 8.20312C29.1493 8.24915 29.0988 8.29967 29.0527 8.30078C27.7348 8.33254 26.4156 8.26902 25.0977 8.30078C24.7872 8.30826 24.9217 9.20094 24.9023 9.375C24.8057 10.2452 24.7782 11.4848 24.9023 12.3535C24.9478 12.6719 25.676 12.4771 25.9277 12.5C26.7836 12.5778 27.7287 12.6248 28.5645 12.5488C28.6368 12.5423 29.1862 12.5715 29.1992 12.3047C29.2611 11.0367 29.1675 9.76523 29.1992 8.49609C29.2004 8.45007 29.2508 8.399 29.2969 8.39844C31.9497 8.36628 34.6031 8.36628 37.2559 8.39844C37.3019 8.399 37.3524 8.45007 37.3535 8.49609C37.3853 9.78151 37.3218 11.0681 37.3535 12.3535C37.3547 12.3995 37.4186 12.4186 37.4512 12.4512C37.4837 12.4186 37.5477 12.3995 37.5488 12.3535C37.5806 11.0681 37.5171 9.78151 37.5488 8.49609C37.55 8.45007 37.6005 8.39957 37.6465 8.39844C38.9319 8.3667 40.2185 8.3667 41.5039 8.39844C41.5499 8.39957 41.6004 8.45007 41.6016 8.49609C41.6333 9.79779 41.5698 11.1006 41.6016 12.4023C41.6056 12.5661 42.3695 12.5488 42.4316 12.5488C43.3965 12.5488 44.6906 12.7318 45.6055 12.5488C45.6209 12.5457 45.8977 12.3828 45.8984 12.3535C45.9302 11.0681 45.8667 9.78151 45.8984 8.49609C45.8996 8.45007 45.9501 8.39957 45.9961 8.39844C47.2815 8.3667 48.5681 8.43018 49.8535 8.39844C50.122 8.39181 50 7.38536 50 7.32422C50 6.44564 50 5.61929 50 4.73633C50 4.63443 50.1347 4.15538 49.8535 4.15039C47.1521 4.10244 44.4497 4.11823 41.748 4.15039C40.6633 4.1633 42.6472 8.17643 41.5527 8.20312C40.251 8.23487 38.9482 8.23487 37.6465 8.20312C37.3896 8.19686 37.5852 5.96756 37.5488 5.71289C37.4753 5.19853 37.5 4.56256 37.5 4.10156C37.5 2.75055 37.5326 1.39974 37.5488 0.0488281C35.4248 0.0244141 35.4248 0.0244141 33.3008 0Z" fill="#f69524" fill-rule="nonzero" opacity="1" stroke="none"/>
<path d="M75 4.15039C74.954 4.15147 74.9029 4.20201 74.9023 4.24805C74.8702 6.94968 74.9345 9.65188 74.9023 12.3535C74.8889 13.4784 70.812 11.4003 70.752 12.6465C70.6901 13.9308 70.7049 15.219 70.752 16.5039C70.7545 16.5729 70.8294 16.6479 70.8984 16.6504C72.1834 16.6974 73.4715 16.5885 74.7559 16.6504C74.9961 16.662 74.9771 17.227 74.9512 17.3828C74.8149 18.2003 74.9512 19.1608 74.9512 19.9707C74.9512 20.0563 74.8006 20.7949 75.0488 20.8008C76.3831 20.8325 77.7181 20.8008 79.0527 20.8008C79.0853 20.8008 79.1213 20.8153 79.1504 20.8008C79.1916 20.7802 79.2469 20.7491 79.248 20.7031C79.2798 19.4177 79.2163 18.1311 79.248 16.8457C79.2492 16.7997 79.2997 16.7492 79.3457 16.748C80.6311 16.7163 81.9177 16.7798 83.2031 16.748C83.2491 16.7469 83.2802 16.6916 83.3008 16.6504C83.3153 16.6213 83.3008 16.5853 83.3008 16.5527C83.3008 13.8346 83.3008 11.1165 83.3008 8.39844C83.3008 7.01631 79.2758 9.23069 79.248 8.10547C79.2163 6.82005 79.2798 5.53346 79.248 4.24805C79.2451 4.12737 79.1132 4.15039 79.0527 4.15039C77.7018 4.15039 76.3505 4.11861 75 4.15039Z" fill="#f69524" fill-rule="nonzero" opacity="1" stroke="none"/>
<path d="M66.6504 33.3008C65.6241 34.327 67.4813 36.4249 66.4551 37.4512C66.0226 37.2349 64.0084 37.4512 63.4766 37.4512C63.3525 37.4512 62.505 37.3357 62.5 37.5488C62.4682 38.8994 62.4682 40.251 62.5 41.6016C62.5011 41.6476 62.5516 41.6981 62.5977 41.6992C65.2349 41.7643 68.0657 41.6539 70.7031 41.748C71.8737 41.7899 69.8349 45.8237 70.9473 45.8496C72.3141 45.8814 73.6816 45.8496 75.0488 45.8496C75.6999 45.8496 76.351 45.8577 77.002 45.8496C77.6857 45.8411 78.3705 45.8473 79.0527 45.8008C79.0987 45.7976 79.1498 45.7492 79.1504 45.7031C79.1826 42.9689 79.1826 40.2342 79.1504 37.5C79.1481 37.3036 78.311 37.4855 78.1738 37.4512C77.5834 37.3036 75.3141 37.6676 74.9512 37.3047C74.628 37.6278 73.432 37.4512 72.998 37.4512C71.5177 37.4512 70.047 37.3221 68.6035 37.4023C68.343 37.4168 68.0828 37.4367 67.8223 37.4512C67.7088 37.4575 66.7526 37.4904 66.748 37.3047C66.7163 36.003 66.7798 34.7001 66.748 33.3984C66.7469 33.3524 66.6829 33.3333 66.6504 33.3008Z" fill="#4b51a6" fill-rule="nonzero" opacity="1" stroke="none"/>
<path d="M99.9023 20.8008C99.9268 12.5 99.9268 12.5 99.9512 4.19922C98.6003 4.18294 97.2494 4.1345 95.8984 4.15039C95.8524 4.15093 95.8013 4.20201 95.8008 4.24805C95.7686 6.94968 95.8329 9.65188 95.8008 12.3535C95.7876 13.4608 91.6635 11.4416 91.6504 12.5488C91.6182 15.2667 91.6182 17.9852 91.6504 20.7031C91.6509 20.7492 91.702 20.8002 91.748 20.8008C94.466 20.8329 97.1842 20.8008 99.9023 20.8008Z" fill="#f69524" fill-rule="nonzero" opacity="1" stroke="none"/>
<path d="M24.9023 0C24.8861 1.31836 24.9011 2.63748 24.8535 3.95508C24.8519 4.00108 24.8019 4.0516 24.7559 4.05273C23.4704 4.08447 22.1839 4.021 20.8984 4.05273C20.7778 4.05571 20.8008 4.18758 20.8008 4.24805C20.8008 6.94987 20.7686 9.65188 20.8008 12.3535C20.8013 12.3995 20.8524 12.4501 20.8984 12.4512C22.2327 12.4829 23.5681 12.4829 24.9023 12.4512C24.9484 12.4501 24.9854 12.3972 25 12.3535C25.2622 11.567 25 10.1984 25 9.375C25 9.19347 24.9319 8.4061 25.1465 8.39844C26.464 8.35138 27.784 8.44549 29.1016 8.39844C29.1706 8.39597 29.2456 8.32096 29.248 8.25195C29.2951 6.91815 29.2163 5.5823 29.248 4.24805C29.2745 3.13528 33.3078 5.17451 33.3496 4.00391C33.3967 2.68639 33.3496 1.36719 33.3496 0.0488281C29.126 0.0244141 29.126 0.0244141 24.9023 0Z" fill="#fcfcf8" fill-rule="nonzero" opacity="1" stroke="none"/>
<path d="M33.4473 37.4512C33.3552 37.4523 33.2564 37.5545 33.252 37.6465C33.1901 38.9145 33.2202 40.1859 33.252 41.4551C33.2546 41.5593 33.3431 41.6974 33.4473 41.6992C36.1487 41.7475 38.8511 41.6671 41.5527 41.6992C42.9362 41.7157 44.3199 41.7159 45.7031 41.748C46.8637 41.775 44.8355 45.8225 45.9473 45.8496C47.249 45.8814 48.5523 45.8966 49.8535 45.8496C49.9225 45.8471 49.9988 45.7722 50 45.7031C50.048 42.9854 50.0322 40.2667 50 37.5488C49.9995 37.5028 49.9484 37.4514 49.9023 37.4512C44.4174 37.4188 38.9319 37.3868 33.4473 37.4512Z" fill="#4b51a6" fill-rule="nonzero" opacity="1" stroke="none"/>
<path d="M70.9473 24.9512C70.8132 25.0852 70.8933 25.0343 70.7031 25.0977C70.7031 27.7669 70.7353 30.4364 70.7031 33.1055C70.6898 34.2075 66.6289 32.1895 66.6016 33.3496C66.5702 34.684 66.5876 36.0203 66.6504 37.3535C66.6536 37.4225 66.7377 37.4645 66.7969 37.5C67.1517 37.7129 68.4718 37.5654 68.7988 37.5C69.0672 37.4463 69.6369 37.5488 69.873 37.5488C70.8963 37.5488 71.9524 37.5488 72.998 37.5488C73.1623 37.5488 74.9967 37.6302 75 37.3535C75.0482 33.2522 75.0323 29.1503 75 25.0488C74.9996 25.0028 74.9349 24.9837 70.9473 24.9512Z" fill="#fce7d7" fill-rule="nonzero" opacity="1" stroke="none"/>
<path d="M33.3496 41.4551C33.2195 41.5852 33.252 41.6702 33.252 41.8457C33.252 43.1152 33.1901 44.3863 33.252 45.6543C33.2564 45.7463 33.3552 45.8474 33.4473 45.8496C36.0995 45.9131 38.7534 45.8175 41.4062 45.8496C41.4523 45.8502 41.5028 45.9012 41.5039 45.9473C41.5357 47.249 41.4722 48.5518 41.5039 49.8535C41.505 49.8995 41.569 49.9186 41.6016 49.9512C41.6341 49.9186 41.6981 49.8995 41.6992 49.8535C41.731 48.5681 41.6522 47.281 41.6992 45.9961C41.7017 45.9271 41.7767 45.8522 41.8457 45.8496C43.1144 45.8026 44.3852 45.8813 45.6543 45.8496C45.7003 45.8485 45.7194 45.7845 45.752 45.752C45.7194 45.7194 45.7003 45.6554 45.6543 45.6543C44.3852 45.6226 43.1148 45.686 41.8457 45.6543C41.7997 45.6531 41.7492 45.6027 41.748 45.5566C41.7163 44.3038 41.8099 43.0486 41.748 41.7969C41.7435 41.7049 41.6448 41.6037 41.5527 41.6016C38.8679 41.538 36.1812 41.6495 33.4961 41.6016C33.4271 41.6003 33.3984 41.5039 33.3496 41.4551Z" fill="#c2c1c2" fill-rule="nonzero" opacity="1" stroke="none"/>
<path d="M45.8496 41.6504C45.8171 41.6829 45.7531 41.702 45.752 41.748C45.7202 43.0497 45.7837 44.3526 45.752 45.6543C45.7508 45.7003 45.7003 45.7508 45.6543 45.752C44.3852 45.7837 43.1129 45.6756 41.8457 45.752C41.7308 45.7589 41.6084 45.8812 41.6016 45.9961C41.5252 47.2796 41.5546 48.5686 41.6016 49.8535C41.6106 50.1007 42.2313 49.9836 42.7734 50C43.4347 50.02 44.0617 50.0488 44.7266 50.0488C46.4224 50.0488 47.8984 50.0488 49.707 50.0488C49.7434 50.0488 49.7771 50.0237 49.8047 50C50.6501 49.2754 49.6514 46.6444 50.0488 45.8496C50 45.8008 49.9714 45.7048 49.9023 45.7031C48.6168 45.6718 47.3307 45.7678 46.0449 45.752C45.9989 45.7514 45.9484 45.7003 45.9473 45.6543C45.9155 44.3526 45.979 43.0497 45.9473 41.748C45.9461 41.702 45.8822 41.6829 45.8496 41.6504Z" fill="#af6a90" fill-rule="nonzero" opacity="1" stroke="none"/>
<path d="M70.8496 41.6504C70.8171 41.6829 70.7531 41.702 70.752 41.748C70.7202 43.0497 70.7837 44.3526 70.752 45.6543C70.7508 45.7003 70.7003 45.7508 70.6543 45.752C69.3852 45.7837 68.1129 45.6756 66.8457 45.752C66.7308 45.7589 66.6084 45.8812 66.6016 45.9961C66.5252 47.2796 66.5546 48.5686 66.6016 49.8535C66.6098 50.0777 68.1979 50.0488 68.5547 50.0488C69.9649 50.0488 71.3857 50 72.8027 50C73.171 50 74.4776 50.1879 74.8535 50C74.8947 49.9794 74.95 49.9484 74.9512 49.9023C74.9829 48.6169 74.8893 47.3292 74.9512 46.0449C74.9556 45.953 75.0814 45.9147 75.1465 45.8496C75.1139 45.8171 75.0948 45.753 75.0488 45.752C73.7146 45.7202 72.3792 45.7837 71.0449 45.752C70.9989 45.7509 70.9484 45.7003 70.9473 45.6543C70.9155 44.3526 70.979 43.0497 70.9473 41.748C70.9461 41.702 70.8822 41.6829 70.8496 41.6504Z" fill="#af6a90" fill-rule="nonzero" opacity="1" stroke="none"/>
<path d="M87.5 49.8047C86.1328 49.821 84.7649 49.8058 83.3984 49.8535C83.3524 49.8551 83.3333 49.9186 83.3008 49.9512C83.3333 49.9837 83.3524 50.0477 83.3984 50.0488C84.7001 50.0806 86.0041 49.9869 87.3047 50.0488C87.3967 50.0532 87.4978 50.1521 87.5 50.2441C87.5635 52.9127 87.4678 55.5829 87.5 58.252C87.5006 58.298 87.5516 58.3485 87.5977 58.3496C88.8993 58.3814 90.2033 58.4115 91.5039 58.3496C91.5959 58.3452 91.697 58.2463 91.6992 58.1543C91.7628 55.4695 91.7472 52.7828 91.6992 50.0977C91.698 50.0286 91.6145 49.9821 91.5527 49.9512C91.1449 49.7472 90.6413 49.9192 90.1855 49.9023C89.3314 49.8707 88.495 49.9023 87.5 49.8047Z" fill="#fca3a9" fill-rule="nonzero" opacity="1" stroke="none"/>
<path d="M25.0977 20.8008C25 20.8984 25 20.8984 24.9023 20.9961C25.1039 21.3992 24.9023 22.2864 24.9023 22.7539C24.9023 24.2344 24.9023 25.7149 24.9023 27.1484C24.9023 27.3766 24.8699 29.1448 25.0977 29.1504C26.3994 29.1821 27.7027 29.1974 29.0039 29.1504C29.0729 29.1479 29.1492 29.0729 29.1504 29.0039C29.1983 26.3025 29.1826 23.6001 29.1504 20.8984C29.1498 20.8524 29.0853 20.8333 25.0977 20.8008Z" fill="#fce7d7" fill-rule="nonzero" opacity="1" stroke="none"/>
<path d="M33.3984 45.8496C33.3524 45.8502 33.3019 45.9012 33.3008 45.9473C33.269 47.249 33.2537 48.5523 33.3008 49.8535C33.3074 50.0356 33.5016 49.9993 33.5937 50C35.5957 50.0159 37.5976 50.0488 39.5996 50.0488C39.7802 50.0488 41.5922 50.1129 41.6016 49.8535C41.6486 48.5523 41.6333 47.249 41.6016 45.9473C41.6004 45.9012 41.5499 45.8502 41.5039 45.8496C38.8023 45.8174 36.1001 45.8174 33.3984 45.8496Z" fill="#fcfcf8" fill-rule="nonzero" opacity="1" stroke="none"/>
<path d="M66.6016 49.9512C66.6341 49.9186 66.6981 49.8995 66.6992 49.8535C66.731 48.5681 66.6522 47.281 66.6992 45.9961C66.7017 45.9271 66.7767 45.8522 66.8457 45.8496C68.1144 45.8026 69.3852 45.8813 70.6543 45.8496C70.7003 45.8485 70.7194 45.7845 70.752 45.752C70.7194 45.7194 70.7003 45.6554 70.6543 45.6543C69.3852 45.6226 68.1148 45.686 66.8457 45.6543C66.7997 45.6531 66.7492 45.6027 66.748 45.5566C66.7163 44.2875 66.7798 43.0172 66.748 41.748C66.7469 41.702 66.6931 41.6675 66.6504 41.6504C66.6051 41.6323 66.5527 41.651 66.5039 41.6504C65.2181 41.6347 63.932 41.5702 62.6465 41.6016C62.5774 41.6032 62.5025 41.679 62.5 41.748C62.4529 43.0656 62.4529 44.3856 62.5 45.7031C62.541 46.85 66.4773 44.8576 66.5039 45.9473C66.5357 47.249 66.4722 48.5518 66.5039 49.8535C66.505 49.8995 66.569 49.9186 66.6016 49.9512Z" fill="#c2c1c2" fill-rule="nonzero" opacity="1" stroke="none"/>
<path d="M58.3984 8.30078C58.3524 8.30188 58.3019 8.35241 58.3008 8.39844C58.269 9.73269 58.269 11.0681 58.3008 12.4023C58.3019 12.4484 58.3524 12.4989 58.3984 12.5C59.7327 12.5318 61.0681 12.5318 62.4023 12.5C62.4484 12.4989 62.4989 12.4484 62.5 12.4023C62.5318 11.0681 62.5318 9.73269 62.5 8.39844C62.4989 8.35241 62.4484 8.30188 62.4023 8.30078C61.0681 8.26901 59.7327 8.26901 58.3984 8.30078Z" fill="#f69524" fill-rule="nonzero" opacity="1" stroke="none"/>
<path d="M37.5977 8.30078C37.5488 8.34961 37.4537 8.37826 37.4512 8.44727C37.4042 9.73221 37.4042 11.0197 37.4512 12.3047C37.4537 12.3737 37.5286 12.4486 37.5977 12.4512C38.8826 12.4982 40.1697 12.4194 41.4551 12.4512C41.5011 12.4523 41.5202 12.5163 41.5527 12.5488C41.6016 12.5 41.6968 12.4714 41.6992 12.4023C41.7463 11.0848 41.7463 9.76478 41.6992 8.44727C41.6968 8.37826 41.6016 8.34961 37.5977 8.30078Z" fill="#fcfcf8" fill-rule="nonzero" opacity="1" stroke="none"/>
<path d="M50.0488 54.1504C50.0028 54.1515 49.9523 54.202 49.9512 54.248C49.9194 55.566 49.9041 56.8856 49.9512 58.2031C49.9536 58.2721 50.0286 58.3471 50.0977 58.3496C51.3989 58.3966 52.7027 58.3966 54.0039 58.3496C54.0729 58.3471 54.1479 58.2721 54.1504 58.2031C54.1974 56.8856 54.1821 55.566 54.1504 54.248C54.1493 54.202 54.0988 54.1515 54.0527 54.1504C52.7185 54.1186 51.3831 54.1186 50.0488 54.1504Z" fill="#af6a90" fill-rule="nonzero" opacity="1" stroke="none"/>
<path d="M75.1465 45.752C74.4463 46.0648 75.0252 47.2106 75.0488 47.7539C75.0799 48.4694 75.0177 49.1869 75.0488 49.9023C75.0508 49.9483 75.1037 49.9829 75.1465 50C75.6319 50.1942 76.4422 50 76.9531 50C77.5718 50 78.1899 50.0488 78.8086 50.0488C78.8869 50.0488 79.1458 49.98 79.1504 49.8535C79.1974 48.5523 79.1974 47.2485 79.1504 45.9473C79.1479 45.8783 79.0728 45.8056 79.0039 45.8008C78.3544 45.7555 77.7018 45.809 77.0508 45.8008C76.4159 45.7927 75.7262 45.4929 75.1465 45.752Z" fill="#fcfcf8" fill-rule="nonzero" opacity="1" stroke="none"/>
<path d="M20.8008 0C20.7845 1.31836 20.752 2.63662 20.752 3.95508C20.752 3.99704 20.8629 4.14953 20.8984 4.15039C22.2164 4.18215 23.5355 4.18215 24.8535 4.15039C24.8995 4.14928 24.9501 4.09876 24.9512 4.05273C24.9829 2.71848 24.9512 1.38346 24.9512 0.0488281C22.876 0.0244141 22.876 0.0244141 20.8008 0Z" fill="#21b44b" fill-rule="nonzero" opacity="1" stroke="none"/>
<path d="M41.6992 41.6504C41.6532 41.6515 41.6021 41.702 41.6016 41.748C41.5857 43.0501 41.6028 44.353 41.6504 45.6543C41.6521 45.7003 41.702 45.7508 41.748 45.752C43.0497 45.7837 44.3526 45.7829 45.6543 45.752C45.7271 45.7502 45.846 45.727 45.8496 45.6543C45.913 44.3701 45.8966 43.0818 45.8496 41.7969C45.8471 41.7279 45.7721 41.6528 45.7031 41.6504C44.3693 41.6033 43.0335 41.6186 41.6992 41.6504Z" fill="#fcfcf8" fill-rule="nonzero" opacity="1" stroke="none"/>
<path d="M66.748 41.6504C66.702 41.6515 66.6515 41.702 66.6504 41.748C66.6186 43.0497 66.6186 44.3526 66.6504 45.6543C66.6515 45.7003 66.702 45.7508 66.748 45.752C68.0497 45.7837 69.3526 45.7829 70.6543 45.752C70.7271 45.7502 70.846 45.727 70.8496 45.6543C70.913 44.3701 70.8966 43.0818 70.8496 41.7969C70.8471 41.7279 70.7721 41.6529 70.7031 41.6504C69.3856 41.6033 68.066 41.6186 66.748 41.6504Z" fill="#fcfcf8" fill-rule="nonzero" opacity="1" stroke="none"/>
<path d="M62.5977 45.8496C62.5651 45.8502 62.4034 46.013 62.4023 46.0937C62.3865 47.2981 62.3867 48.5027 62.4023 49.707C62.4029 49.7494 62.471 49.9493 62.5488 49.9512C63.8668 49.9829 65.1859 49.9829 66.5039 49.9512C66.5499 49.9501 66.6004 49.8995 66.6016 49.8535C66.6333 48.5518 66.6333 47.249 66.6016 45.9473C66.6004 45.9012 66.5499 45.8507 66.5039 45.8496C65.2022 45.8179 63.8995 45.827 62.5977 45.8496Z" fill="#fcfcf8" fill-rule="nonzero" opacity="1" stroke="none"/>
<path d="M29.1504 8.25195C29.1016 8.30078 29.1016 8.30078 29.0527 8.34961C29.1016 8.39844 29.1016 8.39844 29.1504 8.44727C29.1992 8.39844 29.1992 8.39844 29.248 8.34961C29.1992 8.30078 29.1992 8.30078 29.1504 8.25195Z" fill="#000000" fill-rule="nonzero" opacity="1" stroke="none"/>
</g>
</g>
</svg>
